<?xml version="1.0" encoding="UTF-8" standalone="no"?><!DOCTYPE score-partwise PUBLIC "-//Recordare//DTD MusicXML 1.1 Partwise//EN" "http://www.musicxml.org/dtds/partwise.dtd"><score-partwise>	<work>		<work-title>THE MARRIAGE IN THE SKIES, 438</work-title>	</work>	<identification>		<creator type="composer">Composer :</creator>		<creator type="poet">Remarks :</creator>		<encoding>			<software>Harmony Assistant v9.6.2m (c) Myriad - http://www.myriad-online.com</software>			<?PDFtoMusic Document type 0000- 58482395?>		</encoding>	</identification>	<defaults>		<scaling>			<millimeters>8.466666</millimeters>			<tenths>40</tenths>		</scaling>		<page-layout>			<page-height>1403.333</page-height>			<page-width>991.667</page-width>			<page-margins type="both">				<left-margin>30.000</left-margin>				<right-margin>30.000</right-margin>				<top-margin>30.000</top-margin>				 <bottom-margin>68.333</bottom-margin>			</page-margins>		</page-layout>	</defaults>	<credit>		<credit-words  default-x="395.167" default-y="1303.333" justify="left" valign="top" font-family="Geneva" font-size="8" font-weight="normal" font-style="normal">THE MARRIAGE IN THE SKIES, 438</credit-words>	</credit>	<credit>		<credit-words  default-x="837.333" default-y="1255.500" justify="left" valign="top" font-family="Geneva" font-size="8" font-weight="normal" font-style="normal">Composer :</credit-words>	</credit>	<credit>		<credit-words  default-x="105.833" default-y="1255.500" justify="left" valign="top" font-family="Geneva" font-size="8" font-weight="normal" font-style="normal">Remarks :</credit-words>	</credit>	<part-list>		<score-part id="P1">			<part-name font-family="Arial" font-size="10" font-weight="normal" font-style="normal">treble</part-name>			<part-abbreviation font-family="Arial" font-size="10" font-weight="normal" font-style="normal"></part-abbreviation>			<score-instrument id="P1-I1">				<instrument-name>Instr 8</instrument-name>			</score-instrument>			<midi-instrument id="P1-I1">				<midi-channel>5</midi-channel>				<midi-bank>1</midi-bank>				<midi-program>1</midi-program>				<?Myriad				<midi-volume>127</midi-volume>				?>				<?Myriad				<midi-panning>0</midi-panning>				?>			</midi-instrument>		</score-part>		<score-part id="P2">			<part-name font-family="Arial" font-size="10" font-weight="normal" font-style="normal">alto</part-name>			<part-abbreviation font-family="Arial" font-size="10" font-weight="normal" font-style="normal"></part-abbreviation>			<score-instrument id="P2-I1">				<instrument-name>Instr 9</instrument-name>			</score-instrument>			<midi-instrument id="P2-I1">				<midi-channel>6</midi-channel>				<midi-bank>1</midi-bank>				<midi-program>1</midi-program>				<?Myriad				<midi-volume>127</midi-volume>				?>				<?Myriad				<midi-panning>0</midi-panning>				?>			</midi-instrument>		</score-part>		<score-part id="P3">			<part-name font-family="Arial" font-size="10" font-weight="normal" font-style="normal">tenor</part-name>			<part-abbreviation font-family="Arial" font-size="10" font-weight="normal" font-style="normal"></part-abbreviation>			<score-instrument id="P3-I1">				<instrument-name>Instr 5</instrument-name>			</score-instrument>			<midi-instrument id="P3-I1">				<midi-channel>3</midi-channel>				<midi-bank>1</midi-bank>				<midi-program>1</midi-program>				<?Myriad				<midi-volume>127</midi-volume>				?>				<?Myriad				<midi-panning>0</midi-panning>				?>			</midi-instrument>		</score-part>		<score-part id="P4">			<part-name font-family="Arial" font-size="10" font-weight="normal" font-style="normal">bass</part-name>			<part-abbreviation font-family="Arial" font-size="10" font-weight="normal" font-style="normal"></part-abbreviation>			<score-instrument id="P4-I1">				<instrument-name>Instr 4</instrument-name>			</score-instrument>			<midi-instrument id="P4-I1">				<midi-channel>2</midi-channel>				<midi-bank>1</midi-bank>				<midi-program>1</midi-program>				<?Myriad				<midi-volume>127</midi-volume>				?>				<?Myriad				<midi-panning>0</midi-panning>				?>			</midi-instrument>		</score-part>	</part-list>	<part id="P1">		<!--==========================[1,1]=============================-->		<measure number="1" width="180">			<print>				<system-layout>					<system-margins>						<left-margin>122.500</left-margin>						<right-margin>46.667</right-margin>					</system-margins>					<top-system-distance>284.667</top-system-distance>				</system-layout>			</print>			<attributes>				<divisions>6720</divisions>				<key>					<cancel>-6</cancel>					<fifths>-1</fifths>					<mode>major</mode>				</key>				<time>					<beats>6</beats>					<beat-type>8</beat-type>				</time>				<clef number="1">					<sign>G</sign>					<line>2</line>				</clef>				<staff-details number="1" print-object="yes">					<staff-lines>5</staff-lines>					<staff-size>70.00</staff-size>				</staff-details>			</attributes>			<note>				<rest>					<display-step>F</display-step>					<display-octave>4</display-octave>				</rest>				<duration>10080</duration>				<voice>1</voice>				<type>quarter</type>				<dot/>			</note>			<note>				<pitch>					<step>C</step>					<octave>5</octave>				</pitch>				<duration>10080</duration>				<voice>1</voice>				<type>quarter</type>				<dot/>				<stem default-y="-50.00">down</stem>			</note>		</measure>		<!--==========================[1,2]=============================-->		<measure number="2" width="131">			<note>				<pitch>					<step>C</step>					<octave>5</octave>				</pitch>				<duration>6720</duration>				<voice>1</voice>				<type>quarter</type>				<stem default-y="-50.00">down</stem>			</note>			<note>				<pitch>					<step>C</step>					<octave>5</octave>				</pitch>				<duration>3360</duration>				<voice>1</voice>				<type>eighth</type>				<stem default-y="-50.00">down</stem>			</note>			<note>				<pitch>					<step>C</step>					<octave>5</octave>				</pitch>				<duration>6720</duration>				<voice>1</voice>				<type>quarter</type>				<stem default-y="-50.00">down</stem>			</note>			<note>				<pitch>					<step>C</step>					<octave>5</octave>				</pitch>				<duration>3360</duration>				<voice>1</voice>				<type>eighth</type>				<stem default-y="-50.00">down</stem>			</note>		</measure>		<!--==========================[1,3]=============================-->		<measure number="3" width="131">			<note>				<pitch>					<step>A</step>					<octave>4</octave>				</pitch>				<duration>6720</duration>				<voice>1</voice>				<type>quarter</type>				<stem default-y="10.00">up</stem>			</note>			<note>				<pitch>					<step>A</step>					<octave>4</octave>				</pitch>				<duration>3360</duration>				<voice>1</voice>				<type>eighth</type>				<stem default-y="10.00">up</stem>			</note>			<note>				<pitch>					<step>C</step>					<octave>5</octave>				</pitch>				<duration>6720</duration>				<voice>1</voice>				<type>quarter</type>				<stem default-y="-50.00">down</stem>			</note>			<note>				<pitch>					<step>A</step>					<octave>4</octave>				</pitch>				<duration>3360</duration>				<voice>1</voice>				<type>eighth</type>				<stem default-y="10.00">up</stem>			</note>		</measure>		<!--==========================[1,4]=============================-->		<measure number="4" width="131">			<note>				<pitch>					<step>B</step>					<alter>-1</alter>					<octave>4</octave>				</pitch>				<duration>6720</duration>				<voice>1</voice>				<type>quarter</type>				<stem default-y="-55.00">down</stem>			</note>			<note>				<pitch>					<step>B</step>					<alter>-1</alter>					<octave>4</octave>				</pitch>				<duration>3360</duration>				<voice>1</voice>				<type>eighth</type>				<stem default-y="-55.00">down</stem>			</note>			<note>				<pitch>					<step>C</step>					<octave>5</octave>				</pitch>				<duration>6720</duration>				<voice>1</voice>				<type>quarter</type>				<stem default-y="-50.00">down</stem>			</note>			<note>				<pitch>					<step>B</step>					<alter>-1</alter>					<octave>4</octave>				</pitch>				<duration>3360</duration>				<voice>1</voice>				<type>eighth</type>				<stem default-y="-55.00">down</stem>			</note>		</measure>		<!--==========================[1,5]=============================-->		<measure number="5" width="94">			<note>				<pitch>					<step>A</step>					<octave>4</octave>				</pitch>				<duration>10080</duration>				<voice>1</voice>				<type>quarter</type>				<dot/>				<stem default-y="10.00">up</stem>			</note>			<note>				<pitch>					<step>A</step>					<octave>4</octave>				</pitch>				<duration>10080</duration>				<voice>1</voice>				<type>quarter</type>				<dot/>				<stem default-y="10.00">up</stem>			</note>		</measure>		<!--==========================[1,6]=============================-->		<measure number="6" width="131">			<note>				<pitch>					<step>C</step>					<octave>5</octave>				</pitch>				<duration>6720</duration>				<voice>1</voice>				<type>quarter</type>				<stem default-y="-50.00">down</stem>			</note>			<note>				<pitch>					<step>C</step>					<octave>5</octave>				</pitch>				<duration>3360</duration>				<voice>1</voice>				<type>eighth</type>				<stem default-y="-50.00">down</stem>			</note>			<note>				<pitch>					<step>C</step>					<octave>5</octave>				</pitch>				<duration>6720</duration>				<voice>1</voice>				<type>quarter</type>				<stem default-y="-50.00">down</stem>			</note>			<note>				<pitch>					<step>A</step>					<octave>4</octave>				</pitch>				<duration>3360</duration>				<voice>1</voice>				<type>eighth</type>				<stem default-y="10.00">up</stem>			</note>		</measure>		<!--==========================[1,7]=============================-->		<measure number="7" width="131">			<note>				<pitch>					<step>A</step>					<octave>4</octave>				</pitch>				<duration>6720</duration>				<voice>1</voice>				<type>quarter</type>				<stem default-y="10.00">up</stem>			</note>			<note>				<pitch>					<step>C</step>					<octave>5</octave>				</pitch>				<duration>3360</duration>				<voice>1</voice>				<type>eighth</type>				<stem default-y="-50.00">down</stem>			</note>			<note>				<pitch>					<step>C</step>					<octave>5</octave>				</pitch>				<duration>6720</duration>				<voice>1</voice>				<type>quarter</type>				<stem default-y="-50.00">down</stem>			</note>			<note>				<pitch>					<step>C</step>					<octave>5</octave>				</pitch>				<duration>3360</duration>				<voice>1</voice>				<type>eighth</type>				<stem default-y="-50.00">down</stem>			</note>		</measure>		<!--==========================[1,8]=============================-->		<measure number="8" width="131">			<note>				<pitch>					<step>A</step>					<octave>4</octave>				</pitch>				<duration>6720</duration>				<voice>1</voice>				<type>quarter</type>				<stem default-y="10.00">up</stem>			</note>			<note>				<pitch>					<step>C</step>					<octave>5</octave>				</pitch>				<duration>3360</duration>				<voice>1</voice>				<type>eighth</type>				<stem default-y="-50.00">down</stem>			</note>			<note>				<pitch>					<step>D</step>					<octave>5</octave>				</pitch>				<duration>6720</duration>				<voice>1</voice>				<type>quarter</type>				<stem default-y="-45.00">down</stem>			</note>			<note>				<pitch>					<step>C</step>					<octave>5</octave>				</pitch>				<duration>3360</duration>				<voice>1</voice>				<type>eighth</type>				<stem default-y="-50.00">down</stem>			</note>		</measure>		<!--==========================[1,9]=============================-->		<measure number="9" width="131">			<print new-system="yes">				<system-layout>					<system-margins>						<left-margin>75.833</left-margin>						<right-margin>46.667</right-margin>					</system-margins>					<system-distance>184.333</system-distance>				</system-layout>			</print>			<note>				<pitch>					<step>C</step>					<octave>5</octave>				</pitch>				<duration>10080</duration>				<voice>1</voice>				<type>quarter</type>				<dot/>				<stem default-y="-50.00">down</stem>			</note>			<note>				<pitch>					<step>C</step>					<octave>5</octave>				</pitch>				<duration>10080</duration>				<voice>1</voice>				<type>quarter</type>				<dot/>				<stem default-y="-50.00">down</stem>			</note>		</measure>		<!--==========================[1,10]=============================-->		<measure number="10" width="131">			<note>				<pitch>					<step>C</step>					<octave>5</octave>				</pitch>				<duration>6720</duration>				<voice>1</voice>				<type>quarter</type>				<stem default-y="-50.00">down</stem>			</note>			<note>				<pitch>					<step>C</step>					<octave>5</octave>				</pitch>				<duration>3360</duration>				<voice>1</voice>				<type>eighth</type>				<stem default-y="-50.00">down</stem>			</note>			<note>				<pitch>					<step>C</step>					<octave>5</octave>				</pitch>				<duration>6720</duration>				<voice>1</voice>				<type>quarter</type>				<stem default-y="-50.00">down</stem>			</note>			<note>				<pitch>					<step>C</step>					<octave>5</octave>				</pitch>				<duration>3360</duration>				<voice>1</voice>				<type>eighth</type>				<stem default-y="-50.00">down</stem>			</note>		</measure>		<!--==========================[1,11]=============================-->		<measure number="11" width="131">			<note>				<pitch>					<step>A</step>					<octave>4</octave>				</pitch>				<duration>6720</duration>				<voice>1</voice>				<type>quarter</type>				<stem default-y="10.00">up</stem>			</note>			<note>				<pitch>					<step>A</step>					<octave>4</octave>				</pitch>				<duration>3360</duration>				<voice>1</voice>				<type>eighth</type>				<stem default-y="10.00">up</stem>			</note>			<note>				<pitch>					<step>C</step>					<octave>5</octave>				</pitch>				<duration>6720</duration>				<voice>1</voice>				<type>quarter</type>				<stem default-y="-50.00">down</stem>			</note>			<note>				<pitch>					<step>A</step>					<octave>4</octave>				</pitch>				<duration>3360</duration>				<voice>1</voice>				<type>eighth</type>				<stem default-y="10.00">up</stem>			</note>		</measure>		<!--==========================[1,12]=============================-->		<measure number="12" width="131">			<note>				<pitch>					<step>B</step>					<alter>-1</alter>					<octave>4</octave>				</pitch>				<duration>6720</duration>				<voice>1</voice>				<type>quarter</type>				<stem default-y="-55.00">down</stem>			</note>			<note>				<pitch>					<step>B</step>					<alter>-1</alter>					<octave>4</octave>				</pitch>				<duration>3360</duration>				<voice>1</voice>				<type>eighth</type>				<stem default-y="-55.00">down</stem>			</note>			<note>				<pitch>					<step>C</step>					<octave>5</octave>				</pitch>				<duration>6720</duration>				<voice>1</voice>				<type>quarter</type>				<stem default-y="-50.00">down</stem>			</note>			<note>				<pitch>					<step>B</step>					<alter>-1</alter>					<octave>4</octave>				</pitch>				<duration>3360</duration>				<voice>1</voice>				<type>eighth</type>				<stem default-y="-55.00">down</stem>			</note>		</measure>		<!--==========================[1,13]=============================-->		<measure number="13" width="78">			<note>				<pitch>					<step>A</step>					<octave>4</octave>				</pitch>				<duration>10080</duration>				<voice>1</voice>				<type>quarter</type>				<dot/>				<stem default-y="10.00">up</stem>			</note>		</measure>		<!--==========================[1,14]=============================-->		<measure number="14" width="78">			<direction placement="below">				<direction-type>					<words font-family="Lucida Grande" font-weight="normal" font-style="normal" relative-x="0.00" default-y="-0.00">$S</words>					<segno relative-x="0.00" default-y="-0.00"/>				</direction-type>				<sound segno="0"/>			</direction>			<note>				<pitch>					<step>A</step>					<octave>4</octave>				</pitch>				<duration>10080</duration>				<voice>1</voice>				<type>quarter</type>				<dot/>				<stem default-y="10.00">up</stem>			</note>		</measure>		<!--==========================[1,15]=============================-->		<measure number="15" width="131">			<note>				<pitch>					<step>C</step>					<octave>5</octave>				</pitch>				<duration>6720</duration>				<voice>1</voice>				<type>quarter</type>				<stem default-y="-50.00">down</stem>			</note>			<note>				<pitch>					<step>C</step>					<octave>5</octave>				</pitch>				<duration>3360</duration>				<voice>1</voice>				<type>eighth</type>				<stem default-y="-50.00">down</stem>			</note>			<note>				<pitch>					<step>C</step>					<octave>5</octave>				</pitch>				<duration>6720</duration>				<voice>1</voice>				<type>quarter</type>				<stem default-y="-50.00">down</stem>			</note>			<note>				<pitch>					<step>B</step>					<alter>-1</alter>					<octave>4</octave>				</pitch>				<duration>3360</duration>				<voice>1</voice>				<type>eighth</type>				<stem default-y="-55.00">down</stem>			</note>		</measure>		<!--==========================[1,16]=============================-->		<measure number="16" width="131">			<note>				<pitch>					<step>A</step>					<octave>4</octave>				</pitch>				<duration>6720</duration>				<voice>1</voice>				<type>quarter</type>				<stem default-y="10.00">up</stem>			</note>			<note>				<pitch>					<step>C</step>					<octave>5</octave>				</pitch>				<duration>3360</duration>				<voice>1</voice>				<type>eighth</type>				<stem default-y="-50.00">down</stem>			</note>			<note>				<pitch>					<step>C</step>					<octave>5</octave>				</pitch>				<duration>6720</duration>				<voice>1</voice>				<type>quarter</type>				<stem default-y="-50.00">down</stem>			</note>			<note>				<pitch>					<step>C</step>					<octave>5</octave>				</pitch>				<duration>3360</duration>				<voice>1</voice>				<type>eighth</type>				<stem default-y="-50.00">down</stem>			</note>		</measure>		<!--==========================[1,17]=============================-->		<measure number="17" width="131">			<note>				<pitch>					<step>C</step>					<octave>5</octave>				</pitch>				<duration>6720</duration>				<voice>1</voice>				<type>quarter</type>				<stem default-y="-50.00">down</stem>			</note>			<note>				<pitch>					<step>C</step>					<octave>5</octave>				</pitch>				<duration>3360</duration>				<voice>1</voice>				<type>eighth</type>				<stem default-y="-50.00">down</stem>			</note>			<note>				<pitch>					<step>C</step>					<octave>5</octave>				</pitch>				<duration>6720</duration>				<voice>1</voice>				<type>quarter</type>				<stem default-y="-50.00">down</stem>			</note>			<note>				<pitch>					<step>B</step>					<alter>-1</alter>					<octave>4</octave>				</pitch>				<duration>3360</duration>				<voice>1</voice>				<type>eighth</type>				<stem default-y="-55.00">down</stem>			</note>		</measure>		<!--==========================[1,18]=============================-->		<measure number="18" width="80">			<print new-page="yes">				<system-layout>					<system-margins>						<left-margin>75.833</left-margin>						<right-margin>46.667</right-margin>					</system-margins>					<top-system-distance>497.000</top-system-distance>				</system-layout>			</print>			<note>				<pitch>					<step>A</step>					<octave>4</octave>				</pitch>				<duration>20160</duration>				<voice>1</voice>				<type>half</type>				<dot/>				<stem default-y="10.00">up</stem>			</note>			<direction placement="below">				<direction-type>					<words font-family="Lucida Grande" font-weight="normal" font-style="normal" relative-x="-911.40" default-y="-0.00">Fine</words>				</direction-type>				<offset>-20159.00</offset>				<sound fine="yes"/>			</direction>		</measure>		<!--==========================[1,19]=============================-->		<measure number="19" width="91">			<note>				<rest>					<display-step>F</display-step>					<display-octave>4</display-octave>				</rest>				<duration>10080</duration>				<voice>1</voice>				<type>quarter</type>				<dot/>			</note>			<note>				<pitch>					<step>C</step>					<octave>5</octave>				</pitch>				<duration>10080</duration>				<voice>1</voice>				<type>quarter</type>				<dot/>				<stem default-y="-50.00">down</stem>			</note>		</measure>		<!--==========================[1,20]=============================-->		<measure number="20" width="131">			<note>				<pitch>					<step>A</step>					<octave>4</octave>				</pitch>				<duration>6720</duration>				<voice>1</voice>				<type>quarter</type>				<stem default-y="10.00">up</stem>			</note>			<note>				<pitch>					<step>A</step>					<octave>4</octave>				</pitch>				<duration>3360</duration>				<voice>1</voice>				<type>eighth</type>				<stem default-y="10.00">up</stem>			</note>			<note>				<pitch>					<step>B</step>					<alter>-1</alter>					<octave>4</octave>				</pitch>				<duration>6720</duration>				<voice>1</voice>				<type>quarter</type>				<stem default-y="-55.00">down</stem>			</note>			<note>				<pitch>					<step>B</step>					<alter>-1</alter>					<octave>4</octave>				</pitch>				<duration>3360</duration>				<voice>1</voice>				<type>eighth</type>				<stem default-y="-55.00">down</stem>			</note>		</measure>		<!--==========================[1,21]=============================-->		<measure number="21" width="131">			<note>				<pitch>					<step>C</step>					<octave>5</octave>				</pitch>				<duration>6720</duration>				<voice>1</voice>				<type>quarter</type>				<stem default-y="-50.00">down</stem>			</note>			<note>				<pitch>					<step>A</step>					<octave>4</octave>				</pitch>				<duration>3360</duration>				<voice>1</voice>				<type>eighth</type>				<stem default-y="10.00">up</stem>			</note>			<note>				<pitch>					<step>C</step>					<octave>5</octave>				</pitch>				<duration>6720</duration>				<voice>1</voice>				<type>quarter</type>				<stem default-y="-50.00">down</stem>			</note>			<note>				<pitch>					<step>A</step>					<octave>4</octave>				</pitch>				<duration>3360</duration>				<voice>1</voice>				<type>eighth</type>				<stem default-y="10.00">up</stem>			</note>		</measure>		<!--==========================[1,22]=============================-->		<measure number="22" width="131">			<note>				<pitch>					<step>B</step>					<alter>-1</alter>					<octave>4</octave>				</pitch>				<duration>6720</duration>				<voice>1</voice>				<type>quarter</type>				<stem default-y="-55.00">down</stem>			</note>			<note>				<pitch>					<step>B</step>					<alter>-1</alter>					<octave>4</octave>				</pitch>				<duration>3360</duration>				<voice>1</voice>				<type>eighth</type>				<stem default-y="-55.00">down</stem>			</note>			<note>				<pitch>					<step>C</step>					<octave>5</octave>				</pitch>				<duration>6720</duration>				<voice>1</voice>				<type>quarter</type>				<stem default-y="-50.00">down</stem>			</note>			<note>				<pitch>					<step>B</step>					<alter>-1</alter>					<octave>4</octave>				</pitch>				<duration>3360</duration>				<voice>1</voice>				<type>eighth</type>				<stem default-y="-55.00">down</stem>			</note>		</measure>		<!--==========================[1,23]=============================-->		<measure number="23" width="91">			<note>				<pitch>					<step>C</step>					<octave>5</octave>				</pitch>				<duration>6720</duration>				<voice>1</voice>				<type>quarter</type>				<stem default-y="-50.00">down</stem>				<notations>					<fermata type="upright" relative-x="-5.71" relative-y="1.67"/>				</notations>			</note>			<note>				<chord/>				<pitch>					<step>A</step>					<octave>4</octave>				</pitch>				<duration>6720</duration>				<voice>1</voice>				<type>quarter</type>				<stem default-y="-60.00">down</stem>			</note>			<forward>				<duration>13439</duration>			</forward>			<direction placement="below">				<direction-type>					<words font-family="Lucida Grande" font-weight="normal" font-style="normal" relative-x="38.50" default-y="-0.00">Da Segno $S Al Fine</words>				</direction-type>				<offset>-20159.00</offset>			</direction>			<barline location="right">				<bar-style>light-heavy</bar-style>			</barline>		</measure>	</part>	<part id="P2">		<!--==========================[2,1]=============================-->		<measure number="1" width="180">			<print>				<staff-layout number="1">					<staff-distance>64.167</staff-distance>				</staff-layout>			</print>			<attributes>				<divisions>6720</divisions>				<key>					<cancel>-6</cancel>					<fifths>-1</fifths>					<mode>major</mode>				</key>				<time>					<beats>6</beats>					<beat-type>8</beat-type>				</time>				<clef number="1">					<sign>G</sign>					<line>2</line>				</clef>				<staff-details number="1" print-object="yes">					<staff-lines>5</staff-lines>					<staff-size>70.00</staff-size>				</staff-details>			</attributes>			<note>				<rest>					<display-step>F</display-step>					<display-octave>4</display-octave>				</rest>				<duration>10080</duration>				<voice>1</voice>				<type>quarter</type>				<dot/>			</note>			<note>				<pitch>					<step>A</step>					<octave>4</octave>				</pitch>				<duration>10080</duration>				<voice>1</voice>				<type>quarter</type>				<dot/>				<stem default-y="10.00">up</stem>			</note>		</measure>		<!--==========================[2,2]=============================-->		<measure number="2" width="131">			<note>				<pitch>					<step>F</step>					<octave>4</octave>				</pitch>				<duration>6720</duration>				<voice>1</voice>				<type>quarter</type>				<stem default-y="0.00">up</stem>			</note>			<note>				<pitch>					<step>F</step>					<octave>4</octave>				</pitch>				<duration>3360</duration>				<voice>1</voice>				<type>eighth</type>				<stem default-y="0.00">up</stem>			</note>			<note>				<pitch>					<step>F</step>					<octave>4</octave>				</pitch>				<duration>6720</duration>				<voice>1</voice>				<type>quarter</type>				<stem default-y="0.00">up</stem>			</note>			<note>				<pitch>					<step>F</step>					<octave>4</octave>				</pitch>				<duration>3360</duration>				<voice>1</voice>				<type>eighth</type>				<stem default-y="0.00">up</stem>			</note>		</measure>		<!--==========================[2,3]=============================-->		<measure number="3" width="131">			<note>				<pitch>					<step>F</step>					<octave>4</octave>				</pitch>				<duration>6720</duration>				<voice>1</voice>				<type>quarter</type>				<stem default-y="0.00">up</stem>			</note>			<note>				<pitch>					<step>F</step>					<octave>4</octave>				</pitch>				<duration>3360</duration>				<voice>1</voice>				<type>eighth</type>				<stem default-y="0.00">up</stem>			</note>			<note>				<pitch>					<step>F</step>					<octave>4</octave>				</pitch>				<duration>6720</duration>				<voice>1</voice>				<type>quarter</type>				<stem default-y="0.00">up</stem>			</note>			<note>				<pitch>					<step>F</step>					<octave>4</octave>				</pitch>				<duration>3360</duration>				<voice>1</voice>				<type>eighth</type>				<stem default-y="0.00">up</stem>			</note>		</measure>		<!--==========================[2,4]=============================-->		<measure number="4" width="131">			<note>				<pitch>					<step>F</step>					<octave>4</octave>				</pitch>				<duration>6720</duration>				<voice>1</voice>				<type>quarter</type>				<stem default-y="0.00">up</stem>			</note>			<note>				<pitch>					<step>F</step>					<octave>4</octave>				</pitch>				<duration>3360</duration>				<voice>1</voice>				<type>eighth</type>				<stem default-y="0.00">up</stem>			</note>			<note>				<pitch>					<step>A</step>					<octave>4</octave>				</pitch>				<duration>6720</duration>				<voice>1</voice>				<type>quarter</type>				<stem default-y="10.00">up</stem>			</note>			<note>				<pitch>					<step>F</step>					<octave>4</octave>				</pitch>				<duration>3360</duration>				<voice>1</voice>				<type>eighth</type>				<stem default-y="0.00">up</stem>			</note>		</measure>		<!--==========================[2,5]=============================-->		<measure number="5" width="94">			<note>				<pitch>					<step>F</step>					<octave>4</octave>				</pitch>				<duration>10080</duration>				<voice>1</voice>				<type>quarter</type>				<dot/>				<stem default-y="0.00">up</stem>			</note>			<note>				<pitch>					<step>F</step>					<octave>4</octave>				</pitch>				<duration>10080</duration>				<voice>1</voice>				<type>quarter</type>				<dot/>				<stem default-y="0.00">up</stem>			</note>		</measure>		<!--==========================[2,6]=============================-->		<measure number="6" width="131">			<note>				<pitch>					<step>A</step>					<octave>4</octave>				</pitch>				<duration>6720</duration>				<voice>1</voice>				<type>quarter</type>				<stem default-y="10.00">up</stem>			</note>			<note>				<pitch>					<step>A</step>					<octave>4</octave>				</pitch>				<duration>3360</duration>				<voice>1</voice>				<type>eighth</type>				<stem default-y="10.00">up</stem>			</note>			<note>				<pitch>					<step>A</step>					<octave>4</octave>				</pitch>				<duration>6720</duration>				<voice>1</voice>				<type>quarter</type>				<stem default-y="10.00">up</stem>			</note>			<note>				<pitch>					<step>F</step>					<octave>4</octave>				</pitch>				<duration>3360</duration>				<voice>1</voice>				<type>eighth</type>				<stem default-y="0.00">up</stem>			</note>		</measure>		<!--==========================[2,7]=============================-->		<measure number="7" width="131">			<note>				<pitch>					<step>F</step>					<octave>4</octave>				</pitch>				<duration>6720</duration>				<voice>1</voice>				<type>quarter</type>				<stem default-y="0.00">up</stem>			</note>			<note>				<pitch>					<step>F</step>					<octave>4</octave>				</pitch>				<duration>3360</duration>				<voice>1</voice>				<type>eighth</type>				<stem default-y="0.00">up</stem>			</note>			<note>				<pitch>					<step>F</step>					<octave>4</octave>				</pitch>				<duration>6720</duration>				<voice>1</voice>				<type>quarter</type>				<stem default-y="0.00">up</stem>			</note>			<note>				<pitch>					<step>A</step>					<octave>4</octave>				</pitch>				<duration>3360</duration>				<voice>1</voice>				<type>eighth</type>				<stem default-y="10.00">up</stem>			</note>		</measure>		<!--==========================[2,8]=============================-->		<measure number="8" width="131">			<note>				<pitch>					<step>F</step>					<octave>4</octave>				</pitch>				<duration>6720</duration>				<voice>1</voice>				<type>quarter</type>				<stem default-y="0.00">up</stem>			</note>			<note>				<pitch>					<step>F</step>					<octave>4</octave>				</pitch>				<duration>3360</duration>				<voice>1</voice>				<type>eighth</type>				<stem default-y="0.00">up</stem>			</note>			<note>				<pitch>					<step>F</step>					<octave>4</octave>				</pitch>				<duration>6720</duration>				<voice>1</voice>				<type>quarter</type>				<stem default-y="0.00">up</stem>			</note>			<note>				<pitch>					<step>F</step>					<octave>4</octave>				</pitch>				<duration>3360</duration>				<voice>1</voice>				<type>eighth</type>				<stem default-y="0.00">up</stem>			</note>		</measure>		<!--==========================[2,9]=============================-->		<measure number="9" width="131">			<print new-system="yes">				<staff-layout number="1">					<staff-distance>64.167</staff-distance>				</staff-layout>			</print>			<note>				<pitch>					<step>E</step>					<octave>4</octave>				</pitch>				<duration>10080</duration>				<voice>1</voice>				<type>quarter</type>				<dot/>				<stem default-y="-5.00">up</stem>			</note>			<note>				<pitch>					<step>A</step>					<octave>4</octave>				</pitch>				<duration>10080</duration>				<voice>1</voice>				<type>quarter</type>				<dot/>				<stem default-y="10.00">up</stem>			</note>		</measure>		<!--==========================[2,10]=============================-->		<measure number="10" width="131">			<note>				<pitch>					<step>F</step>					<octave>4</octave>				</pitch>				<duration>6720</duration>				<voice>1</voice>				<type>quarter</type>				<stem default-y="0.00">up</stem>			</note>			<note>				<pitch>					<step>F</step>					<octave>4</octave>				</pitch>				<duration>3360</duration>				<voice>1</voice>				<type>eighth</type>				<stem default-y="0.00">up</stem>			</note>			<note>				<pitch>					<step>F</step>					<octave>4</octave>				</pitch>				<duration>6720</duration>				<voice>1</voice>				<type>quarter</type>				<stem default-y="0.00">up</stem>			</note>			<note>				<pitch>					<step>F</step>					<octave>4</octave>				</pitch>				<duration>3360</duration>				<voice>1</voice>				<type>eighth</type>				<stem default-y="0.00">up</stem>			</note>		</measure>		<!--==========================[2,11]=============================-->		<measure number="11" width="131">			<note>				<pitch>					<step>F</step>					<octave>4</octave>				</pitch>				<duration>6720</duration>				<voice>1</voice>				<type>quarter</type>				<stem default-y="0.00">up</stem>			</note>			<note>				<pitch>					<step>F</step>					<octave>4</octave>				</pitch>				<duration>3360</duration>				<voice>1</voice>				<type>eighth</type>				<stem default-y="0.00">up</stem>			</note>			<note>				<pitch>					<step>F</step>					<octave>4</octave>				</pitch>				<duration>6720</duration>				<voice>1</voice>				<type>quarter</type>				<stem default-y="0.00">up</stem>			</note>			<note>				<pitch>					<step>F</step>					<octave>4</octave>				</pitch>				<duration>3360</duration>				<voice>1</voice>				<type>eighth</type>				<stem default-y="0.00">up</stem>			</note>		</measure>		<!--==========================[2,12]=============================-->		<measure number="12" width="131">			<note>				<pitch>					<step>G</step>					<octave>4</octave>				</pitch>				<duration>6720</duration>				<voice>1</voice>				<type>quarter</type>				<stem default-y="5.00">up</stem>			</note>			<note>				<pitch>					<step>G</step>					<octave>4</octave>				</pitch>				<duration>3360</duration>				<voice>1</voice>				<type>eighth</type>				<stem default-y="5.00">up</stem>			</note>			<note>				<pitch>					<step>F</step>					<octave>4</octave>				</pitch>				<duration>6720</duration>				<voice>1</voice>				<type>quarter</type>				<stem default-y="0.00">up</stem>			</note>			<note>				<pitch>					<step>F</step>					<octave>4</octave>				</pitch>				<duration>3360</duration>				<voice>1</voice>				<type>eighth</type>				<stem default-y="0.00">up</stem>			</note>		</measure>		<!--==========================[2,13]=============================-->		<measure number="13" width="78">			<note>				<pitch>					<step>F</step>					<octave>4</octave>				</pitch>				<duration>10080</duration>				<voice>1</voice>				<type>quarter</type>				<dot/>				<stem default-y="0.00">up</stem>			</note>		</measure>		<!--==========================[2,14]=============================-->		<measure number="14" width="78">			<direction placement="below">				<direction-type>					<words font-family="Lucida Grande" font-weight="normal" font-style="normal" relative-x="0.00" default-y="-0.00">$S</words>					<segno relative-x="0.00" default-y="-0.00"/>				</direction-type>				<sound segno="0"/>			</direction>			<note>				<pitch>					<step>F</step>					<octave>4</octave>				</pitch>				<duration>10080</duration>				<voice>1</voice>				<type>quarter</type>				<dot/>				<stem default-y="0.00">up</stem>			</note>		</measure>		<!--==========================[2,15]=============================-->		<measure number="15" width="131">			<note>				<pitch>					<step>A</step>					<octave>4</octave>				</pitch>				<duration>6720</duration>				<voice>1</voice>				<type>quarter</type>				<stem default-y="10.00">up</stem>			</note>			<note>				<pitch>					<step>A</step>					<octave>4</octave>				</pitch>				<duration>3360</duration>				<voice>1</voice>				<type>eighth</type>				<stem default-y="10.00">up</stem>			</note>			<note>				<pitch>					<step>A</step>					<octave>4</octave>				</pitch>				<duration>6720</duration>				<voice>1</voice>				<type>quarter</type>				<stem default-y="10.00">up</stem>			</note>			<note>				<pitch>					<step>F</step>					<octave>4</octave>				</pitch>				<duration>3360</duration>				<voice>1</voice>				<type>eighth</type>				<stem default-y="0.00">up</stem>			</note>		</measure>		<!--==========================[2,16]=============================-->		<measure number="16" width="131">			<note>				<pitch>					<step>F</step>					<octave>4</octave>				</pitch>				<duration>6720</duration>				<voice>1</voice>				<type>quarter</type>				<stem default-y="0.00">up</stem>			</note>			<note>				<pitch>					<step>F</step>					<octave>4</octave>				</pitch>				<duration>3360</duration>				<voice>1</voice>				<type>eighth</type>				<stem default-y="0.00">up</stem>			</note>			<note>				<pitch>					<step>F</step>					<octave>4</octave>				</pitch>				<duration>6720</duration>				<voice>1</voice>				<type>quarter</type>				<stem default-y="0.00">up</stem>			</note>			<note>				<pitch>					<step>A</step>					<octave>4</octave>				</pitch>				<duration>3360</duration>				<voice>1</voice>				<type>eighth</type>				<stem default-y="10.00">up</stem>			</note>		</measure>		<!--==========================[2,17]=============================-->		<measure number="17" width="131">			<note>				<pitch>					<step>F</step>					<octave>4</octave>				</pitch>				<duration>6720</duration>				<voice>1</voice>				<type>quarter</type>				<stem default-y="0.00">up</stem>			</note>			<note>				<pitch>					<step>F</step>					<octave>4</octave>				</pitch>				<duration>3360</duration>				<voice>1</voice>				<type>eighth</type>				<stem default-y="0.00">up</stem>			</note>			<note>				<pitch>					<step>E</step>					<octave>4</octave>				</pitch>				<duration>6720</duration>				<voice>1</voice>				<type>quarter</type>				<stem default-y="-5.00">up</stem>			</note>			<note>				<chord/>				<pitch>					<step>C</step>					<octave>4</octave>				</pitch>				<duration>6720</duration>				<voice>1</voice>				<type>quarter</type>				<stem default-y="-15.00">up</stem>			</note>			<note>				<pitch>					<step>E</step>					<octave>4</octave>				</pitch>				<duration>3360</duration>				<voice>1</voice>				<type>eighth</type>				<stem default-y="-5.00">up</stem>			</note>			<note>				<chord/>				<pitch>					<step>C</step>					<octave>4</octave>				</pitch>				<duration>3360</duration>				<voice>1</voice>				<type>eighth</type>				<stem default-y="-15.00">up</stem>			</note>		</measure>		<!--==========================[2,18]=============================-->		<measure number="18" width="80">			<print new-page="yes">				<staff-layout number="1">					<staff-distance>64.167</staff-distance>				</staff-layout>			</print>			<note>				<pitch>					<step>F</step>					<octave>4</octave>				</pitch>				<duration>20160</duration>				<voice>1</voice>				<type>half</type>				<dot/>				<stem default-y="0.00">up</stem>			</note>			<note>				<chord/>				<pitch>					<step>C</step>					<octave>4</octave>				</pitch>				<duration>20160</duration>				<voice>1</voice>				<type>half</type>				<dot/>				<stem default-y="-15.00">up</stem>			</note>			<direction placement="below">				<direction-type>					<words font-family="Lucida Grande" font-weight="normal" font-style="normal" relative-x="-911.40" default-y="-0.00">Fine</words>				</direction-type>				<offset>-20159.00</offset>				<sound fine="yes"/>			</direction>		</measure>		<!--==========================[2,19]=============================-->		<measure number="19" width="91">			<note>				<rest>					<display-step>F</display-step>					<display-octave>4</display-octave>				</rest>				<duration>10080</duration>				<voice>1</voice>				<type>quarter</type>				<dot/>			</note>			<note>				<pitch>					<step>F</step>					<octave>4</octave>				</pitch>				<duration>10080</duration>				<voice>1</voice>				<type>quarter</type>				<dot/>				<stem default-y="0.00">up</stem>			</note>		</measure>		<!--==========================[2,20]=============================-->		<measure number="20" width="131">			<note>				<pitch>					<step>F</step>					<octave>4</octave>				</pitch>				<duration>6720</duration>				<voice>1</voice>				<type>quarter</type>				<stem default-y="0.00">up</stem>			</note>			<note>				<pitch>					<step>F</step>					<octave>4</octave>				</pitch>				<duration>3360</duration>				<voice>1</voice>				<type>eighth</type>				<stem default-y="0.00">up</stem>			</note>			<note>				<pitch>					<step>F</step>					<octave>4</octave>				</pitch>				<duration>6720</duration>				<voice>1</voice>				<type>quarter</type>				<stem default-y="0.00">up</stem>			</note>			<note>				<pitch>					<step>G</step>					<octave>4</octave>				</pitch>				<duration>3360</duration>				<voice>1</voice>				<type>eighth</type>				<stem default-y="5.00">up</stem>			</note>		</measure>		<!--==========================[2,21]=============================-->		<measure number="21" width="131">			<note>				<pitch>					<step>A</step>					<octave>4</octave>				</pitch>				<duration>10080</duration>				<tie type="start"/>				<voice>1</voice>				<type>quarter</type>				<dot/>				<stem default-y="10.00">up</stem>				<notations>					<tied type="start" number="1" placement="below" orientation="under"/>				</notations>			</note>			<note>				<pitch>					<step>A</step>					<octave>4</octave>				</pitch>				<duration>6720</duration>				<tie type="stop"/>				<voice>1</voice>				<type>quarter</type>				<stem default-y="10.00">up</stem>				<notations>					<tied type="stop" number="1"/>				</notations>			</note>			<note>				<pitch>					<step>F</step>					<octave>4</octave>				</pitch>				<duration>3360</duration>				<voice>1</voice>				<type>eighth</type>				<stem default-y="0.00">up</stem>			</note>		</measure>		<!--==========================[2,22]=============================-->		<measure number="22" width="131">			<note>				<pitch>					<step>F</step>					<octave>4</octave>				</pitch>				<duration>6720</duration>				<voice>1</voice>				<type>quarter</type>				<stem default-y="0.00">up</stem>			</note>			<note>				<pitch>					<step>G</step>					<octave>4</octave>				</pitch>				<duration>3360</duration>				<voice>1</voice>				<type>eighth</type>				<stem default-y="5.00">up</stem>			</note>			<note>				<pitch>					<step>A</step>					<octave>4</octave>				</pitch>				<duration>6720</duration>				<voice>1</voice>				<type>quarter</type>				<stem default-y="10.00">up</stem>			</note>			<note>				<pitch>					<step>G</step>					<octave>4</octave>				</pitch>				<duration>3360</duration>				<voice>1</voice>				<type>eighth</type>				<stem default-y="5.00">up</stem>			</note>		</measure>		<!--==========================[2,23]=============================-->		<measure number="23" width="91">			<note>				<pitch>					<step>F</step>					<octave>4</octave>				</pitch>				<duration>10080</duration>				<voice>1</voice>				<type>quarter</type>				<dot/>				<stem default-y="0.00">up</stem>				<notations>					<fermata type="upright" relative-x="-5.71" relative-y="-14.05"/>				</notations>			</note>			<note>				<chord/>				<pitch>					<step>C</step>					<octave>4</octave>				</pitch>				<duration>10080</duration>				<voice>1</voice>				<type>quarter</type>				<dot/>				<stem default-y="-15.00">up</stem>			</note>			<forward>				<duration>10079</duration>			</forward>			<direction placement="below">				<direction-type>					<words font-family="Lucida Grande" font-weight="normal" font-style="normal" relative-x="38.50" default-y="-0.00">Da Segno $S Al Fine</words>				</direction-type>				<offset>-20159.00</offset>			</direction>			<barline location="right">				<bar-style>light-heavy</bar-style>			</barline>		</measure>	</part>	<part id="P3">		<!--==========================[3,1]=============================-->		<measure number="1" width="180">			<print>				<staff-layout number="1">					<staff-distance>64.167</staff-distance>				</staff-layout>			</print>			<attributes>				<divisions>6720</divisions>				<key>					<cancel>-6</cancel>					<fifths>-1</fifths>					<mode>major</mode>				</key>				<time>					<beats>6</beats>					<beat-type>8</beat-type>				</time>				<clef number="1">					<sign>G</sign>					<line>2</line>				</clef>				<staff-details number="1" print-object="yes">					<staff-lines>5</staff-lines>					<staff-size>70.00</staff-size>				</staff-details>			</attributes>			<note>				<rest>					<display-step>F</display-step>					<display-octave>4</display-octave>				</rest>				<duration>10080</duration>				<voice>1</voice>				<type>quarter</type>				<dot/>			</note>			<note>				<pitch>					<step>F</step>					<octave>4</octave>				</pitch>				<duration>10080</duration>				<voice>1</voice>				<type>quarter</type>				<dot/>				<stem default-y="0.00">up</stem>			</note>		</measure>		<!--==========================[3,2]=============================-->		<measure number="2" width="131">			<note>				<pitch>					<step>A</step>					<octave>4</octave>				</pitch>				<duration>6720</duration>				<voice>1</voice>				<type>quarter</type>				<stem default-y="10.00">up</stem>			</note>			<note>				<pitch>					<step>A</step>					<octave>4</octave>				</pitch>				<duration>3360</duration>				<voice>1</voice>				<type>eighth</type>				<stem default-y="10.00">up</stem>			</note>			<note>				<pitch>					<step>A</step>					<octave>4</octave>				</pitch>				<duration>6720</duration>				<voice>1</voice>				<type>quarter</type>				<stem default-y="10.00">up</stem>			</note>			<note>				<pitch>					<step>A</step>					<octave>4</octave>				</pitch>				<duration>3360</duration>				<voice>1</voice>				<type>eighth</type>				<stem default-y="10.00">up</stem>			</note>		</measure>		<!--==========================[3,3]=============================-->		<measure number="3" width="131">			<note>				<pitch>					<step>C</step>					<octave>5</octave>				</pitch>				<duration>6720</duration>				<voice>1</voice>				<type>quarter</type>				<stem default-y="-50.00">down</stem>			</note>			<note>				<pitch>					<step>C</step>					<octave>5</octave>				</pitch>				<duration>3360</duration>				<voice>1</voice>				<type>eighth</type>				<stem default-y="-50.00">down</stem>			</note>			<note>				<pitch>					<step>A</step>					<octave>4</octave>				</pitch>				<duration>6720</duration>				<voice>1</voice>				<type>quarter</type>				<stem default-y="10.00">up</stem>			</note>			<note>				<pitch>					<step>C</step>					<octave>5</octave>				</pitch>				<duration>3360</duration>				<voice>1</voice>				<type>eighth</type>				<stem default-y="-50.00">down</stem>			</note>		</measure>		<!--==========================[3,4]=============================-->		<measure number="4" width="131">			<note>				<pitch>					<step>D</step>					<octave>5</octave>				</pitch>				<duration>6720</duration>				<voice>1</voice>				<type>quarter</type>				<stem default-y="-45.00">down</stem>			</note>			<note>				<pitch>					<step>D</step>					<octave>5</octave>				</pitch>				<duration>3360</duration>				<voice>1</voice>				<type>eighth</type>				<stem default-y="-45.00">down</stem>			</note>			<note>				<pitch>					<step>F</step>					<octave>5</octave>				</pitch>				<duration>6720</duration>				<voice>1</voice>				<type>quarter</type>				<stem default-y="-35.00">down</stem>			</note>			<note>				<pitch>					<step>D</step>					<octave>5</octave>				</pitch>				<duration>3360</duration>				<voice>1</voice>				<type>eighth</type>				<stem default-y="-45.00">down</stem>			</note>		</measure>		<!--==========================[3,5]=============================-->		<measure number="5" width="94">			<note>				<pitch>					<step>C</step>					<octave>5</octave>				</pitch>				<duration>10080</duration>				<voice>1</voice>				<type>quarter</type>				<dot/>				<stem default-y="-50.00">down</stem>			</note>			<note>				<pitch>					<step>C</step>					<octave>5</octave>				</pitch>				<duration>10080</duration>				<voice>1</voice>				<type>quarter</type>				<dot/>				<stem default-y="-50.00">down</stem>			</note>		</measure>		<!--==========================[3,6]=============================-->		<measure number="6" width="131">			<note>				<pitch>					<step>F</step>					<octave>5</octave>				</pitch>				<duration>6720</duration>				<voice>1</voice>				<type>quarter</type>				<stem default-y="-35.00">down</stem>			</note>			<note>				<pitch>					<step>F</step>					<octave>5</octave>				</pitch>				<duration>3360</duration>				<voice>1</voice>				<type>eighth</type>				<stem default-y="-35.00">down</stem>			</note>			<note>				<pitch>					<step>F</step>					<octave>5</octave>				</pitch>				<duration>6720</duration>				<voice>1</voice>				<type>quarter</type>				<stem default-y="-35.00">down</stem>			</note>			<note>				<pitch>					<step>D</step>					<octave>5</octave>				</pitch>				<duration>3360</duration>				<voice>1</voice>				<type>eighth</type>				<stem default-y="-45.00">down</stem>			</note>		</measure>		<!--==========================[3,7]=============================-->		<measure number="7" width="131">			<note>				<pitch>					<step>C</step>					<octave>5</octave>				</pitch>				<duration>6720</duration>				<voice>1</voice>				<type>quarter</type>				<stem default-y="-50.00">down</stem>			</note>			<note>				<pitch>					<step>A</step>					<octave>4</octave>				</pitch>				<duration>3360</duration>				<voice>1</voice>				<type>eighth</type>				<stem default-y="10.00">up</stem>			</note>			<note>				<pitch>					<step>A</step>					<octave>4</octave>				</pitch>				<duration>6720</duration>				<voice>1</voice>				<type>quarter</type>				<stem default-y="10.00">up</stem>			</note>			<note>				<pitch>					<step>F</step>					<octave>4</octave>				</pitch>				<duration>3360</duration>				<voice>1</voice>				<type>eighth</type>				<stem default-y="0.00">up</stem>			</note>		</measure>		<!--==========================[3,8]=============================-->		<measure number="8" width="131">			<note>				<pitch>					<step>A</step>					<octave>4</octave>				</pitch>				<duration>6720</duration>				<voice>1</voice>				<type>quarter</type>				<stem default-y="10.00">up</stem>			</note>			<note>				<pitch>					<step>A</step>					<octave>4</octave>				</pitch>				<duration>3360</duration>				<voice>1</voice>				<type>eighth</type>				<stem default-y="10.00">up</stem>			</note>			<note>				<pitch>					<step>B</step>					<alter>-1</alter>					<octave>4</octave>				</pitch>				<duration>6720</duration>				<voice>1</voice>				<type>quarter</type>				<stem default-y="-55.00">down</stem>			</note>			<note>				<pitch>					<step>A</step>					<octave>4</octave>				</pitch>				<duration>3360</duration>				<voice>1</voice>				<type>eighth</type>				<stem default-y="10.00">up</stem>			</note>		</measure>		<!--==========================[3,9]=============================-->		<measure number="9" width="131">			<print new-system="yes">				<staff-layout number="1">					<staff-distance>64.167</staff-distance>				</staff-layout>			</print>			<note>				<pitch>					<step>G</step>					<octave>4</octave>				</pitch>				<duration>10080</duration>				<voice>1</voice>				<type>quarter</type>				<dot/>				<stem default-y="5.00">up</stem>			</note>			<note>				<pitch>					<step>F</step>					<octave>4</octave>				</pitch>				<duration>10080</duration>				<voice>1</voice>				<type>quarter</type>				<dot/>				<stem default-y="0.00">up</stem>			</note>		</measure>		<!--==========================[3,10]=============================-->		<measure number="10" width="131">			<note>				<pitch>					<step>A</step>					<octave>4</octave>				</pitch>				<duration>6720</duration>				<voice>1</voice>				<type>quarter</type>				<stem default-y="10.00">up</stem>			</note>			<note>				<pitch>					<step>A</step>					<octave>4</octave>				</pitch>				<duration>3360</duration>				<voice>1</voice>				<type>eighth</type>				<stem default-y="10.00">up</stem>			</note>			<note>				<pitch>					<step>A</step>					<octave>4</octave>				</pitch>				<duration>6720</duration>				<voice>1</voice>				<type>quarter</type>				<stem default-y="10.00">up</stem>			</note>			<note>				<pitch>					<step>A</step>					<octave>4</octave>				</pitch>				<duration>3360</duration>				<voice>1</voice>				<type>eighth</type>				<stem default-y="10.00">up</stem>			</note>		</measure>		<!--==========================[3,11]=============================-->		<measure number="11" width="131">			<note>				<pitch>					<step>C</step>					<octave>5</octave>				</pitch>				<duration>6720</duration>				<voice>1</voice>				<type>quarter</type>				<stem default-y="-50.00">down</stem>			</note>			<note>				<pitch>					<step>C</step>					<octave>5</octave>				</pitch>				<duration>3360</duration>				<voice>1</voice>				<type>eighth</type>				<stem default-y="-50.00">down</stem>			</note>			<note>				<pitch>					<step>A</step>					<octave>4</octave>				</pitch>				<duration>6720</duration>				<voice>1</voice>				<type>quarter</type>				<stem default-y="10.00">up</stem>			</note>			<note>				<pitch>					<step>C</step>					<octave>5</octave>				</pitch>				<duration>3360</duration>				<voice>1</voice>				<type>eighth</type>				<stem default-y="-50.00">down</stem>			</note>		</measure>		<!--==========================[3,12]=============================-->		<measure number="12" width="131">			<note>				<pitch>					<step>D</step>					<octave>5</octave>				</pitch>				<duration>6720</duration>				<voice>1</voice>				<type>quarter</type>				<stem default-y="-45.00">down</stem>			</note>			<note>				<pitch>					<step>D</step>					<octave>5</octave>				</pitch>				<duration>3360</duration>				<voice>1</voice>				<type>eighth</type>				<stem default-y="-45.00">down</stem>			</note>			<note>				<pitch>					<step>F</step>					<octave>5</octave>				</pitch>				<duration>6720</duration>				<voice>1</voice>				<type>quarter</type>				<stem default-y="-35.00">down</stem>			</note>			<note>				<pitch>					<step>D</step>					<octave>5</octave>				</pitch>				<duration>3360</duration>				<voice>1</voice>				<type>eighth</type>				<stem default-y="-45.00">down</stem>			</note>		</measure>		<!--==========================[3,13]=============================-->		<measure number="13" width="78">			<note>				<pitch>					<step>C</step>					<octave>5</octave>				</pitch>				<duration>10080</duration>				<voice>1</voice>				<type>quarter</type>				<dot/>				<stem default-y="-50.00">down</stem>			</note>		</measure>		<!--==========================[3,14]=============================-->		<measure number="14" width="78">			<direction placement="below">				<direction-type>					<words font-family="Lucida Grande" font-weight="normal" font-style="normal" relative-x="0.00" default-y="-0.00">$S</words>					<segno relative-x="0.00" default-y="-0.00"/>				</direction-type>				<sound segno="0"/>			</direction>			<note>				<pitch>					<step>C</step>					<octave>5</octave>				</pitch>				<duration>10080</duration>				<voice>1</voice>				<type>quarter</type>				<dot/>				<stem default-y="-50.00">down</stem>			</note>		</measure>		<!--==========================[3,15]=============================-->		<measure number="15" width="131">			<note>				<pitch>					<step>F</step>					<octave>5</octave>				</pitch>				<duration>6720</duration>				<voice>1</voice>				<type>quarter</type>				<stem default-y="-35.00">down</stem>			</note>			<note>				<pitch>					<step>F</step>					<octave>5</octave>				</pitch>				<duration>3360</duration>				<voice>1</voice>				<type>eighth</type>				<stem default-y="-35.00">down</stem>			</note>			<note>				<pitch>					<step>F</step>					<octave>5</octave>				</pitch>				<duration>6720</duration>				<voice>1</voice>				<type>quarter</type>				<stem default-y="-35.00">down</stem>			</note>			<note>				<pitch>					<step>D</step>					<octave>5</octave>				</pitch>				<duration>3360</duration>				<voice>1</voice>				<type>eighth</type>				<stem default-y="-45.00">down</stem>			</note>		</measure>		<!--==========================[3,16]=============================-->		<measure number="16" width="131">			<note>				<pitch>					<step>C</step>					<octave>5</octave>				</pitch>				<duration>6720</duration>				<voice>1</voice>				<type>quarter</type>				<stem default-y="-50.00">down</stem>			</note>			<note>				<pitch>					<step>A</step>					<octave>4</octave>				</pitch>				<duration>3360</duration>				<voice>1</voice>				<type>eighth</type>				<stem default-y="10.00">up</stem>			</note>			<note>				<pitch>					<step>A</step>					<octave>4</octave>				</pitch>				<duration>6720</duration>				<voice>1</voice>				<type>quarter</type>				<stem default-y="10.00">up</stem>			</note>			<note>				<pitch>					<step>F</step>					<octave>4</octave>				</pitch>				<duration>3360</duration>				<voice>1</voice>				<type>eighth</type>				<stem default-y="0.00">up</stem>			</note>		</measure>		<!--==========================[3,17]=============================-->		<measure number="17" width="131">			<note>				<pitch>					<step>A</step>					<octave>4</octave>				</pitch>				<duration>6720</duration>				<voice>1</voice>				<type>quarter</type>				<stem default-y="10.00">up</stem>			</note>			<note>				<pitch>					<step>A</step>					<octave>4</octave>				</pitch>				<duration>3360</duration>				<voice>1</voice>				<type>eighth</type>				<stem default-y="10.00">up</stem>			</note>			<note>				<pitch>					<step>G</step>					<octave>4</octave>				</pitch>				<duration>6720</duration>				<voice>1</voice>				<type>quarter</type>				<stem default-y="5.00">up</stem>			</note>			<note>				<pitch>					<step>G</step>					<octave>4</octave>				</pitch>				<duration>3360</duration>				<voice>1</voice>				<type>eighth</type>				<stem default-y="5.00">up</stem>			</note>		</measure>		<!--==========================[3,18]=============================-->		<measure number="18" width="80">			<print new-page="yes">				<staff-layout number="1">					<staff-distance>64.167</staff-distance>				</staff-layout>			</print>			<note>				<pitch>					<step>F</step>					<octave>4</octave>				</pitch>				<duration>20160</duration>				<voice>1</voice>				<type>half</type>				<dot/>				<stem default-y="0.00">up</stem>			</note>			<direction placement="below">				<direction-type>					<words font-family="Lucida Grande" font-weight="normal" font-style="normal" relative-x="-911.40" default-y="-0.00">Fine</words>				</direction-type>				<offset>-20159.00</offset>				<sound fine="yes"/>			</direction>		</measure>		<!--==========================[3,19]=============================-->		<measure number="19" width="91">			<note>				<rest>					<display-step>F</display-step>					<display-octave>4</display-octave>				</rest>				<duration>10080</duration>				<voice>1</voice>				<type>quarter</type>				<dot/>			</note>			<note>				<pitch>					<step>A</step>					<octave>4</octave>				</pitch>				<duration>10080</duration>				<voice>1</voice>				<type>quarter</type>				<dot/>				<stem default-y="10.00">up</stem>			</note>		</measure>		<!--==========================[3,20]=============================-->		<measure number="20" width="131">			<note>				<pitch>					<step>C</step>					<octave>5</octave>				</pitch>				<duration>6720</duration>				<voice>1</voice>				<type>quarter</type>				<stem default-y="-50.00">down</stem>			</note>			<note>				<pitch>					<step>C</step>					<octave>5</octave>				</pitch>				<duration>3360</duration>				<voice>1</voice>				<type>eighth</type>				<stem default-y="-50.00">down</stem>			</note>			<note>				<pitch>					<step>D</step>					<octave>5</octave>				</pitch>				<duration>6720</duration>				<voice>1</voice>				<type>quarter</type>				<stem default-y="-45.00">down</stem>			</note>			<note>				<pitch>					<step>E</step>					<octave>5</octave>				</pitch>				<duration>3360</duration>				<voice>1</voice>				<type>eighth</type>				<stem default-y="-40.00">down</stem>			</note>		</measure>		<!--==========================[3,21]=============================-->		<measure number="21" width="131">			<note>				<pitch>					<step>F</step>					<octave>5</octave>				</pitch>				<duration>10080</duration>				<tie type="start"/>				<voice>1</voice>				<type>quarter</type>				<dot/>				<stem default-y="-35.00">down</stem>				<notations>					<tied type="start" number="1" placement="above" orientation="over"/>				</notations>			</note>			<note>				<pitch>					<step>F</step>					<octave>5</octave>				</pitch>				<duration>6720</duration>				<tie type="stop"/>				<voice>1</voice>				<type>quarter</type>				<stem default-y="-35.00">down</stem>				<notations>					<tied type="stop" number="1"/>				</notations>			</note>			<note>				<pitch>					<step>C</step>					<octave>5</octave>				</pitch>				<duration>3360</duration>				<voice>1</voice>				<type>eighth</type>				<stem default-y="-50.00">down</stem>			</note>		</measure>		<!--==========================[3,22]=============================-->		<measure number="22" width="131">			<note>				<pitch>					<step>D</step>					<octave>5</octave>				</pitch>				<duration>6720</duration>				<voice>1</voice>				<type>quarter</type>				<stem default-y="-45.00">down</stem>			</note>			<note>				<pitch>					<step>E</step>					<octave>5</octave>				</pitch>				<duration>3360</duration>				<voice>1</voice>				<type>eighth</type>				<stem default-y="-40.00">down</stem>			</note>			<note>				<pitch>					<step>F</step>					<octave>5</octave>				</pitch>				<duration>6720</duration>				<voice>1</voice>				<type>quarter</type>				<stem default-y="-35.00">down</stem>			</note>			<note>				<pitch>					<step>D</step>					<octave>5</octave>				</pitch>				<duration>3360</duration>				<voice>1</voice>				<type>eighth</type>				<stem default-y="-45.00">down</stem>			</note>		</measure>		<!--==========================[3,23]=============================-->		<measure number="23" width="91">			<note>				<pitch>					<step>C</step>					<octave>5</octave>				</pitch>				<duration>10080</duration>				<voice>1</voice>				<type>quarter</type>				<dot/>				<stem default-y="-50.00">down</stem>				<notations>					<fermata type="upright" relative-x="-5.71" relative-y="0.71"/>				</notations>			</note>			<forward>				<duration>10079</duration>			</forward>			<direction placement="below">				<direction-type>					<words font-family="Lucida Grande" font-weight="normal" font-style="normal" relative-x="38.50" default-y="-0.00">Da Segno $S Al Fine</words>				</direction-type>				<offset>-20159.00</offset>			</direction>			<barline location="right">				<bar-style>light-heavy</bar-style>			</barline>		</measure>	</part>	<part id="P4">		<!--==========================[4,1]=============================-->		<measure number="1" width="180">			<print>				<staff-layout number="1">					<staff-distance>64.167</staff-distance>				</staff-layout>			</print>			<attributes>				<divisions>6720</divisions>				<key>					<cancel>-6</cancel>					<fifths>-1</fifths>					<mode>major</mode>				</key>				<time>					<beats>6</beats>					<beat-type>8</beat-type>				</time>				<clef number="1">					<sign>F</sign>					<line>4</line>				</clef>				<staff-details number="1" print-object="yes">					<staff-lines>5</staff-lines>					<staff-size>70.00</staff-size>				</staff-details>			</attributes>			<note>				<rest>					<display-step>A</display-step>					<display-octave>2</display-octave>				</rest>				<duration>10080</duration>				<voice>1</voice>				<type>quarter</type>				<dot/>			</note>			<note>				<pitch>					<step>F</step>					<octave>3</octave>				</pitch>				<duration>10080</duration>				<voice>1</voice>				<type>quarter</type>				<dot/>				<stem default-y="-45.00">down</stem>			</note>		</measure>		<!--==========================[4,2]=============================-->		<measure number="2" width="131">			<note>				<pitch>					<step>F</step>					<octave>3</octave>				</pitch>				<duration>6720</duration>				<voice>1</voice>				<type>quarter</type>				<stem default-y="-45.00">down</stem>			</note>			<note>				<pitch>					<step>F</step>					<octave>3</octave>				</pitch>				<duration>3360</duration>				<voice>1</voice>				<type>eighth</type>				<stem default-y="-45.00">down</stem>			</note>			<note>				<pitch>					<step>F</step>					<octave>3</octave>				</pitch>				<duration>6720</duration>				<voice>1</voice>				<type>quarter</type>				<stem default-y="-45.00">down</stem>			</note>			<note>				<pitch>					<step>F</step>					<octave>3</octave>				</pitch>				<duration>3360</duration>				<voice>1</voice>				<type>eighth</type>				<stem default-y="-45.00">down</stem>			</note>		</measure>		<!--==========================[4,3]=============================-->		<measure number="3" width="131">			<note>				<pitch>					<step>F</step>					<octave>3</octave>				</pitch>				<duration>6720</duration>				<voice>1</voice>				<type>quarter</type>				<stem default-y="-45.00">down</stem>			</note>			<note>				<pitch>					<step>F</step>					<octave>3</octave>				</pitch>				<duration>3360</duration>				<voice>1</voice>				<type>eighth</type>				<stem default-y="-45.00">down</stem>			</note>			<note>				<pitch>					<step>F</step>					<octave>3</octave>				</pitch>				<duration>6720</duration>				<voice>1</voice>				<type>quarter</type>				<stem default-y="-45.00">down</stem>			</note>			<note>				<pitch>					<step>F</step>					<octave>3</octave>				</pitch>				<duration>3360</duration>				<voice>1</voice>				<type>eighth</type>				<stem default-y="-45.00">down</stem>			</note>		</measure>		<!--==========================[4,4]=============================-->		<measure number="4" width="131">			<note>				<pitch>					<step>B</step>					<alter>-1</alter>					<octave>3</octave>				</pitch>				<duration>6720</duration>				<voice>1</voice>				<type>quarter</type>				<stem default-y="-30.00">down</stem>			</note>			<note>				<chord/>				<pitch>					<step>B</step>					<alter>-1</alter>					<octave>2</octave>				</pitch>				<duration>6720</duration>				<voice>1</voice>				<type>quarter</type>				<stem default-y="-65.00">down</stem>			</note>			<note>				<pitch>					<step>B</step>					<alter>-1</alter>					<octave>3</octave>				</pitch>				<duration>3360</duration>				<voice>1</voice>				<type>eighth</type>				<stem default-y="-30.00">down</stem>			</note>			<note>				<chord/>				<pitch>					<step>B</step>					<alter>-1</alter>					<octave>2</octave>				</pitch>				<duration>3360</duration>				<voice>1</voice>				<type>eighth</type>				<stem default-y="-65.00">down</stem>			</note>			<note>				<pitch>					<step>F</step>					<octave>3</octave>				</pitch>				<duration>6720</duration>				<voice>1</voice>				<type>quarter</type>				<stem default-y="-45.00">down</stem>			</note>			<note>				<pitch>					<step>F</step>					<octave>3</octave>				</pitch>				<duration>3360</duration>				<voice>1</voice>				<type>eighth</type>				<stem default-y="-45.00">down</stem>			</note>			<note>				<chord/>				<pitch>					<step>D</step>					<octave>3</octave>				</pitch>				<duration>3360</duration>				<voice>1</voice>				<type>eighth</type>				<stem default-y="-55.00">down</stem>			</note>		</measure>		<!--==========================[4,5]=============================-->		<measure number="5" width="94">			<note>				<pitch>					<step>F</step>					<octave>3</octave>				</pitch>				<duration>10080</duration>				<voice>1</voice>				<type>quarter</type>				<dot/>				<stem default-y="-45.00">down</stem>			</note>			<note>				<chord/>				<pitch>					<step>C</step>					<octave>3</octave>				</pitch>				<duration>10080</duration>				<voice>1</voice>				<type>quarter</type>				<dot/>				<stem default-y="-60.00">down</stem>			</note>			<note>				<pitch>					<step>F</step>					<octave>3</octave>				</pitch>				<duration>10080</duration>				<voice>1</voice>				<type>quarter</type>				<dot/>				<stem default-y="-45.00">down</stem>			</note>		</measure>		<!--==========================[4,6]=============================-->		<measure number="6" width="131">			<note>				<pitch>					<step>F</step>					<octave>3</octave>				</pitch>				<duration>6720</duration>				<voice>1</voice>				<type>quarter</type>				<stem default-y="-45.00">down</stem>			</note>			<note>				<pitch>					<step>F</step>					<octave>3</octave>				</pitch>				<duration>3360</duration>				<voice>1</voice>				<type>eighth</type>				<stem default-y="-45.00">down</stem>			</note>			<note>				<pitch>					<step>F</step>					<octave>3</octave>				</pitch>				<duration>6720</duration>				<voice>1</voice>				<type>quarter</type>				<stem default-y="-45.00">down</stem>			</note>			<note>				<pitch>					<step>D</step>					<octave>3</octave>				</pitch>				<duration>3360</duration>				<voice>1</voice>				<type>eighth</type>				<stem default-y="-55.00">down</stem>			</note>		</measure>		<!--==========================[4,7]=============================-->		<measure number="7" width="131">			<note>				<pitch>					<step>F</step>					<octave>3</octave>				</pitch>				<duration>6720</duration>				<voice>1</voice>				<type>quarter</type>				<stem default-y="-45.00">down</stem>			</note>			<note>				<pitch>					<step>F</step>					<octave>3</octave>				</pitch>				<duration>3360</duration>				<voice>1</voice>				<type>eighth</type>				<stem default-y="-45.00">down</stem>			</note>			<note>				<pitch>					<step>F</step>					<octave>3</octave>				</pitch>				<duration>6720</duration>				<voice>1</voice>				<type>quarter</type>				<stem default-y="-45.00">down</stem>			</note>			<note>				<pitch>					<step>F</step>					<octave>3</octave>				</pitch>				<duration>3360</duration>				<voice>1</voice>				<type>eighth</type>				<stem default-y="-45.00">down</stem>			</note>		</measure>		<!--==========================[4,8]=============================-->		<measure number="8" width="131">			<note>				<pitch>					<step>D</step>					<octave>3</octave>				</pitch>				<duration>6720</duration>				<voice>1</voice>				<type>quarter</type>				<stem default-y="-55.00">down</stem>			</note>			<note>				<pitch>					<step>F</step>					<octave>3</octave>				</pitch>				<duration>3360</duration>				<voice>1</voice>				<type>eighth</type>				<stem default-y="-45.00">down</stem>			</note>			<note>				<pitch>					<step>D</step>					<octave>3</octave>				</pitch>				<duration>6720</duration>				<voice>1</voice>				<type>quarter</type>				<stem default-y="-55.00">down</stem>			</note>			<note>				<pitch>					<step>F</step>					<octave>3</octave>				</pitch>				<duration>3360</duration>				<voice>1</voice>				<type>eighth</type>				<stem default-y="-45.00">down</stem>			</note>		</measure>		<!--==========================[4,9]=============================-->		<measure number="9" width="131">			<print new-system="yes">				<staff-layout number="1">					<staff-distance>64.167</staff-distance>				</staff-layout>			</print>			<note>				<pitch>					<step>C</step>					<octave>3</octave>				</pitch>				<duration>10080</duration>				<voice>1</voice>				<type>quarter</type>				<dot/>				<stem default-y="10.00">up</stem>			</note>			<note>				<pitch>					<step>F</step>					<octave>3</octave>				</pitch>				<duration>10080</duration>				<voice>1</voice>				<type>quarter</type>				<dot/>				<stem default-y="-45.00">down</stem>			</note>		</measure>		<!--==========================[4,10]=============================-->		<measure number="10" width="131">			<note>				<pitch>					<step>F</step>					<octave>3</octave>				</pitch>				<duration>6720</duration>				<voice>1</voice>				<type>quarter</type>				<stem default-y="-45.00">down</stem>			</note>			<note>				<pitch>					<step>F</step>					<octave>3</octave>				</pitch>				<duration>3360</duration>				<voice>1</voice>				<type>eighth</type>				<stem default-y="-45.00">down</stem>			</note>			<note>				<pitch>					<step>F</step>					<octave>3</octave>				</pitch>				<duration>6720</duration>				<voice>1</voice>				<type>quarter</type>				<stem default-y="-45.00">down</stem>			</note>			<note>				<pitch>					<step>F</step>					<octave>3</octave>				</pitch>				<duration>3360</duration>				<voice>1</voice>				<type>eighth</type>				<stem default-y="-45.00">down</stem>			</note>		</measure>		<!--==========================[4,11]=============================-->		<measure number="11" width="131">			<note>				<pitch>					<step>F</step>					<octave>3</octave>				</pitch>				<duration>6720</duration>				<voice>1</voice>				<type>quarter</type>				<stem default-y="-45.00">down</stem>			</note>			<note>				<pitch>					<step>F</step>					<octave>3</octave>				</pitch>				<duration>3360</duration>				<voice>1</voice>				<type>eighth</type>				<stem default-y="-45.00">down</stem>			</note>			<note>				<pitch>					<step>F</step>					<octave>3</octave>				</pitch>				<duration>6720</duration>				<voice>1</voice>				<type>quarter</type>				<stem default-y="-45.00">down</stem>			</note>			<note>				<pitch>					<step>F</step>					<octave>3</octave>				</pitch>				<duration>3360</duration>				<voice>1</voice>				<type>eighth</type>				<stem default-y="-45.00">down</stem>			</note>		</measure>		<!--==========================[4,12]=============================-->		<measure number="12" width="131">			<note>				<pitch>					<step>B</step>					<alter>-1</alter>					<octave>3</octave>				</pitch>				<duration>6720</duration>				<voice>1</voice>				<type>quarter</type>				<stem default-y="-30.00">down</stem>			</note>			<note>				<chord/>				<pitch>					<step>B</step>					<alter>-1</alter>					<octave>2</octave>				</pitch>				<duration>6720</duration>				<voice>1</voice>				<type>quarter</type>				<stem default-y="-65.00">down</stem>			</note>			<note>				<pitch>					<step>B</step>					<alter>-1</alter>					<octave>3</octave>				</pitch>				<duration>3360</duration>				<voice>1</voice>				<type>eighth</type>				<stem default-y="-30.00">down</stem>			</note>			<note>				<chord/>				<pitch>					<step>B</step>					<alter>-1</alter>					<octave>2</octave>				</pitch>				<duration>3360</duration>				<voice>1</voice>				<type>eighth</type>				<stem default-y="-65.00">down</stem>			</note>			<note>				<pitch>					<step>F</step>					<octave>3</octave>				</pitch>				<duration>6720</duration>				<voice>1</voice>				<type>quarter</type>				<stem default-y="-45.00">down</stem>			</note>			<note>				<pitch>					<step>F</step>					<octave>3</octave>				</pitch>				<duration>3360</duration>				<voice>1</voice>				<type>eighth</type>				<stem default-y="-45.00">down</stem>			</note>			<note>				<chord/>				<pitch>					<step>D</step>					<octave>3</octave>				</pitch>				<duration>3360</duration>				<voice>1</voice>				<type>eighth</type>				<stem default-y="-55.00">down</stem>			</note>		</measure>		<!--==========================[4,13]=============================-->		<measure number="13" width="78">			<note>				<pitch>					<step>F</step>					<octave>3</octave>				</pitch>				<duration>10080</duration>				<voice>1</voice>				<type>quarter</type>				<dot/>				<stem default-y="-45.00">down</stem>			</note>			<note>				<chord/>				<pitch>					<step>C</step>					<octave>3</octave>				</pitch>				<duration>10080</duration>				<voice>1</voice>				<type>quarter</type>				<dot/>				<stem default-y="-60.00">down</stem>			</note>		</measure>		<!--==========================[4,14]=============================-->		<measure number="14" width="78">			<direction placement="below">				<direction-type>					<words font-family="Lucida Grande" font-weight="normal" font-style="normal" relative-x="0.00" default-y="-0.00">$S</words>					<segno relative-x="0.00" default-y="-0.00"/>				</direction-type>				<sound segno="0"/>			</direction>			<note>				<pitch>					<step>F</step>					<octave>3</octave>				</pitch>				<duration>10080</duration>				<voice>1</voice>				<type>quarter</type>				<dot/>				<stem default-y="-45.00">down</stem>			</note>		</measure>		<!--==========================[4,15]=============================-->		<measure number="15" width="131">			<note>				<pitch>					<step>F</step>					<octave>3</octave>				</pitch>				<duration>6720</duration>				<voice>1</voice>				<type>quarter</type>				<stem default-y="-45.00">down</stem>			</note>			<note>				<pitch>					<step>F</step>					<octave>3</octave>				</pitch>				<duration>3360</duration>				<voice>1</voice>				<type>eighth</type>				<stem default-y="-45.00">down</stem>			</note>			<note>				<pitch>					<step>F</step>					<octave>3</octave>				</pitch>				<duration>6720</duration>				<voice>1</voice>				<type>quarter</type>				<stem default-y="-45.00">down</stem>			</note>			<note>				<pitch>					<step>F</step>					<octave>3</octave>				</pitch>				<duration>3360</duration>				<voice>1</voice>				<type>eighth</type>				<stem default-y="-45.00">down</stem>			</note>		</measure>		<!--==========================[4,16]=============================-->		<measure number="16" width="131">			<note>				<pitch>					<step>F</step>					<octave>3</octave>				</pitch>				<duration>6720</duration>				<voice>1</voice>				<type>quarter</type>				<stem default-y="-45.00">down</stem>			</note>			<note>				<pitch>					<step>F</step>					<octave>3</octave>				</pitch>				<duration>3360</duration>				<voice>1</voice>				<type>eighth</type>				<stem default-y="-45.00">down</stem>			</note>			<note>				<pitch>					<step>F</step>					<octave>3</octave>				</pitch>				<duration>6720</duration>				<voice>1</voice>				<type>quarter</type>				<stem default-y="-45.00">down</stem>			</note>			<note>				<pitch>					<step>F</step>					<octave>3</octave>				</pitch>				<duration>3360</duration>				<voice>1</voice>				<type>eighth</type>				<stem default-y="-45.00">down</stem>			</note>		</measure>		<!--==========================[4,17]=============================-->		<measure number="17" width="131">			<note>				<pitch>					<step>F</step>					<octave>3</octave>				</pitch>				<duration>6720</duration>				<voice>1</voice>				<type>quarter</type>				<stem default-y="-45.00">down</stem>			</note>			<note>				<pitch>					<step>F</step>					<octave>3</octave>				</pitch>				<duration>3360</duration>				<voice>1</voice>				<type>eighth</type>				<stem default-y="-45.00">down</stem>			</note>			<note>				<pitch>					<step>C</step>					<octave>4</octave>				</pitch>				<duration>6720</duration>				<voice>1</voice>				<type>quarter</type>				<stem default-y="-25.00">down</stem>			</note>			<note>				<pitch>					<step>C</step>					<octave>3</octave>				</pitch>				<duration>3360</duration>				<voice>1</voice>				<type>eighth</type>				<stem default-y="10.00">up</stem>			</note>		</measure>		<!--==========================[4,18]=============================-->		<measure number="18" width="80">			<print new-page="yes">				<staff-layout number="1">					<staff-distance>64.167</staff-distance>				</staff-layout>			</print>			<note>				<pitch>					<step>F</step>					<octave>3</octave>				</pitch>				<duration>20160</duration>				<voice>1</voice>				<type>half</type>				<dot/>				<stem default-y="-45.00">down</stem>			</note>			<direction placement="below">				<direction-type>					<words font-family="Lucida Grande" font-weight="normal" font-style="normal" relative-x="-911.40" default-y="-0.00">Fine</words>				</direction-type>				<offset>-20159.00</offset>				<sound fine="yes"/>			</direction>		</measure>		<!--==========================[4,19]=============================-->		<measure number="19" width="91">			<note>				<rest>					<display-step>A</display-step>					<display-octave>2</display-octave>				</rest>				<duration>10080</duration>				<voice>1</voice>				<type>quarter</type>				<dot/>			</note>			<note>				<pitch>					<step>F</step>					<octave>3</octave>				</pitch>				<duration>10080</duration>				<voice>1</voice>				<type>quarter</type>				<dot/>				<stem default-y="-45.00">down</stem>			</note>		</measure>		<!--==========================[4,20]=============================-->		<measure number="20" width="131">			<note>				<pitch>					<step>F</step>					<octave>3</octave>				</pitch>				<duration>6720</duration>				<voice>1</voice>				<type>quarter</type>				<stem default-y="-45.00">down</stem>			</note>			<note>				<pitch>					<step>F</step>					<octave>3</octave>				</pitch>				<duration>3360</duration>				<voice>1</voice>				<type>eighth</type>				<stem default-y="-45.00">down</stem>			</note>			<note>				<pitch>					<step>B</step>					<alter>-1</alter>					<octave>3</octave>				</pitch>				<duration>6720</duration>				<voice>1</voice>				<type>quarter</type>				<stem default-y="-30.00">down</stem>			</note>			<note>				<pitch>					<step>B</step>					<alter>-1</alter>					<octave>3</octave>				</pitch>				<duration>3360</duration>				<voice>1</voice>				<type>eighth</type>				<stem default-y="-30.00">down</stem>			</note>		</measure>		<!--==========================[4,21]=============================-->		<measure number="21" width="131">			<note>				<pitch>					<step>F</step>					<octave>3</octave>				</pitch>				<duration>6720</duration>				<voice>1</voice>				<type>quarter</type>				<stem default-y="-45.00">down</stem>			</note>			<note>				<pitch>					<step>C</step>					<octave>3</octave>				</pitch>				<duration>3360</duration>				<voice>1</voice>				<type>eighth</type>				<stem default-y="10.00">up</stem>			</note>			<note>				<pitch>					<step>F</step>					<octave>3</octave>				</pitch>				<duration>6720</duration>				<voice>1</voice>				<type>quarter</type>				<stem default-y="-45.00">down</stem>			</note>			<note>				<pitch>					<step>F</step>					<octave>3</octave>				</pitch>				<duration>3360</duration>				<voice>1</voice>				<type>eighth</type>				<stem default-y="-45.00">down</stem>			</note>		</measure>		<!--==========================[4,22]=============================-->		<measure number="22" width="131">			<note>				<pitch>					<step>B</step>					<alter>-1</alter>					<octave>3</octave>				</pitch>				<duration>6720</duration>				<voice>1</voice>				<type>quarter</type>				<stem default-y="-30.00">down</stem>			</note>			<note>				<pitch>					<step>B</step>					<alter>-1</alter>					<octave>3</octave>				</pitch>				<duration>3360</duration>				<voice>1</voice>				<type>eighth</type>				<stem default-y="-30.00">down</stem>			</note>			<note>				<pitch>					<step>F</step>					<octave>3</octave>				</pitch>				<duration>6720</duration>				<voice>1</voice>				<type>quarter</type>				<stem default-y="-45.00">down</stem>			</note>			<note>				<pitch>					<step>D</step>					<octave>3</octave>				</pitch>				<duration>3360</duration>				<voice>1</voice>				<type>eighth</type>				<stem default-y="-55.00">down</stem>			</note>		</measure>		<!--==========================[4,23]=============================-->		<measure number="23" width="91">			<note>				<pitch>					<step>C</step>					<octave>3</octave>				</pitch>				<duration>10080</duration>				<voice>1</voice>				<type>quarter</type>				<dot/>				<stem default-y="-60.00">down</stem>				<notations>					<fermata type="upright" relative-x="-5.71" relative-y="1.90"/>				</notations>			</note>			<forward>				<duration>10079</duration>			</forward>			<direction placement="below">				<direction-type>					<words font-family="Lucida Grande" font-weight="normal" font-style="normal" relative-x="38.50" default-y="-0.00">Da Segno $S Al Fine</words>				</direction-type>				<offset>-20159.00</offset>			</direction>			<barline location="right">				<bar-style>light-heavy</bar-style>			</barline>		</measure>	</part></score-partwise>