<?xml version="1.0" encoding="UTF-8" standalone="no"?><!DOCTYPE score-partwise PUBLIC "-//Recordare//DTD MusicXML 1.1 Partwise//EN" "http://www.musicxml.org/dtds/partwise.dtd"><score-partwise>	<work>		<work-title>REDEMPTION, 480</work-title>	</work>	<identification>		<creator type="composer">Composer :</creator>		<creator type="poet">Remarks :</creator>		<encoding>			<software>Harmony Assistant v9.6.2m (c) Myriad - http://www.myriad-online.com</software>			<?PDFtoMusic Document type 0000- 58482395?>		</encoding>	</identification>	<defaults>		<scaling>			<millimeters>8.466666</millimeters>			<tenths>40</tenths>		</scaling>		<page-layout>			<page-height>1403.333</page-height>			<page-width>991.667</page-width>			<page-margins type="both">				<left-margin>30.000</left-margin>				<right-margin>30.000</right-margin>				<top-margin>30.000</top-margin>				 <bottom-margin>68.333</bottom-margin>			</page-margins>		</page-layout>	</defaults>	<credit>		<credit-words  default-x="430.167" default-y="1303.333" justify="left" valign="top" font-family="Times New Roman" font-size="11" font-weight="bold" font-style="normal">REDEMPTION, 480</credit-words>	</credit>	<credit>		<credit-words  default-x="837.333" default-y="1255.500" justify="left" valign="top" font-family="Geneva" font-size="8" font-weight="normal" font-style="normal">Composer :</credit-words>	</credit>	<credit>		<credit-words  default-x="105.833" default-y="1255.500" justify="left" valign="top" font-family="Geneva" font-size="8" font-weight="normal" font-style="normal">Remarks :</credit-words>	</credit>	<part-list>		<score-part id="P1">			<part-name font-family="Arial" font-size="10" font-weight="normal" font-style="normal">treble</part-name>			<part-abbreviation font-family="Arial" font-size="10" font-weight="normal" font-style="normal"></part-abbreviation>			<score-instrument id="P1-I1">				<instrument-name>Instr 8</instrument-name>			</score-instrument>			<midi-instrument id="P1-I1">				<midi-channel>5</midi-channel>				<midi-bank>1</midi-bank>				<midi-program>1</midi-program>				<?Myriad				<midi-volume>127</midi-volume>				?>				<?Myriad				<midi-panning>0</midi-panning>				?>			</midi-instrument>		</score-part>		<score-part id="P2">			<part-name font-family="Arial" font-size="10" font-weight="normal" font-style="normal">alto</part-name>			<part-abbreviation font-family="Arial" font-size="10" font-weight="normal" font-style="normal"></part-abbreviation>			<score-instrument id="P2-I1">				<instrument-name>Instr 7</instrument-name>			</score-instrument>			<midi-instrument id="P2-I1">				<midi-channel>4</midi-channel>				<midi-bank>1</midi-bank>				<midi-program>1</midi-program>				<?Myriad				<midi-volume>127</midi-volume>				?>				<?Myriad				<midi-panning>0</midi-panning>				?>			</midi-instrument>		</score-part>		<score-part id="P3">			<part-name font-family="Arial" font-size="10" font-weight="normal" font-style="normal">tenor</part-name>			<part-abbreviation font-family="Arial" font-size="10" font-weight="normal" font-style="normal"></part-abbreviation>			<score-instrument id="P3-I1">				<instrument-name>Instr 5</instrument-name>			</score-instrument>			<midi-instrument id="P3-I1">				<midi-channel>3</midi-channel>				<midi-bank>1</midi-bank>				<midi-program>1</midi-program>				<?Myriad				<midi-volume>127</midi-volume>				?>				<?Myriad				<midi-panning>0</midi-panning>				?>			</midi-instrument>		</score-part>		<score-part id="P4">			<part-name font-family="Arial" font-size="10" font-weight="normal" font-style="normal">bass</part-name>			<part-abbreviation font-family="Arial" font-size="10" font-weight="normal" font-style="normal"></part-abbreviation>			<score-instrument id="P4-I1">				<instrument-name>Instr 4</instrument-name>			</score-instrument>			<midi-instrument id="P4-I1">				<midi-channel>2</midi-channel>				<midi-bank>1</midi-bank>				<midi-program>1</midi-program>				<?Myriad				<midi-volume>127</midi-volume>				?>				<?Myriad				<midi-panning>0</midi-panning>				?>			</midi-instrument>		</score-part>	</part-list>	<part id="P1">		<!--==========================[1,1]=============================-->		<measure number="1" width="189">			<print>				<system-layout>					<system-margins>						<left-margin>122.500</left-margin>						<right-margin>46.667</right-margin>					</system-margins>					<top-system-distance>187.833</top-system-distance>				</system-layout>			</print>			<attributes>				<divisions>6720</divisions>				<key>					<cancel>-6</cancel>					<fifths>-1</fifths>					<mode>major</mode>				</key>				<time>					<beats>2</beats>					<beat-type>4</beat-type>				</time>				<clef number="1">					<sign>G</sign>					<line>2</line>				</clef>				<staff-details number="1" print-object="yes">					<staff-lines>5</staff-lines>					<staff-size>70.00</staff-size>				</staff-details>			</attributes>			<note>				<pitch>					<step>C</step>					<octave>5</octave>				</pitch>				<duration>10080</duration>				<voice>1</voice>				<type>quarter</type>				<dot/>				<stem default-y="-50.00">down</stem>			</note>			<note>				<pitch>					<step>D</step>					<octave>5</octave>				</pitch>				<duration>3360</duration>				<voice>1</voice>				<type>eighth</type>				<stem default-y="-45.00">down</stem>			</note>		</measure>		<!--==========================[1,2]=============================-->		<measure number="2" width="101">			<note>				<pitch>					<step>F</step>					<octave>5</octave>				</pitch>				<duration>10080</duration>				<voice>1</voice>				<type>quarter</type>				<dot/>				<stem default-y="-35.00">down</stem>			</note>			<note>				<pitch>					<step>D</step>					<octave>5</octave>				</pitch>				<duration>3360</duration>				<voice>1</voice>				<type>eighth</type>				<stem default-y="-45.00">down</stem>			</note>		</measure>		<!--==========================[1,3]=============================-->		<measure number="3" width="101">			<note>				<pitch>					<step>D</step>					<octave>5</octave>				</pitch>				<duration>10080</duration>				<voice>1</voice>				<type>quarter</type>				<dot/>				<stem default-y="-45.00">down</stem>			</note>			<note>				<pitch>					<step>D</step>					<octave>5</octave>				</pitch>				<duration>3360</duration>				<voice>1</voice>				<type>eighth</type>				<stem default-y="-45.00">down</stem>			</note>		</measure>		<!--==========================[1,4]=============================-->		<measure number="4" width="101">			<note>				<pitch>					<step>F</step>					<octave>5</octave>				</pitch>				<duration>6720</duration>				<voice>1</voice>				<type>quarter</type>				<stem default-y="-35.00">down</stem>			</note>			<note>				<pitch>					<step>F</step>					<octave>5</octave>				</pitch>				<duration>3360</duration>				<voice>1</voice>				<type>eighth</type>				<stem default-y="-35.00">down</stem>				<beam number="1">begin</beam>			</note>			<note>				<pitch>					<step>D</step>					<octave>5</octave>				</pitch>				<duration>3360</duration>				<voice>1</voice>				<type>eighth</type>				<stem default-y="-45.00">down</stem>				<beam number="1">end</beam>			</note>		</measure>		<!--==========================[1,5]=============================-->		<measure number="5" width="101">			<note>				<pitch>					<step>C</step>					<octave>5</octave>				</pitch>				<duration>6720</duration>				<voice>1</voice>				<type>quarter</type>				<stem default-y="-50.00">down</stem>			</note>			<note>				<pitch>					<step>C</step>					<octave>5</octave>				</pitch>				<duration>6720</duration>				<voice>1</voice>				<type>quarter</type>				<stem default-y="-50.00">down</stem>			</note>		</measure>		<!--==========================[1,6]=============================-->		<measure number="6" width="101">			<note>				<pitch>					<step>D</step>					<octave>5</octave>				</pitch>				<duration>6720</duration>				<voice>1</voice>				<type>quarter</type>				<stem default-y="-45.00">down</stem>			</note>			<note>				<pitch>					<step>D</step>					<octave>5</octave>				</pitch>				<duration>3360</duration>				<voice>1</voice>				<type>eighth</type>				<stem default-y="-45.00">down</stem>				<beam number="1">begin</beam>			</note>			<note>				<pitch>					<step>C</step>					<octave>5</octave>				</pitch>				<duration>3360</duration>				<voice>1</voice>				<type>eighth</type>				<stem default-y="-50.00">down</stem>				<beam number="1">end</beam>			</note>		</measure>		<!--==========================[1,7]=============================-->		<measure number="7" width="101">			<note>				<pitch>					<step>A</step>					<octave>4</octave>				</pitch>				<duration>6720</duration>				<voice>1</voice>				<type>quarter</type>				<stem default-y="10.00">up</stem>			</note>			<note>				<pitch>					<step>C</step>					<octave>5</octave>				</pitch>				<duration>3360</duration>				<voice>1</voice>				<type>eighth</type>				<stem default-y="-50.00">down</stem>				<beam number="1">begin</beam>			</note>			<note>				<pitch>					<step>D</step>					<octave>5</octave>				</pitch>				<duration>3360</duration>				<voice>1</voice>				<type>eighth</type>				<stem default-y="-45.00">down</stem>				<beam number="1">end</beam>			</note>		</measure>		<!--==========================[1,8]=============================-->		<measure number="8" width="80">			<note>				<pitch>					<step>F</step>					<octave>5</octave>				</pitch>				<duration>13440</duration>				<voice>1</voice>				<type>half</type>				<stem default-y="-35.00">down</stem>			</note>		</measure>		<!--==========================[1,9]=============================-->		<measure number="9" width="101">			<note>				<pitch>					<step>C</step>					<octave>5</octave>				</pitch>				<duration>10080</duration>				<voice>1</voice>				<type>quarter</type>				<dot/>				<stem default-y="-50.00">down</stem>			</note>			<note>				<pitch>					<step>D</step>					<octave>5</octave>				</pitch>				<duration>3360</duration>				<voice>1</voice>				<type>eighth</type>				<stem default-y="-45.00">down</stem>			</note>		</measure>		<!--==========================[1,10]=============================-->		<measure number="10" width="101">			<note>				<pitch>					<step>F</step>					<octave>5</octave>				</pitch>				<duration>10080</duration>				<voice>1</voice>				<type>quarter</type>				<dot/>				<stem default-y="-35.00">down</stem>			</note>			<note>				<pitch>					<step>D</step>					<octave>5</octave>				</pitch>				<duration>3360</duration>				<voice>1</voice>				<type>eighth</type>				<stem default-y="-45.00">down</stem>			</note>		</measure>		<!--==========================[1,11]=============================-->		<measure number="11" width="101">			<print new-system="yes">				<system-layout>					<system-margins>						<left-margin>75.833</left-margin>						<right-margin>46.667</right-margin>					</system-margins>					<system-distance>78.167</system-distance>				</system-layout>			</print>			<note>				<pitch>					<step>F</step>					<octave>5</octave>				</pitch>				<duration>10080</duration>				<voice>1</voice>				<type>quarter</type>				<dot/>				<stem default-y="-35.00">down</stem>			</note>			<note>				<pitch>					<step>D</step>					<octave>5</octave>				</pitch>				<duration>3360</duration>				<voice>1</voice>				<type>eighth</type>				<stem default-y="-45.00">down</stem>			</note>		</measure>		<!--==========================[1,12]=============================-->		<measure number="12" width="101">			<note>				<pitch>					<step>F</step>					<octave>5</octave>				</pitch>				<duration>6720</duration>				<voice>1</voice>				<type>quarter</type>				<stem default-y="-35.00">down</stem>			</note>			<note>				<pitch>					<step>F</step>					<octave>5</octave>				</pitch>				<duration>3360</duration>				<voice>1</voice>				<type>eighth</type>				<stem default-y="-35.00">down</stem>				<beam number="1">begin</beam>			</note>			<note>				<pitch>					<step>D</step>					<octave>5</octave>				</pitch>				<duration>3360</duration>				<voice>1</voice>				<type>eighth</type>				<stem default-y="-45.00">down</stem>				<beam number="1">end</beam>			</note>		</measure>		<!--==========================[1,13]=============================-->		<measure number="13" width="101">			<note>				<pitch>					<step>C</step>					<octave>5</octave>				</pitch>				<duration>6720</duration>				<voice>1</voice>				<type>quarter</type>				<stem default-y="-50.00">down</stem>			</note>			<note>				<pitch>					<step>C</step>					<octave>5</octave>				</pitch>				<duration>6720</duration>				<voice>1</voice>				<type>quarter</type>				<stem default-y="-50.00">down</stem>			</note>		</measure>		<!--==========================[1,14]=============================-->		<measure number="14" width="101">			<note>				<pitch>					<step>D</step>					<octave>5</octave>				</pitch>				<duration>6720</duration>				<voice>1</voice>				<type>quarter</type>				<stem default-y="-45.00">down</stem>			</note>			<note>				<pitch>					<step>D</step>					<octave>5</octave>				</pitch>				<duration>3360</duration>				<voice>1</voice>				<type>eighth</type>				<stem default-y="-45.00">down</stem>				<beam number="1">begin</beam>			</note>			<note>				<pitch>					<step>C</step>					<octave>5</octave>				</pitch>				<duration>3360</duration>				<voice>1</voice>				<type>eighth</type>				<stem default-y="-50.00">down</stem>				<beam number="1">end</beam>			</note>		</measure>		<!--==========================[1,15]=============================-->		<measure number="15" width="101">			<note>				<pitch>					<step>C</step>					<octave>5</octave>				</pitch>				<duration>6720</duration>				<voice>1</voice>				<type>quarter</type>				<stem default-y="-50.00">down</stem>			</note>			<note>				<pitch>					<step>C</step>					<octave>5</octave>				</pitch>				<duration>6720</duration>				<voice>1</voice>				<type>quarter</type>				<stem default-y="-50.00">down</stem>			</note>		</measure>		<!--==========================[1,16]=============================-->		<measure number="16" width="80">			<note>				<pitch>					<step>C</step>					<octave>5</octave>				</pitch>				<duration>13440</duration>				<tie type="start"/>				<voice>1</voice>				<type>half</type>				<stem default-y="-50.00">down</stem>				<notations>					<tied type="start" number="1" placement="above" orientation="over"/>				</notations>			</note>		</measure>		<!--==========================[1,17]=============================-->		<measure number="17" width="63">			<note>				<pitch>					<step>C</step>					<octave>5</octave>				</pitch>				<duration>6720</duration>				<tie type="stop"/>				<voice>1</voice>				<type>quarter</type>				<stem default-y="-50.00">down</stem>				<notations>					<tied type="stop" number="1"/>				</notations>			</note>		</measure>		<!--==========================[1,18]=============================-->		<measure number="18" width="63">			<barline location="left">				<repeat direction="forward"/>			</barline>			<note>				<rest>					<display-step>F</display-step>					<display-octave>4</display-octave>				</rest>				<duration>6720</duration>				<voice>1</voice>				<type>quarter</type>			</note>		</measure>		<!--==========================[1,19]=============================-->		<measure number="19" width="101">			<note>				<rest>				</rest>				<duration>13440</duration>				<voice>1</voice>				<type>half</type>			</note>		</measure>		<!--==========================[1,20]=============================-->		<measure number="20" width="101">			<note>				<rest>				</rest>				<duration>13440</duration>				<voice>1</voice>				<type>half</type>			</note>		</measure>		<!--==========================[1,21]=============================-->		<measure number="21" width="101">			<note>				<rest>				</rest>				<duration>13440</duration>				<voice>1</voice>				<type>half</type>			</note>		</measure>		<!--==========================[1,22]=============================-->		<measure number="22" width="101">			<print new-system="yes">				<system-layout>					<system-margins>						<left-margin>75.833</left-margin>						<right-margin>46.667</right-margin>					</system-margins>					<system-distance>78.167</system-distance>				</system-layout>			</print>			<note>				<rest>					<display-step>F</display-step>					<display-octave>4</display-octave>				</rest>				<duration>6720</duration>				<voice>1</voice>				<type>quarter</type>			</note>			<note>				<pitch>					<step>F</step>					<octave>5</octave>				</pitch>				<duration>3360</duration>				<voice>1</voice>				<type>eighth</type>				<stem default-y="-35.00">down</stem>				<beam number="1">begin</beam>			</note>			<note>				<pitch>					<step>D</step>					<octave>5</octave>				</pitch>				<duration>3360</duration>				<voice>1</voice>				<type>eighth</type>				<stem default-y="-45.00">down</stem>				<beam number="1">end</beam>			</note>		</measure>		<!--==========================[1,23]=============================-->		<measure number="23" width="101">			<note>				<pitch>					<step>C</step>					<octave>5</octave>				</pitch>				<duration>6720</duration>				<voice>1</voice>				<type>quarter</type>				<stem default-y="-50.00">down</stem>			</note>			<note>				<pitch>					<step>C</step>					<octave>5</octave>				</pitch>				<duration>3360</duration>				<voice>1</voice>				<type>eighth</type>				<stem default-y="-50.00">down</stem>				<beam number="1">begin</beam>			</note>			<note>				<pitch>					<step>D</step>					<octave>5</octave>				</pitch>				<duration>3360</duration>				<voice>1</voice>				<type>eighth</type>				<stem default-y="-45.00">down</stem>				<beam number="1">end</beam>			</note>		</measure>		<!--==========================[1,24]=============================-->		<measure number="24" width="101">			<note>				<pitch>					<step>F</step>					<octave>5</octave>				</pitch>				<duration>6720</duration>				<voice>1</voice>				<type>quarter</type>				<stem default-y="-35.00">down</stem>			</note>			<note>				<pitch>					<step>F</step>					<octave>5</octave>				</pitch>				<duration>6720</duration>				<voice>1</voice>				<type>quarter</type>				<stem default-y="-35.00">down</stem>			</note>		</measure>		<!--==========================[1,25]=============================-->		<measure number="25" width="80">			<note>				<pitch>					<step>E</step>					<octave>5</octave>				</pitch>				<duration>13440</duration>				<voice>1</voice>				<type>half</type>				<stem default-y="-40.00">down</stem>			</note>		</measure>		<!--==========================[1,26]=============================-->		<measure number="26" width="101">			<note>				<pitch>					<step>F</step>					<octave>5</octave>				</pitch>				<duration>10080</duration>				<voice>1</voice>				<type>quarter</type>				<dot/>				<stem default-y="-35.00">down</stem>			</note>			<note>				<pitch>					<step>D</step>					<octave>5</octave>				</pitch>				<duration>3360</duration>				<voice>1</voice>				<type>eighth</type>				<stem default-y="-45.00">down</stem>			</note>		</measure>		<!--==========================[1,27]=============================-->		<measure number="27" width="101">			<note>				<pitch>					<step>C</step>					<octave>5</octave>				</pitch>				<duration>10080</duration>				<voice>1</voice>				<type>quarter</type>				<dot/>				<stem default-y="-50.00">down</stem>			</note>			<note>				<pitch>					<step>G</step>					<octave>5</octave>				</pitch>				<duration>3360</duration>				<voice>1</voice>				<type>eighth</type>				<stem default-y="-30.00">down</stem>			</note>		</measure>		<!--==========================[1,28]=============================-->		<measure number="28" width="101">			<note>				<pitch>					<step>F</step>					<octave>5</octave>				</pitch>				<duration>10080</duration>				<voice>1</voice>				<type>quarter</type>				<dot/>				<stem default-y="-35.00">down</stem>			</note>			<note>				<pitch>					<step>D</step>					<octave>5</octave>				</pitch>				<duration>3360</duration>				<voice>1</voice>				<type>eighth</type>				<stem default-y="-45.00">down</stem>			</note>		</measure>		<!--==========================[1,29]=============================-->		<measure number="29" width="101">			<note>				<pitch>					<step>F</step>					<octave>5</octave>				</pitch>				<duration>6720</duration>				<voice>1</voice>				<type>quarter</type>				<stem default-y="-35.00">down</stem>			</note>			<note>				<pitch>					<step>F</step>					<octave>5</octave>				</pitch>				<duration>3360</duration>				<voice>1</voice>				<type>eighth</type>				<stem default-y="-35.00">down</stem>				<beam number="1">begin</beam>			</note>			<note>				<pitch>					<step>D</step>					<octave>5</octave>				</pitch>				<duration>3360</duration>				<voice>1</voice>				<type>eighth</type>				<stem default-y="-45.00">down</stem>				<beam number="1">end</beam>			</note>		</measure>		<!--==========================[1,30]=============================-->		<measure number="30" width="101">			<note>				<pitch>					<step>C</step>					<octave>5</octave>				</pitch>				<duration>6720</duration>				<voice>1</voice>				<type>quarter</type>				<stem default-y="-50.00">down</stem>			</note>			<note>				<pitch>					<step>C</step>					<octave>5</octave>				</pitch>				<duration>6720</duration>				<voice>1</voice>				<type>quarter</type>				<stem default-y="-50.00">down</stem>			</note>		</measure>		<!--==========================[1,31]=============================-->		<measure number="31" width="101">			<note>				<pitch>					<step>D</step>					<octave>5</octave>				</pitch>				<duration>6720</duration>				<voice>1</voice>				<type>quarter</type>				<stem default-y="-45.00">down</stem>			</note>			<note>				<pitch>					<step>F</step>					<octave>5</octave>				</pitch>				<duration>3360</duration>				<voice>1</voice>				<type>eighth</type>				<stem default-y="-35.00">down</stem>				<beam number="1">begin</beam>			</note>			<note>				<pitch>					<step>D</step>					<octave>5</octave>				</pitch>				<duration>3360</duration>				<voice>1</voice>				<type>eighth</type>				<stem default-y="-45.00">down</stem>				<beam number="1">end</beam>			</note>		</measure>		<!--==========================[1,32]=============================-->		<measure number="32" width="101">			<note>				<pitch>					<step>C</step>					<octave>5</octave>				</pitch>				<duration>6720</duration>				<voice>1</voice>				<type>quarter</type>				<stem default-y="-50.00">down</stem>			</note>			<note>				<pitch>					<step>C</step>					<octave>5</octave>				</pitch>				<duration>6720</duration>				<voice>1</voice>				<type>quarter</type>				<stem default-y="-50.00">down</stem>			</note>		</measure>		<!--==========================[1,33]=============================-->		<measure number="33" width="80">			<print new-page="yes">				<system-layout>					<system-margins>						<left-margin>75.833</left-margin>						<right-margin>46.667</right-margin>					</system-margins>					<top-system-distance>513.333</top-system-distance>				</system-layout>			</print>			<barline location="left">				<ending type="start" number="1"/>			</barline>			<note>				<pitch>					<step>C</step>					<octave>5</octave>				</pitch>				<duration>13440</duration>				<tie type="start"/>				<voice>1</voice>				<type>half</type>				<stem default-y="-50.00">down</stem>				<notations>					<tied type="start" number="1" placement="above" orientation="over"/>				</notations>			</note>			<barline location="right">				<ending type="discontinue" number="1"/>			</barline>		</measure>		<!--==========================[1,34]=============================-->		<measure number="34" width="63">			<note>				<pitch>					<step>C</step>					<octave>5</octave>				</pitch>				<duration>6720</duration>				<tie type="stop"/>				<voice>1</voice>				<type>quarter</type>				<stem default-y="-50.00">down</stem>				<notations>					<tied type="stop" number="1"/>				</notations>			</note>			<barline location="right">				<repeat direction="backward" times="0"/>			</barline>		</measure>		<!--==========================[1,35]=============================-->		<measure number="35" width="80">			<barline location="left">				<ending type="start" number="2"/>			</barline>			<note>				<pitch>					<step>C</step>					<octave>5</octave>				</pitch>				<duration>13440</duration>				<voice>1</voice>				<type>half</type>				<stem default-y="-50.00">down</stem>			</note>			<barline location="right">				<bar-style>light-heavy</bar-style>				<ending type="discontinue" number="2"/>			</barline>		</measure>	</part>	<part id="P2">		<!--==========================[2,1]=============================-->		<measure number="1" width="189">			<print>				<staff-layout number="1">					<staff-distance>56.000</staff-distance>				</staff-layout>			</print>			<attributes>				<divisions>6720</divisions>				<key>					<cancel>-6</cancel>					<fifths>-1</fifths>					<mode>major</mode>				</key>				<time>					<beats>2</beats>					<beat-type>4</beat-type>				</time>				<clef number="1">					<sign>G</sign>					<line>2</line>				</clef>				<staff-details number="1" print-object="yes">					<staff-lines>5</staff-lines>					<staff-size>70.00</staff-size>				</staff-details>			</attributes>			<note>				<pitch>					<step>A</step>					<octave>4</octave>				</pitch>				<duration>10080</duration>				<voice>1</voice>				<type>quarter</type>				<dot/>				<stem default-y="10.00">up</stem>			</note>			<note>				<pitch>					<step>G</step>					<octave>4</octave>				</pitch>				<duration>3360</duration>				<voice>1</voice>				<type>eighth</type>				<stem default-y="5.00">up</stem>			</note>		</measure>		<!--==========================[2,2]=============================-->		<measure number="2" width="101">			<note>				<pitch>					<step>F</step>					<octave>4</octave>				</pitch>				<duration>10080</duration>				<voice>1</voice>				<type>quarter</type>				<dot/>				<stem default-y="0.00">up</stem>			</note>			<note>				<pitch>					<step>F</step>					<octave>4</octave>				</pitch>				<duration>3360</duration>				<voice>1</voice>				<type>eighth</type>				<stem default-y="0.00">up</stem>			</note>		</measure>		<!--==========================[2,3]=============================-->		<measure number="3" width="101">			<note>				<pitch>					<step>G</step>					<octave>4</octave>				</pitch>				<duration>10080</duration>				<voice>1</voice>				<type>quarter</type>				<dot/>				<stem default-y="5.00">up</stem>			</note>			<note>				<pitch>					<step>F</step>					<octave>4</octave>				</pitch>				<duration>3360</duration>				<voice>1</voice>				<type>eighth</type>				<stem default-y="0.00">up</stem>			</note>		</measure>		<!--==========================[2,4]=============================-->		<measure number="4" width="101">			<note>				<pitch>					<step>A</step>					<octave>4</octave>				</pitch>				<duration>6720</duration>				<voice>1</voice>				<type>quarter</type>				<stem default-y="10.00">up</stem>			</note>			<note>				<pitch>					<step>A</step>					<octave>4</octave>				</pitch>				<duration>3360</duration>				<voice>1</voice>				<type>eighth</type>				<stem default-y="10.00">up</stem>				<beam number="1">begin</beam>			</note>			<note>				<pitch>					<step>G</step>					<octave>4</octave>				</pitch>				<duration>3360</duration>				<voice>1</voice>				<type>eighth</type>				<stem default-y="5.00">up</stem>				<beam number="1">end</beam>			</note>		</measure>		<!--==========================[2,5]=============================-->		<measure number="5" width="101">			<note>				<pitch>					<step>A</step>					<octave>4</octave>				</pitch>				<duration>6720</duration>				<voice>1</voice>				<type>quarter</type>				<stem default-y="10.00">up</stem>			</note>			<note>				<pitch>					<step>A</step>					<octave>4</octave>				</pitch>				<duration>6720</duration>				<voice>1</voice>				<type>quarter</type>				<stem default-y="10.00">up</stem>			</note>		</measure>		<!--==========================[2,6]=============================-->		<measure number="6" width="101">			<note>				<pitch>					<step>F</step>					<octave>4</octave>				</pitch>				<duration>6720</duration>				<voice>1</voice>				<type>quarter</type>				<stem default-y="0.00">up</stem>			</note>			<note>				<pitch>					<step>F</step>					<octave>4</octave>				</pitch>				<duration>3360</duration>				<voice>1</voice>				<type>eighth</type>				<stem default-y="0.00">up</stem>				<beam number="1">begin</beam>			</note>			<note>				<pitch>					<step>G</step>					<octave>4</octave>				</pitch>				<duration>3360</duration>				<voice>1</voice>				<type>eighth</type>				<stem default-y="5.00">up</stem>				<beam number="1">end</beam>			</note>		</measure>		<!--==========================[2,7]=============================-->		<measure number="7" width="101">			<note>				<pitch>					<step>A</step>					<octave>4</octave>				</pitch>				<duration>6720</duration>				<voice>1</voice>				<type>quarter</type>				<stem default-y="10.00">up</stem>			</note>			<note>				<pitch>					<step>F</step>					<octave>4</octave>				</pitch>				<duration>3360</duration>				<voice>1</voice>				<type>eighth</type>				<stem default-y="0.00">up</stem>				<beam number="1">begin</beam>			</note>			<note>				<pitch>					<step>G</step>					<octave>4</octave>				</pitch>				<duration>3360</duration>				<voice>1</voice>				<type>eighth</type>				<stem default-y="5.00">up</stem>				<beam number="1">end</beam>			</note>		</measure>		<!--==========================[2,8]=============================-->		<measure number="8" width="80">			<note>				<pitch>					<step>A</step>					<octave>4</octave>				</pitch>				<duration>13440</duration>				<voice>1</voice>				<type>half</type>				<stem default-y="10.00">up</stem>			</note>		</measure>		<!--==========================[2,9]=============================-->		<measure number="9" width="101">			<note>				<pitch>					<step>A</step>					<octave>4</octave>				</pitch>				<duration>10080</duration>				<voice>1</voice>				<type>quarter</type>				<dot/>				<stem default-y="10.00">up</stem>			</note>			<note>				<pitch>					<step>G</step>					<octave>4</octave>				</pitch>				<duration>3360</duration>				<voice>1</voice>				<type>eighth</type>				<stem default-y="5.00">up</stem>			</note>		</measure>		<!--==========================[2,10]=============================-->		<measure number="10" width="101">			<note>				<pitch>					<step>F</step>					<octave>4</octave>				</pitch>				<duration>10080</duration>				<voice>1</voice>				<type>quarter</type>				<dot/>				<stem default-y="0.00">up</stem>			</note>			<note>				<pitch>					<step>F</step>					<octave>4</octave>				</pitch>				<duration>3360</duration>				<voice>1</voice>				<type>eighth</type>				<stem default-y="0.00">up</stem>			</note>		</measure>		<!--==========================[2,11]=============================-->		<measure number="11" width="101">			<print new-system="yes">				<staff-layout number="1">					<staff-distance>56.000</staff-distance>				</staff-layout>			</print>			<note>				<pitch>					<step>A</step>					<octave>4</octave>				</pitch>				<duration>10080</duration>				<voice>1</voice>				<type>quarter</type>				<dot/>				<stem default-y="10.00">up</stem>			</note>			<note>				<pitch>					<step>F</step>					<octave>4</octave>				</pitch>				<duration>3360</duration>				<voice>1</voice>				<type>eighth</type>				<stem default-y="0.00">up</stem>			</note>		</measure>		<!--==========================[2,12]=============================-->		<measure number="12" width="101">			<note>				<pitch>					<step>A</step>					<octave>4</octave>				</pitch>				<duration>6720</duration>				<voice>1</voice>				<type>quarter</type>				<stem default-y="10.00">up</stem>			</note>			<note>				<pitch>					<step>A</step>					<octave>4</octave>				</pitch>				<duration>3360</duration>				<voice>1</voice>				<type>eighth</type>				<stem default-y="10.00">up</stem>				<beam number="1">begin</beam>			</note>			<note>				<pitch>					<step>G</step>					<octave>4</octave>				</pitch>				<duration>3360</duration>				<voice>1</voice>				<type>eighth</type>				<stem default-y="5.00">up</stem>				<beam number="1">end</beam>			</note>		</measure>		<!--==========================[2,13]=============================-->		<measure number="13" width="101">			<note>				<pitch>					<step>A</step>					<octave>4</octave>				</pitch>				<duration>6720</duration>				<voice>1</voice>				<type>quarter</type>				<stem default-y="10.00">up</stem>			</note>			<note>				<pitch>					<step>A</step>					<octave>4</octave>				</pitch>				<duration>6720</duration>				<voice>1</voice>				<type>quarter</type>				<stem default-y="10.00">up</stem>			</note>		</measure>		<!--==========================[2,14]=============================-->		<measure number="14" width="101">			<note>				<pitch>					<step>F</step>					<octave>4</octave>				</pitch>				<duration>6720</duration>				<voice>1</voice>				<type>quarter</type>				<stem default-y="0.00">up</stem>			</note>			<note>				<pitch>					<step>F</step>					<octave>4</octave>				</pitch>				<duration>6720</duration>				<voice>1</voice>				<type>quarter</type>				<stem default-y="0.00">up</stem>			</note>		</measure>		<!--==========================[2,15]=============================-->		<measure number="15" width="101">			<note>				<pitch>					<step>E</step>					<octave>4</octave>				</pitch>				<duration>3360</duration>				<voice>1</voice>				<type>eighth</type>				<stem default-y="-5.00">up</stem>				<beam number="1">begin</beam>			</note>			<note>				<pitch>					<step>F</step>					<octave>4</octave>				</pitch>				<duration>3360</duration>				<voice>1</voice>				<type>eighth</type>				<stem default-y="0.00">up</stem>				<beam number="1">end</beam>			</note>			<note>				<pitch>					<step>G</step>					<octave>4</octave>				</pitch>				<duration>6720</duration>				<voice>1</voice>				<type>quarter</type>				<stem default-y="5.00">up</stem>			</note>		</measure>		<!--==========================[2,16]=============================-->		<measure number="16" width="80">			<note>				<pitch>					<step>A</step>					<octave>4</octave>				</pitch>				<duration>13440</duration>				<tie type="start"/>				<voice>1</voice>				<type>half</type>				<stem default-y="10.00">up</stem>				<notations>					<tied type="start" number="1" placement="below" orientation="under"/>				</notations>			</note>		</measure>		<!--==========================[2,17]=============================-->		<measure number="17" width="63">			<note>				<pitch>					<step>A</step>					<octave>4</octave>				</pitch>				<duration>6720</duration>				<tie type="stop"/>				<voice>1</voice>				<type>quarter</type>				<stem default-y="10.00">up</stem>				<notations>					<tied type="stop" number="1"/>				</notations>			</note>		</measure>		<!--==========================[2,18]=============================-->		<measure number="18" width="63">			<barline location="left">				<repeat direction="forward"/>			</barline>			<note>				<pitch>					<step>A</step>					<octave>4</octave>				</pitch>				<duration>3360</duration>				<voice>1</voice>				<type>eighth</type>				<stem default-y="10.00">up</stem>			</note>			<note>				<pitch>					<step>G</step>					<octave>4</octave>				</pitch>				<duration>3360</duration>				<voice>1</voice>				<type>eighth</type>				<stem default-y="5.00">up</stem>			</note>		</measure>		<!--==========================[2,19]=============================-->		<measure number="19" width="101">			<note>				<pitch>					<step>F</step>					<octave>4</octave>				</pitch>				<duration>10080</duration>				<voice>1</voice>				<type>quarter</type>				<dot/>				<stem default-y="0.00">up</stem>			</note>			<note>				<pitch>					<step>G</step>					<octave>4</octave>				</pitch>				<duration>3360</duration>				<voice>1</voice>				<type>eighth</type>				<stem default-y="5.00">up</stem>			</note>		</measure>		<!--==========================[2,20]=============================-->		<measure number="20" width="101">			<note>				<pitch>					<step>A</step>					<octave>4</octave>				</pitch>				<duration>6720</duration>				<voice>1</voice>				<type>quarter</type>				<stem default-y="10.00">up</stem>			</note>			<note>				<pitch>					<step>F</step>					<octave>4</octave>				</pitch>				<duration>6720</duration>				<voice>1</voice>				<type>quarter</type>				<stem default-y="0.00">up</stem>			</note>		</measure>		<!--==========================[2,21]=============================-->		<measure number="21" width="101">			<note>				<pitch>					<step>A</step>					<octave>4</octave>				</pitch>				<duration>6720</duration>				<voice>1</voice>				<type>quarter</type>				<stem default-y="10.00">up</stem>			</note>			<note>				<pitch>					<step>F</step>					<octave>4</octave>				</pitch>				<duration>3360</duration>				<voice>1</voice>				<type>eighth</type>				<stem default-y="0.00">up</stem>				<beam number="1">begin</beam>			</note>			<note>				<pitch>					<step>G</step>					<octave>4</octave>				</pitch>				<duration>3360</duration>				<voice>1</voice>				<type>eighth</type>				<stem default-y="5.00">up</stem>				<beam number="1">end</beam>			</note>		</measure>		<!--==========================[2,22]=============================-->		<measure number="22" width="101">			<print new-system="yes">				<staff-layout number="1">					<staff-distance>56.000</staff-distance>				</staff-layout>			</print>			<note>				<pitch>					<step>A</step>					<octave>4</octave>				</pitch>				<duration>6720</duration>				<voice>1</voice>				<type>quarter</type>				<stem default-y="10.00">up</stem>			</note>			<note>				<pitch>					<step>F</step>					<octave>4</octave>				</pitch>				<duration>3360</duration>				<voice>1</voice>				<type>eighth</type>				<stem default-y="0.00">up</stem>				<beam number="1">begin</beam>			</note>			<note>				<pitch>					<step>G</step>					<octave>4</octave>				</pitch>				<duration>3360</duration>				<voice>1</voice>				<type>eighth</type>				<stem default-y="5.00">up</stem>				<beam number="1">end</beam>			</note>		</measure>		<!--==========================[2,23]=============================-->		<measure number="23" width="101">			<note>				<pitch>					<step>F</step>					<octave>4</octave>				</pitch>				<duration>6720</duration>				<voice>1</voice>				<type>quarter</type>				<stem default-y="0.00">up</stem>			</note>			<note>				<pitch>					<step>F</step>					<octave>4</octave>				</pitch>				<duration>3360</duration>				<voice>1</voice>				<type>eighth</type>				<stem default-y="0.00">up</stem>				<beam number="1">begin</beam>			</note>			<note>				<pitch>					<step>G</step>					<octave>4</octave>				</pitch>				<duration>3360</duration>				<voice>1</voice>				<type>eighth</type>				<stem default-y="5.00">up</stem>				<beam number="1">end</beam>			</note>		</measure>		<!--==========================[2,24]=============================-->		<measure number="24" width="101">			<note>				<pitch>					<step>A</step>					<octave>4</octave>				</pitch>				<duration>6720</duration>				<voice>1</voice>				<type>quarter</type>				<stem default-y="10.00">up</stem>			</note>			<note>				<pitch>					<step>F</step>					<octave>4</octave>				</pitch>				<duration>6720</duration>				<voice>1</voice>				<type>quarter</type>				<stem default-y="0.00">up</stem>			</note>		</measure>		<!--==========================[2,25]=============================-->		<measure number="25" width="80">			<note>				<pitch>					<step>G</step>					<octave>4</octave>				</pitch>				<duration>13440</duration>				<voice>1</voice>				<type>half</type>				<stem default-y="5.00">up</stem>			</note>		</measure>		<!--==========================[2,26]=============================-->		<measure number="26" width="101">			<note>				<pitch>					<step>A</step>					<octave>4</octave>				</pitch>				<duration>10080</duration>				<voice>1</voice>				<type>quarter</type>				<dot/>				<stem default-y="10.00">up</stem>			</note>			<note>				<pitch>					<step>G</step>					<octave>4</octave>				</pitch>				<duration>3360</duration>				<voice>1</voice>				<type>eighth</type>				<stem default-y="5.00">up</stem>			</note>		</measure>		<!--==========================[2,27]=============================-->		<measure number="27" width="101">			<note>				<pitch>					<step>F</step>					<octave>4</octave>				</pitch>				<duration>10080</duration>				<voice>1</voice>				<type>quarter</type>				<dot/>				<stem default-y="0.00">up</stem>			</note>			<note>				<pitch>					<step>D</step>					<octave>4</octave>				</pitch>				<duration>3360</duration>				<voice>1</voice>				<type>eighth</type>				<stem default-y="-10.00">up</stem>			</note>		</measure>		<!--==========================[2,28]=============================-->		<measure number="28" width="101">			<note>				<pitch>					<step>D</step>					<octave>4</octave>				</pitch>				<duration>10080</duration>				<voice>1</voice>				<type>quarter</type>				<dot/>				<stem default-y="-10.00">up</stem>			</note>			<note>				<pitch>					<step>F</step>					<octave>4</octave>				</pitch>				<duration>3360</duration>				<voice>1</voice>				<type>eighth</type>				<stem default-y="0.00">up</stem>			</note>		</measure>		<!--==========================[2,29]=============================-->		<measure number="29" width="101">			<note>				<pitch>					<step>A</step>					<octave>4</octave>				</pitch>				<duration>6720</duration>				<voice>1</voice>				<type>quarter</type>				<stem default-y="10.00">up</stem>			</note>			<note>				<pitch>					<step>A</step>					<octave>4</octave>				</pitch>				<duration>3360</duration>				<voice>1</voice>				<type>eighth</type>				<stem default-y="10.00">up</stem>				<beam number="1">begin</beam>			</note>			<note>				<pitch>					<step>G</step>					<octave>4</octave>				</pitch>				<duration>3360</duration>				<voice>1</voice>				<type>eighth</type>				<stem default-y="5.00">up</stem>				<beam number="1">end</beam>			</note>		</measure>		<!--==========================[2,30]=============================-->		<measure number="30" width="101">			<note>				<pitch>					<step>A</step>					<octave>4</octave>				</pitch>				<duration>6720</duration>				<voice>1</voice>				<type>quarter</type>				<stem default-y="10.00">up</stem>			</note>			<note>				<pitch>					<step>A</step>					<octave>4</octave>				</pitch>				<duration>6720</duration>				<voice>1</voice>				<type>quarter</type>				<stem default-y="10.00">up</stem>			</note>		</measure>		<!--==========================[2,31]=============================-->		<measure number="31" width="101">			<note>				<pitch>					<step>F</step>					<octave>4</octave>				</pitch>				<duration>6720</duration>				<voice>1</voice>				<type>quarter</type>				<stem default-y="0.00">up</stem>			</note>			<note>				<pitch>					<step>F</step>					<octave>4</octave>				</pitch>				<duration>3360</duration>				<voice>1</voice>				<type>eighth</type>				<stem default-y="0.00">up</stem>				<beam number="1">begin</beam>			</note>			<note>				<pitch>					<step>D</step>					<octave>4</octave>				</pitch>				<duration>3360</duration>				<voice>1</voice>				<type>eighth</type>				<stem default-y="-10.00">up</stem>				<beam number="1">end</beam>			</note>		</measure>		<!--==========================[2,32]=============================-->		<measure number="32" width="101">			<note>				<pitch>					<step>C</step>					<octave>4</octave>				</pitch>				<duration>6720</duration>				<voice>1</voice>				<type>quarter</type>				<stem default-y="-15.00">up</stem>			</note>			<note>				<pitch>					<step>G</step>					<octave>4</octave>				</pitch>				<duration>6720</duration>				<voice>1</voice>				<type>quarter</type>				<stem default-y="5.00">up</stem>			</note>		</measure>		<!--==========================[2,33]=============================-->		<measure number="33" width="80">			<print new-page="yes">				<staff-layout number="1">					<staff-distance>56.000</staff-distance>				</staff-layout>			</print>			<barline location="left">				<ending type="start" number="1"/>			</barline>			<note>				<pitch>					<step>A</step>					<octave>4</octave>				</pitch>				<duration>13440</duration>				<tie type="start"/>				<voice>1</voice>				<type>half</type>				<stem default-y="10.00">up</stem>				<notations>					<tied type="start" number="1" placement="below" orientation="under"/>				</notations>			</note>			<barline location="right">				<ending type="discontinue" number="1"/>			</barline>		</measure>		<!--==========================[2,34]=============================-->		<measure number="34" width="63">			<note>				<pitch>					<step>A</step>					<octave>4</octave>				</pitch>				<duration>6720</duration>				<tie type="stop"/>				<voice>1</voice>				<type>quarter</type>				<stem default-y="10.00">up</stem>				<notations>					<tied type="stop" number="1"/>				</notations>			</note>			<barline location="right">				<repeat direction="backward" times="0"/>			</barline>		</measure>		<!--==========================[2,35]=============================-->		<measure number="35" width="80">			<barline location="left">				<ending type="start" number="2"/>			</barline>			<note>				<pitch>					<step>A</step>					<octave>4</octave>				</pitch>				<duration>13440</duration>				<voice>1</voice>				<type>half</type>				<stem default-y="10.00">up</stem>			</note>			<barline location="right">				<bar-style>light-heavy</bar-style>				<ending type="discontinue" number="2"/>			</barline>		</measure>	</part>	<part id="P3">		<!--==========================[3,1]=============================-->		<measure number="1" width="189">			<print>				<staff-layout number="1">					<staff-distance>56.000</staff-distance>				</staff-layout>			</print>			<attributes>				<divisions>6720</divisions>				<key>					<cancel>-6</cancel>					<fifths>-1</fifths>					<mode>major</mode>				</key>				<time>					<beats>2</beats>					<beat-type>4</beat-type>				</time>				<clef number="1">					<sign>G</sign>					<line>2</line>				</clef>				<staff-details number="1" print-object="yes">					<staff-lines>5</staff-lines>					<staff-size>70.00</staff-size>				</staff-details>			</attributes>			<note>				<pitch>					<step>F</step>					<octave>4</octave>				</pitch>				<duration>10080</duration>				<voice>1</voice>				<type>quarter</type>				<dot/>				<stem default-y="0.00">up</stem>			</note>			<note>				<pitch>					<step>A</step>					<octave>4</octave>				</pitch>				<duration>3360</duration>				<voice>1</voice>				<type>eighth</type>				<stem default-y="10.00">up</stem>			</note>		</measure>		<!--==========================[3,2]=============================-->		<measure number="2" width="101">			<note>				<pitch>					<step>C</step>					<octave>5</octave>				</pitch>				<duration>10080</duration>				<voice>1</voice>				<type>quarter</type>				<dot/>				<stem default-y="-50.00">down</stem>			</note>			<note>				<pitch>					<step>A</step>					<octave>4</octave>				</pitch>				<duration>3360</duration>				<voice>1</voice>				<type>eighth</type>				<stem default-y="10.00">up</stem>			</note>		</measure>		<!--==========================[3,3]=============================-->		<measure number="3" width="101">			<note>				<pitch>					<step>B</step>					<alter>-1</alter>					<octave>4</octave>				</pitch>				<duration>10080</duration>				<voice>1</voice>				<type>quarter</type>				<dot/>				<stem default-y="-55.00">down</stem>			</note>			<note>				<pitch>					<step>D</step>					<octave>5</octave>				</pitch>				<duration>3360</duration>				<voice>1</voice>				<type>eighth</type>				<stem default-y="-45.00">down</stem>			</note>		</measure>		<!--==========================[3,4]=============================-->		<measure number="4" width="101">			<note>				<pitch>					<step>C</step>					<octave>5</octave>				</pitch>				<duration>6720</duration>				<voice>1</voice>				<type>quarter</type>				<stem default-y="-50.00">down</stem>			</note>			<note>				<pitch>					<step>C</step>					<octave>5</octave>				</pitch>				<duration>3360</duration>				<voice>1</voice>				<type>eighth</type>				<stem default-y="-50.00">down</stem>				<beam number="1">begin</beam>			</note>			<note>				<pitch>					<step>A</step>					<octave>4</octave>				</pitch>				<duration>3360</duration>				<voice>1</voice>				<type>eighth</type>				<stem default-y="-60.00">down</stem>				<beam number="1">end</beam>			</note>		</measure>		<!--==========================[3,5]=============================-->		<measure number="5" width="101">			<note>				<pitch>					<step>F</step>					<octave>4</octave>				</pitch>				<duration>6720</duration>				<voice>1</voice>				<type>quarter</type>				<stem default-y="0.00">up</stem>			</note>			<note>				<pitch>					<step>F</step>					<octave>4</octave>				</pitch>				<duration>6720</duration>				<voice>1</voice>				<type>quarter</type>				<stem default-y="0.00">up</stem>			</note>		</measure>		<!--==========================[3,6]=============================-->		<measure number="6" width="101">			<note>				<pitch>					<step>A</step>					<octave>4</octave>				</pitch>				<duration>6720</duration>				<voice>1</voice>				<type>quarter</type>				<stem default-y="10.00">up</stem>			</note>			<note>				<pitch>					<step>A</step>					<octave>4</octave>				</pitch>				<duration>3360</duration>				<voice>1</voice>				<type>eighth</type>				<stem default-y="10.00">up</stem>				<beam number="1">begin</beam>			</note>			<note>				<pitch>					<step>G</step>					<octave>4</octave>				</pitch>				<duration>3360</duration>				<voice>1</voice>				<type>eighth</type>				<stem default-y="5.00">up</stem>				<beam number="1">end</beam>			</note>		</measure>		<!--==========================[3,7]=============================-->		<measure number="7" width="101">			<note>				<pitch>					<step>F</step>					<octave>4</octave>				</pitch>				<duration>6720</duration>				<voice>1</voice>				<type>quarter</type>				<stem default-y="0.00">up</stem>			</note>			<note>				<pitch>					<step>F</step>					<octave>4</octave>				</pitch>				<duration>3360</duration>				<voice>1</voice>				<type>eighth</type>				<stem default-y="0.00">up</stem>				<beam number="1">begin</beam>			</note>			<note>				<pitch>					<step>A</step>					<octave>4</octave>				</pitch>				<duration>3360</duration>				<voice>1</voice>				<type>eighth</type>				<stem default-y="10.00">up</stem>				<beam number="1">end</beam>			</note>		</measure>		<!--==========================[3,8]=============================-->		<measure number="8" width="80">			<note>				<pitch>					<step>C</step>					<octave>5</octave>				</pitch>				<duration>13440</duration>				<voice>1</voice>				<type>half</type>				<stem default-y="-50.00">down</stem>			</note>		</measure>		<!--==========================[3,9]=============================-->		<measure number="9" width="101">			<note>				<pitch>					<step>F</step>					<octave>4</octave>				</pitch>				<duration>10080</duration>				<voice>1</voice>				<type>quarter</type>				<dot/>				<stem default-y="0.00">up</stem>			</note>			<note>				<pitch>					<step>A</step>					<octave>4</octave>				</pitch>				<duration>3360</duration>				<voice>1</voice>				<type>eighth</type>				<stem default-y="10.00">up</stem>			</note>		</measure>		<!--==========================[3,10]=============================-->		<measure number="10" width="101">			<note>				<pitch>					<step>C</step>					<octave>5</octave>				</pitch>				<duration>10080</duration>				<voice>1</voice>				<type>quarter</type>				<dot/>				<stem default-y="-50.00">down</stem>			</note>			<note>				<pitch>					<step>A</step>					<octave>4</octave>				</pitch>				<duration>3360</duration>				<voice>1</voice>				<type>eighth</type>				<stem default-y="10.00">up</stem>			</note>		</measure>		<!--==========================[3,11]=============================-->		<measure number="11" width="101">			<print new-system="yes">				<staff-layout number="1">					<staff-distance>56.000</staff-distance>				</staff-layout>			</print>			<note>				<pitch>					<step>C</step>					<octave>5</octave>				</pitch>				<duration>10080</duration>				<voice>1</voice>				<type>quarter</type>				<dot/>				<stem default-y="-50.00">down</stem>			</note>			<note>				<pitch>					<step>D</step>					<octave>5</octave>				</pitch>				<duration>3360</duration>				<voice>1</voice>				<type>eighth</type>				<stem default-y="-45.00">down</stem>			</note>		</measure>		<!--==========================[3,12]=============================-->		<measure number="12" width="101">			<note>				<pitch>					<step>C</step>					<octave>5</octave>				</pitch>				<duration>6720</duration>				<voice>1</voice>				<type>quarter</type>				<stem default-y="-50.00">down</stem>			</note>			<note>				<pitch>					<step>C</step>					<octave>5</octave>				</pitch>				<duration>3360</duration>				<voice>1</voice>				<type>eighth</type>				<stem default-y="-50.00">down</stem>				<beam number="1">begin</beam>			</note>			<note>				<pitch>					<step>A</step>					<octave>4</octave>				</pitch>				<duration>3360</duration>				<voice>1</voice>				<type>eighth</type>				<stem default-y="-60.00">down</stem>				<beam number="1">end</beam>			</note>		</measure>		<!--==========================[3,13]=============================-->		<measure number="13" width="101">			<note>				<pitch>					<step>F</step>					<octave>4</octave>				</pitch>				<duration>6720</duration>				<voice>1</voice>				<type>quarter</type>				<stem default-y="0.00">up</stem>			</note>			<note>				<pitch>					<step>F</step>					<octave>4</octave>				</pitch>				<duration>6720</duration>				<voice>1</voice>				<type>quarter</type>				<stem default-y="0.00">up</stem>			</note>		</measure>		<!--==========================[3,14]=============================-->		<measure number="14" width="101">			<note>				<pitch>					<step>A</step>					<octave>4</octave>				</pitch>				<duration>6720</duration>				<voice>1</voice>				<type>quarter</type>				<stem default-y="10.00">up</stem>			</note>			<note>				<pitch>					<step>A</step>					<octave>4</octave>				</pitch>				<duration>3360</duration>				<voice>1</voice>				<type>eighth</type>				<stem default-y="10.00">up</stem>				<beam number="1">begin</beam>			</note>			<note>				<pitch>					<step>F</step>					<octave>4</octave>				</pitch>				<duration>3360</duration>				<voice>1</voice>				<type>eighth</type>				<stem default-y="0.00">up</stem>				<beam number="1">end</beam>			</note>		</measure>		<!--==========================[3,15]=============================-->		<measure number="15" width="101">			<note>				<pitch>					<step>G</step>					<octave>4</octave>				</pitch>				<duration>6720</duration>				<voice>1</voice>				<type>quarter</type>				<stem default-y="5.00">up</stem>			</note>			<note>				<pitch>					<step>G</step>					<octave>4</octave>				</pitch>				<duration>6720</duration>				<voice>1</voice>				<type>quarter</type>				<stem default-y="5.00">up</stem>			</note>		</measure>		<!--==========================[3,16]=============================-->		<measure number="16" width="80">			<note>				<pitch>					<step>F</step>					<octave>4</octave>				</pitch>				<duration>13440</duration>				<tie type="start"/>				<voice>1</voice>				<type>half</type>				<stem default-y="0.00">up</stem>				<notations>					<tied type="start" number="1" placement="below" orientation="under"/>				</notations>			</note>		</measure>		<!--==========================[3,17]=============================-->		<measure number="17" width="63">			<note>				<pitch>					<step>F</step>					<octave>4</octave>				</pitch>				<duration>6720</duration>				<tie type="stop"/>				<voice>1</voice>				<type>quarter</type>				<stem default-y="0.00">up</stem>				<notations>					<tied type="stop" number="1"/>				</notations>			</note>		</measure>		<!--==========================[3,18]=============================-->		<measure number="18" width="63">			<barline location="left">				<repeat direction="forward"/>			</barline>			<note>				<rest>					<display-step>F</display-step>					<display-octave>4</display-octave>				</rest>				<duration>6720</duration>				<voice>1</voice>				<type>quarter</type>			</note>		</measure>		<!--==========================[3,19]=============================-->		<measure number="19" width="101">			<note>				<rest>				</rest>				<duration>13440</duration>				<voice>1</voice>				<type>half</type>			</note>		</measure>		<!--==========================[3,20]=============================-->		<measure number="20" width="101">			<note>				<rest>				</rest>				<duration>13440</duration>				<voice>1</voice>				<type>half</type>			</note>		</measure>		<!--==========================[3,21]=============================-->		<measure number="21" width="101">			<note>				<rest>				</rest>				<duration>13440</duration>				<voice>1</voice>				<type>half</type>			</note>		</measure>		<!--==========================[3,22]=============================-->		<measure number="22" width="101">			<print new-system="yes">				<staff-layout number="1">					<staff-distance>56.000</staff-distance>				</staff-layout>			</print>			<note>				<rest>					<display-step>F</display-step>					<display-octave>4</display-octave>				</rest>				<duration>6720</duration>				<voice>1</voice>				<type>quarter</type>			</note>			<note>				<pitch>					<step>C</step>					<octave>5</octave>				</pitch>				<duration>3360</duration>				<voice>1</voice>				<type>eighth</type>				<stem default-y="-50.00">down</stem>				<beam number="1">begin</beam>			</note>			<note>				<pitch>					<step>D</step>					<octave>5</octave>				</pitch>				<duration>3360</duration>				<voice>1</voice>				<type>eighth</type>				<stem default-y="-45.00">down</stem>				<beam number="1">end</beam>			</note>		</measure>		<!--==========================[3,23]=============================-->		<measure number="23" width="101">			<note>				<pitch>					<step>F</step>					<octave>5</octave>				</pitch>				<duration>6720</duration>				<voice>1</voice>				<type>quarter</type>				<stem default-y="-35.00">down</stem>			</note>			<note>				<pitch>					<step>F</step>					<octave>5</octave>				</pitch>				<duration>3360</duration>				<voice>1</voice>				<type>eighth</type>				<stem default-y="-35.00">down</stem>				<beam number="1">begin</beam>			</note>			<note>				<pitch>					<step>D</step>					<octave>5</octave>				</pitch>				<duration>3360</duration>				<voice>1</voice>				<type>eighth</type>				<stem default-y="-45.00">down</stem>				<beam number="1">end</beam>			</note>		</measure>		<!--==========================[3,24]=============================-->		<measure number="24" width="101">			<note>				<pitch>					<step>C</step>					<octave>5</octave>				</pitch>				<duration>6720</duration>				<voice>1</voice>				<type>quarter</type>				<stem default-y="-50.00">down</stem>			</note>			<note>				<pitch>					<step>D</step>					<octave>5</octave>				</pitch>				<duration>6720</duration>				<voice>1</voice>				<type>quarter</type>				<stem default-y="-45.00">down</stem>			</note>		</measure>		<!--==========================[3,25]=============================-->		<measure number="25" width="80">			<note>				<pitch>					<step>C</step>					<octave>5</octave>				</pitch>				<duration>13440</duration>				<voice>1</voice>				<type>half</type>				<stem default-y="-50.00">down</stem>			</note>		</measure>		<!--==========================[3,26]=============================-->		<measure number="26" width="101">			<note>				<pitch>					<step>C</step>					<octave>5</octave>				</pitch>				<duration>10080</duration>				<voice>1</voice>				<type>quarter</type>				<dot/>				<stem default-y="-50.00">down</stem>			</note>			<note>				<pitch>					<step>D</step>					<octave>5</octave>				</pitch>				<duration>3360</duration>				<voice>1</voice>				<type>eighth</type>				<stem default-y="-45.00">down</stem>			</note>		</measure>		<!--==========================[3,27]=============================-->		<measure number="27" width="101">			<note>				<pitch>					<step>F</step>					<octave>5</octave>				</pitch>				<duration>10080</duration>				<voice>1</voice>				<type>quarter</type>				<dot/>				<stem default-y="-35.00">down</stem>			</note>			<note>				<pitch>					<step>D</step>					<octave>5</octave>				</pitch>				<duration>3360</duration>				<voice>1</voice>				<type>eighth</type>				<stem default-y="-45.00">down</stem>			</note>		</measure>		<!--==========================[3,28]=============================-->		<measure number="28" width="101">			<note>				<pitch>					<step>B</step>					<alter>-1</alter>					<octave>4</octave>				</pitch>				<duration>10080</duration>				<voice>1</voice>				<type>quarter</type>				<dot/>				<stem default-y="-55.00">down</stem>			</note>			<note>				<pitch>					<step>D</step>					<octave>5</octave>				</pitch>				<duration>3360</duration>				<voice>1</voice>				<type>eighth</type>				<stem default-y="-45.00">down</stem>			</note>		</measure>		<!--==========================[3,29]=============================-->		<measure number="29" width="101">			<note>				<pitch>					<step>C</step>					<octave>5</octave>				</pitch>				<duration>6720</duration>				<voice>1</voice>				<type>quarter</type>				<stem default-y="-50.00">down</stem>			</note>			<note>				<pitch>					<step>C</step>					<octave>5</octave>				</pitch>				<duration>3360</duration>				<voice>1</voice>				<type>eighth</type>				<stem default-y="-50.00">down</stem>				<beam number="1">begin</beam>			</note>			<note>				<pitch>					<step>A</step>					<octave>4</octave>				</pitch>				<duration>3360</duration>				<voice>1</voice>				<type>eighth</type>				<stem default-y="-60.00">down</stem>				<beam number="1">end</beam>			</note>		</measure>		<!--==========================[3,30]=============================-->		<measure number="30" width="101">			<note>				<pitch>					<step>F</step>					<octave>4</octave>				</pitch>				<duration>6720</duration>				<voice>1</voice>				<type>quarter</type>				<stem default-y="0.00">up</stem>			</note>			<note>				<pitch>					<step>F</step>					<octave>4</octave>				</pitch>				<duration>6720</duration>				<voice>1</voice>				<type>quarter</type>				<stem default-y="0.00">up</stem>			</note>		</measure>		<!--==========================[3,31]=============================-->		<measure number="31" width="101">			<note>				<pitch>					<step>A</step>					<octave>4</octave>				</pitch>				<duration>6720</duration>				<voice>1</voice>				<type>quarter</type>				<stem default-y="10.00">up</stem>			</note>			<note>				<pitch>					<step>A</step>					<octave>4</octave>				</pitch>				<duration>3360</duration>				<voice>1</voice>				<type>eighth</type>				<stem default-y="10.00">up</stem>				<beam number="1">begin</beam>			</note>			<note>				<pitch>					<step>F</step>					<octave>4</octave>				</pitch>				<duration>3360</duration>				<voice>1</voice>				<type>eighth</type>				<stem default-y="0.00">up</stem>				<beam number="1">end</beam>			</note>		</measure>		<!--==========================[3,32]=============================-->		<measure number="32" width="101">			<note>				<pitch>					<step>G</step>					<octave>4</octave>				</pitch>				<duration>6720</duration>				<voice>1</voice>				<type>quarter</type>				<stem default-y="5.00">up</stem>			</note>			<note>				<pitch>					<step>G</step>					<octave>4</octave>				</pitch>				<duration>6720</duration>				<voice>1</voice>				<type>quarter</type>				<stem default-y="5.00">up</stem>			</note>		</measure>		<!--==========================[3,33]=============================-->		<measure number="33" width="80">			<print new-page="yes">				<staff-layout number="1">					<staff-distance>56.000</staff-distance>				</staff-layout>			</print>			<barline location="left">				<ending type="start" number="1"/>			</barline>			<note>				<pitch>					<step>F</step>					<octave>4</octave>				</pitch>				<duration>13440</duration>				<tie type="start"/>				<voice>1</voice>				<type>half</type>				<stem default-y="0.00">up</stem>				<notations>					<tied type="start" number="1" placement="below" orientation="under"/>				</notations>			</note>			<barline location="right">				<ending type="discontinue" number="1"/>			</barline>		</measure>		<!--==========================[3,34]=============================-->		<measure number="34" width="63">			<note>				<pitch>					<step>F</step>					<octave>4</octave>				</pitch>				<duration>6720</duration>				<tie type="stop"/>				<voice>1</voice>				<type>quarter</type>				<stem default-y="0.00">up</stem>				<notations>					<tied type="stop" number="1"/>				</notations>			</note>			<barline location="right">				<repeat direction="backward" times="0"/>			</barline>		</measure>		<!--==========================[3,35]=============================-->		<measure number="35" width="80">			<barline location="left">				<ending type="start" number="2"/>			</barline>			<note>				<pitch>					<step>F</step>					<octave>4</octave>				</pitch>				<duration>13440</duration>				<voice>1</voice>				<type>half</type>				<stem default-y="0.00">up</stem>			</note>			<barline location="right">				<bar-style>light-heavy</bar-style>				<ending type="discontinue" number="2"/>			</barline>		</measure>	</part>	<part id="P4">		<!--==========================[4,1]=============================-->		<measure number="1" width="189">			<print>				<staff-layout number="1">					<staff-distance>56.000</staff-distance>				</staff-layout>			</print>			<attributes>				<divisions>6720</divisions>				<key>					<cancel>-6</cancel>					<fifths>-1</fifths>					<mode>major</mode>				</key>				<time>					<beats>2</beats>					<beat-type>4</beat-type>				</time>				<clef number="1">					<sign>F</sign>					<line>4</line>				</clef>				<staff-details number="1" print-object="yes">					<staff-lines>5</staff-lines>					<staff-size>70.00</staff-size>				</staff-details>			</attributes>			<note>				<pitch>					<step>F</step>					<octave>3</octave>				</pitch>				<duration>10080</duration>				<voice>1</voice>				<type>quarter</type>				<dot/>				<stem default-y="-45.00">down</stem>			</note>			<note>				<pitch>					<step>F</step>					<octave>3</octave>				</pitch>				<duration>3360</duration>				<voice>1</voice>				<type>eighth</type>				<stem default-y="-45.00">down</stem>			</note>		</measure>		<!--==========================[4,2]=============================-->		<measure number="2" width="101">			<note>				<pitch>					<step>A</step>					<octave>3</octave>				</pitch>				<duration>10080</duration>				<voice>1</voice>				<type>quarter</type>				<dot/>				<stem default-y="-35.00">down</stem>			</note>			<note>				<pitch>					<step>A</step>					<octave>3</octave>				</pitch>				<duration>3360</duration>				<voice>1</voice>				<type>eighth</type>				<stem default-y="-35.00">down</stem>			</note>		</measure>		<!--==========================[4,3]=============================-->		<measure number="3" width="101">			<note>				<pitch>					<step>D</step>					<octave>3</octave>				</pitch>				<duration>10080</duration>				<voice>1</voice>				<type>quarter</type>				<dot/>				<stem default-y="-55.00">down</stem>			</note>			<note>				<pitch>					<step>A</step>					<octave>3</octave>				</pitch>				<duration>3360</duration>				<voice>1</voice>				<type>eighth</type>				<stem default-y="-35.00">down</stem>			</note>		</measure>		<!--==========================[4,4]=============================-->		<measure number="4" width="101">			<note>				<pitch>					<step>F</step>					<octave>3</octave>				</pitch>				<duration>6720</duration>				<voice>1</voice>				<type>quarter</type>				<stem default-y="-45.00">down</stem>			</note>			<note>				<pitch>					<step>F</step>					<octave>3</octave>				</pitch>				<duration>3360</duration>				<voice>1</voice>				<type>eighth</type>				<stem default-y="-45.00">down</stem>				<beam number="1">begin</beam>			</note>			<note>				<pitch>					<step>D</step>					<octave>3</octave>				</pitch>				<duration>3360</duration>				<voice>1</voice>				<type>eighth</type>				<stem default-y="-55.00">down</stem>				<beam number="1">end</beam>			</note>		</measure>		<!--==========================[4,5]=============================-->		<measure number="5" width="101">			<note>				<pitch>					<step>C</step>					<octave>3</octave>				</pitch>				<duration>6720</duration>				<voice>1</voice>				<type>quarter</type>				<stem default-y="10.00">up</stem>			</note>			<note>				<pitch>					<step>C</step>					<octave>3</octave>				</pitch>				<duration>6720</duration>				<voice>1</voice>				<type>quarter</type>				<stem default-y="10.00">up</stem>			</note>		</measure>		<!--==========================[4,6]=============================-->		<measure number="6" width="101">			<note>				<pitch>					<step>F</step>					<octave>3</octave>				</pitch>				<duration>6720</duration>				<voice>1</voice>				<type>quarter</type>				<stem default-y="-45.00">down</stem>			</note>			<note>				<pitch>					<step>F</step>					<octave>3</octave>				</pitch>				<duration>3360</duration>				<voice>1</voice>				<type>eighth</type>				<stem default-y="-45.00">down</stem>				<beam number="1">begin</beam>			</note>			<note>				<pitch>					<step>E</step>					<octave>3</octave>				</pitch>				<duration>3360</duration>				<voice>1</voice>				<type>eighth</type>				<stem default-y="-50.00">down</stem>				<beam number="1">end</beam>			</note>		</measure>		<!--==========================[4,7]=============================-->		<measure number="7" width="101">			<note>				<pitch>					<step>D</step>					<octave>3</octave>				</pitch>				<duration>6720</duration>				<voice>1</voice>				<type>quarter</type>				<stem default-y="-55.00">down</stem>			</note>			<note>				<pitch>					<step>C</step>					<octave>3</octave>				</pitch>				<duration>3360</duration>				<voice>1</voice>				<type>eighth</type>				<stem default-y="10.00">up</stem>				<beam number="1">begin</beam>			</note>			<note>				<pitch>					<step>D</step>					<octave>3</octave>				</pitch>				<duration>3360</duration>				<voice>1</voice>				<type>eighth</type>				<stem default-y="15.00">up</stem>				<beam number="1">end</beam>			</note>		</measure>		<!--==========================[4,8]=============================-->		<measure number="8" width="80">			<note>				<pitch>					<step>F</step>					<octave>3</octave>				</pitch>				<duration>13440</duration>				<voice>1</voice>				<type>half</type>				<stem default-y="-45.00">down</stem>			</note>		</measure>		<!--==========================[4,9]=============================-->		<measure number="9" width="101">			<note>				<pitch>					<step>F</step>					<octave>3</octave>				</pitch>				<duration>10080</duration>				<voice>1</voice>				<type>quarter</type>				<dot/>				<stem default-y="-45.00">down</stem>			</note>			<note>				<pitch>					<step>F</step>					<octave>3</octave>				</pitch>				<duration>3360</duration>				<voice>1</voice>				<type>eighth</type>				<stem default-y="-45.00">down</stem>			</note>		</measure>		<!--==========================[4,10]=============================-->		<measure number="10" width="101">			<note>				<pitch>					<step>A</step>					<octave>3</octave>				</pitch>				<duration>10080</duration>				<voice>1</voice>				<type>quarter</type>				<dot/>				<stem default-y="-35.00">down</stem>			</note>			<note>				<pitch>					<step>A</step>					<octave>3</octave>				</pitch>				<duration>3360</duration>				<voice>1</voice>				<type>eighth</type>				<stem default-y="-35.00">down</stem>			</note>		</measure>		<!--==========================[4,11]=============================-->		<measure number="11" width="101">			<print new-system="yes">				<staff-layout number="1">					<staff-distance>56.000</staff-distance>				</staff-layout>			</print>			<note>				<pitch>					<step>F</step>					<octave>3</octave>				</pitch>				<duration>10080</duration>				<voice>1</voice>				<type>quarter</type>				<dot/>				<stem default-y="-45.00">down</stem>			</note>			<note>				<pitch>					<step>D</step>					<octave>3</octave>				</pitch>				<duration>3360</duration>				<voice>1</voice>				<type>eighth</type>				<stem default-y="-55.00">down</stem>			</note>		</measure>		<!--==========================[4,12]=============================-->		<measure number="12" width="101">			<note>				<pitch>					<step>F</step>					<octave>3</octave>				</pitch>				<duration>6720</duration>				<voice>1</voice>				<type>quarter</type>				<stem default-y="-45.00">down</stem>			</note>			<note>				<pitch>					<step>F</step>					<octave>3</octave>				</pitch>				<duration>3360</duration>				<voice>1</voice>				<type>eighth</type>				<stem default-y="-45.00">down</stem>				<beam number="1">begin</beam>			</note>			<note>				<pitch>					<step>D</step>					<octave>3</octave>				</pitch>				<duration>3360</duration>				<voice>1</voice>				<type>eighth</type>				<stem default-y="-55.00">down</stem>				<beam number="1">end</beam>			</note>		</measure>		<!--==========================[4,13]=============================-->		<measure number="13" width="101">			<note>				<pitch>					<step>C</step>					<octave>3</octave>				</pitch>				<duration>6720</duration>				<voice>1</voice>				<type>quarter</type>				<stem default-y="10.00">up</stem>			</note>			<note>				<pitch>					<step>C</step>					<octave>3</octave>				</pitch>				<duration>6720</duration>				<voice>1</voice>				<type>quarter</type>				<stem default-y="10.00">up</stem>			</note>		</measure>		<!--==========================[4,14]=============================-->		<measure number="14" width="101">			<note>				<pitch>					<step>F</step>					<octave>3</octave>				</pitch>				<duration>6720</duration>				<voice>1</voice>				<type>quarter</type>				<stem default-y="-45.00">down</stem>			</note>			<note>				<pitch>					<step>F</step>					<octave>3</octave>				</pitch>				<duration>3360</duration>				<voice>1</voice>				<type>eighth</type>				<stem default-y="-45.00">down</stem>				<beam number="1">begin</beam>			</note>			<note>				<pitch>					<step>D</step>					<octave>3</octave>				</pitch>				<duration>3360</duration>				<voice>1</voice>				<type>eighth</type>				<stem default-y="-55.00">down</stem>				<beam number="1">end</beam>			</note>		</measure>		<!--==========================[4,15]=============================-->		<measure number="15" width="101">			<note>				<pitch>					<step>C</step>					<octave>3</octave>				</pitch>				<duration>6720</duration>				<voice>1</voice>				<type>quarter</type>				<stem default-y="10.00">up</stem>			</note>			<note>				<pitch>					<step>C</step>					<octave>3</octave>				</pitch>				<duration>6720</duration>				<voice>1</voice>				<type>quarter</type>				<stem default-y="10.00">up</stem>			</note>		</measure>		<!--==========================[4,16]=============================-->		<measure number="16" width="80">			<note>				<pitch>					<step>F</step>					<octave>3</octave>				</pitch>				<duration>13440</duration>				<tie type="start"/>				<voice>1</voice>				<type>half</type>				<stem default-y="-45.00">down</stem>				<notations>					<tied type="start" number="1" placement="above" orientation="over"/>				</notations>			</note>		</measure>		<!--==========================[4,17]=============================-->		<measure number="17" width="63">			<note>				<pitch>					<step>F</step>					<octave>3</octave>				</pitch>				<duration>6720</duration>				<tie type="stop"/>				<voice>1</voice>				<type>quarter</type>				<stem default-y="-45.00">down</stem>				<notations>					<tied type="stop" number="1"/>				</notations>			</note>		</measure>		<!--==========================[4,18]=============================-->		<measure number="18" width="63">			<barline location="left">				<repeat direction="forward"/>			</barline>			<note>				<pitch>					<step>F</step>					<octave>3</octave>				</pitch>				<duration>3360</duration>				<voice>1</voice>				<type>eighth</type>				<stem default-y="-45.00">down</stem>			</note>			<note>				<pitch>					<step>E</step>					<octave>3</octave>				</pitch>				<duration>3360</duration>				<voice>1</voice>				<type>eighth</type>				<stem default-y="-50.00">down</stem>			</note>		</measure>		<!--==========================[4,19]=============================-->		<measure number="19" width="101">			<note>				<pitch>					<step>D</step>					<octave>3</octave>				</pitch>				<duration>10080</duration>				<voice>1</voice>				<type>quarter</type>				<dot/>				<stem default-y="-55.00">down</stem>			</note>			<note>				<pitch>					<step>D</step>					<octave>3</octave>				</pitch>				<duration>3360</duration>				<voice>1</voice>				<type>eighth</type>				<stem default-y="-55.00">down</stem>			</note>		</measure>		<!--==========================[4,20]=============================-->		<measure number="20" width="101">			<note>				<pitch>					<step>C</step>					<octave>3</octave>				</pitch>				<duration>6720</duration>				<voice>1</voice>				<type>quarter</type>				<stem default-y="10.00">up</stem>			</note>			<note>				<pitch>					<step>C</step>					<octave>3</octave>				</pitch>				<duration>6720</duration>				<voice>1</voice>				<type>quarter</type>				<stem default-y="10.00">up</stem>			</note>		</measure>		<!--==========================[4,21]=============================-->		<measure number="21" width="101">			<note>				<pitch>					<step>F</step>					<octave>3</octave>				</pitch>				<duration>6720</duration>				<voice>1</voice>				<type>quarter</type>				<stem default-y="-45.00">down</stem>			</note>			<note>				<pitch>					<step>A</step>					<octave>3</octave>				</pitch>				<duration>3360</duration>				<voice>1</voice>				<type>eighth</type>				<stem default-y="-35.00">down</stem>				<beam number="1">begin</beam>			</note>			<note>				<pitch>					<step>G</step>					<octave>3</octave>				</pitch>				<duration>3360</duration>				<voice>1</voice>				<type>eighth</type>				<stem default-y="-40.00">down</stem>				<beam number="1">end</beam>			</note>		</measure>		<!--==========================[4,22]=============================-->		<measure number="22" width="101">			<print new-system="yes">				<staff-layout number="1">					<staff-distance>56.000</staff-distance>				</staff-layout>			</print>			<note>				<pitch>					<step>F</step>					<octave>3</octave>				</pitch>				<duration>6720</duration>				<voice>1</voice>				<type>quarter</type>				<stem default-y="-45.00">down</stem>			</note>			<note>				<pitch>					<step>A</step>					<octave>3</octave>				</pitch>				<duration>3360</duration>				<voice>1</voice>				<type>eighth</type>				<stem default-y="-35.00">down</stem>				<beam number="1">begin</beam>			</note>			<note>				<pitch>					<step>G</step>					<octave>3</octave>				</pitch>				<duration>3360</duration>				<voice>1</voice>				<type>eighth</type>				<stem default-y="-40.00">down</stem>				<beam number="1">end</beam>			</note>		</measure>		<!--==========================[4,23]=============================-->		<measure number="23" width="101">			<note>				<pitch>					<step>A</step>					<octave>3</octave>				</pitch>				<duration>6720</duration>				<voice>1</voice>				<type>quarter</type>				<stem default-y="-35.00">down</stem>			</note>			<note>				<pitch>					<step>A</step>					<octave>3</octave>				</pitch>				<duration>3360</duration>				<voice>1</voice>				<type>eighth</type>				<stem default-y="-35.00">down</stem>				<beam number="1">begin</beam>			</note>			<note>				<pitch>					<step>G</step>					<octave>3</octave>				</pitch>				<duration>3360</duration>				<voice>1</voice>				<type>eighth</type>				<stem default-y="-40.00">down</stem>				<beam number="1">end</beam>			</note>		</measure>		<!--==========================[4,24]=============================-->		<measure number="24" width="101">			<note>				<pitch>					<step>F</step>					<octave>3</octave>				</pitch>				<duration>6720</duration>				<voice>1</voice>				<type>quarter</type>				<stem default-y="-45.00">down</stem>			</note>			<note>				<pitch>					<step>F</step>					<octave>3</octave>				</pitch>				<duration>6720</duration>				<voice>1</voice>				<type>quarter</type>				<stem default-y="-45.00">down</stem>			</note>		</measure>		<!--==========================[4,25]=============================-->		<measure number="25" width="80">			<note>				<pitch>					<step>C</step>					<octave>3</octave>				</pitch>				<duration>13440</duration>				<voice>1</voice>				<type>half</type>				<stem default-y="10.00">up</stem>			</note>		</measure>		<!--==========================[4,26]=============================-->		<measure number="26" width="101">			<note>				<pitch>					<step>F</step>					<octave>3</octave>				</pitch>				<duration>10080</duration>				<voice>1</voice>				<type>quarter</type>				<dot/>				<stem default-y="-45.00">down</stem>			</note>			<note>				<pitch>					<step>G</step>					<octave>3</octave>				</pitch>				<duration>3360</duration>				<voice>1</voice>				<type>eighth</type>				<stem default-y="-40.00">down</stem>			</note>		</measure>		<!--==========================[4,27]=============================-->		<measure number="27" width="101">			<note>				<pitch>					<step>A</step>					<octave>3</octave>				</pitch>				<duration>10080</duration>				<voice>1</voice>				<type>quarter</type>				<dot/>				<stem default-y="-35.00">down</stem>			</note>			<note>				<pitch>					<step>G</step>					<octave>3</octave>				</pitch>				<duration>3360</duration>				<voice>1</voice>				<type>eighth</type>				<stem default-y="-40.00">down</stem>			</note>		</measure>		<!--==========================[4,28]=============================-->		<measure number="28" width="101">			<note>				<pitch>					<step>F</step>					<octave>3</octave>				</pitch>				<duration>10080</duration>				<voice>1</voice>				<type>quarter</type>				<dot/>				<stem default-y="-45.00">down</stem>			</note>			<note>				<pitch>					<step>D</step>					<octave>3</octave>				</pitch>				<duration>3360</duration>				<voice>1</voice>				<type>eighth</type>				<stem default-y="-55.00">down</stem>			</note>		</measure>		<!--==========================[4,29]=============================-->		<measure number="29" width="101">			<note>				<pitch>					<step>F</step>					<octave>3</octave>				</pitch>				<duration>6720</duration>				<voice>1</voice>				<type>quarter</type>				<stem default-y="-45.00">down</stem>			</note>			<note>				<pitch>					<step>F</step>					<octave>3</octave>				</pitch>				<duration>3360</duration>				<voice>1</voice>				<type>eighth</type>				<stem default-y="-45.00">down</stem>				<beam number="1">begin</beam>			</note>			<note>				<pitch>					<step>D</step>					<octave>3</octave>				</pitch>				<duration>3360</duration>				<voice>1</voice>				<type>eighth</type>				<stem default-y="-55.00">down</stem>				<beam number="1">end</beam>			</note>		</measure>		<!--==========================[4,30]=============================-->		<measure number="30" width="101">			<note>				<pitch>					<step>C</step>					<octave>3</octave>				</pitch>				<duration>6720</duration>				<voice>1</voice>				<type>quarter</type>				<stem default-y="10.00">up</stem>			</note>			<note>				<pitch>					<step>C</step>					<octave>3</octave>				</pitch>				<duration>6720</duration>				<voice>1</voice>				<type>quarter</type>				<stem default-y="10.00">up</stem>			</note>		</measure>		<!--==========================[4,31]=============================-->		<measure number="31" width="101">			<note>				<pitch>					<step>D</step>					<octave>3</octave>				</pitch>				<duration>6720</duration>				<voice>1</voice>				<type>quarter</type>				<stem default-y="-55.00">down</stem>			</note>			<note>				<pitch>					<step>F</step>					<octave>3</octave>				</pitch>				<duration>3360</duration>				<voice>1</voice>				<type>eighth</type>				<stem default-y="-45.00">down</stem>				<beam number="1">begin</beam>			</note>			<note>				<pitch>					<step>D</step>					<octave>3</octave>				</pitch>				<duration>3360</duration>				<voice>1</voice>				<type>eighth</type>				<stem default-y="-55.00">down</stem>				<beam number="1">end</beam>			</note>		</measure>		<!--==========================[4,32]=============================-->		<measure number="32" width="101">			<note>				<pitch>					<step>C</step>					<octave>3</octave>				</pitch>				<duration>6720</duration>				<voice>1</voice>				<type>quarter</type>				<stem default-y="10.00">up</stem>			</note>			<note>				<pitch>					<step>C</step>					<octave>3</octave>				</pitch>				<duration>6720</duration>				<voice>1</voice>				<type>quarter</type>				<stem default-y="10.00">up</stem>			</note>		</measure>		<!--==========================[4,33]=============================-->		<measure number="33" width="80">			<print new-page="yes">				<staff-layout number="1">					<staff-distance>56.000</staff-distance>				</staff-layout>			</print>			<barline location="left">				<ending type="start" number="1"/>			</barline>			<note>				<pitch>					<step>F</step>					<octave>3</octave>				</pitch>				<duration>13440</duration>				<tie type="start"/>				<voice>1</voice>				<type>half</type>				<stem default-y="-45.00">down</stem>				<notations>					<tied type="start" number="1" placement="above" orientation="over"/>				</notations>			</note>			<barline location="right">				<ending type="discontinue" number="1"/>			</barline>		</measure>		<!--==========================[4,34]=============================-->		<measure number="34" width="63">			<note>				<pitch>					<step>F</step>					<octave>3</octave>				</pitch>				<duration>6720</duration>				<tie type="stop"/>				<voice>1</voice>				<type>quarter</type>				<stem default-y="-45.00">down</stem>				<notations>					<tied type="stop" number="1"/>				</notations>			</note>			<barline location="right">				<repeat direction="backward" times="0"/>			</barline>		</measure>		<!--==========================[4,35]=============================-->		<measure number="35" width="80">			<barline location="left">				<ending type="start" number="2"/>			</barline>			<note>				<pitch>					<step>F</step>					<octave>3</octave>				</pitch>				<duration>13440</duration>				<voice>1</voice>				<type>half</type>				<stem default-y="-45.00">down</stem>			</note>			<barline location="right">				<bar-style>light-heavy</bar-style>				<ending type="discontinue" number="2"/>			</barline>		</measure>	</part></score-partwise>