<?xml version="1.0" encoding="UTF-8" standalone="no"?><!DOCTYPE score-partwise PUBLIC "-//Recordare//DTD MusicXML 1.1 Partwise//EN" "http://www.musicxml.org/dtds/partwise.dtd"><score-partwise>	<work>		<work-title>CHARLESTOWN, 52b</work-title>	</work>	<identification>		<creator type="composer">United States Sacred Harmony, 1799.</creator>		<creator type="poet">John Newton, 1779.</creator>		<encoding>			<software>Harmony Assistant v9.6.2m (c) Myriad - http://www.myriad-online.com</software>			<?PDFtoMusic Document type 0000- 58482395?>		</encoding>	</identification>	<defaults>		<scaling>			<millimeters>8.466666</millimeters>			<tenths>40</tenths>		</scaling>		<page-layout>			<page-height>1403.333</page-height>			<page-width>991.667</page-width>			<page-margins type="both">				<left-margin>30.000</left-margin>				<right-margin>30.000</right-margin>				<top-margin>30.000</top-margin>				 <bottom-margin>68.333</bottom-margin>			</page-margins>		</page-layout>	</defaults>	<credit>		<credit-words  default-x="362.500" default-y="1266.000" justify="left" valign="top" font-family="Times New Roman" font-size="17" font-weight="bold" font-style="normal">CHARLESTOWN, 52b</credit-words>	</credit>	<credit>		<credit-words  default-x="627.333" default-y="1255.500" justify="left" valign="top" font-family="Times New Roman" font-size="11" font-weight="bold" font-style="normal">United States Sacred Harmony, 1799.</credit-words>	</credit>	<credit>		<credit-words  default-x="76.667" default-y="1255.500" justify="left" valign="top" font-family="Arial" font-size="10" font-weight="normal" font-style="normal">John Newton, 1779.</credit-words>	</credit>	<part-list>		<score-part id="P1">			<part-name font-family="Arial" font-size="10" font-weight="normal" font-style="normal">treble</part-name>			<part-abbreviation font-family="Arial" font-size="10" font-weight="normal" font-style="normal"></part-abbreviation>			<score-instrument id="P1-I1">				<instrument-name>Instr 20</instrument-name>			</score-instrument>			<midi-instrument id="P1-I1">				<midi-channel>14</midi-channel>				<midi-bank>1</midi-bank>				<midi-program>1</midi-program>				<?Myriad				<midi-volume>127</midi-volume>				?>				<?Myriad				<midi-panning>0</midi-panning>				?>			</midi-instrument>		</score-part>		<score-part id="P2">			<part-name font-family="Arial" font-size="10" font-weight="normal" font-style="normal">alto</part-name>			<part-abbreviation font-family="Arial" font-size="10" font-weight="normal" font-style="normal"></part-abbreviation>			<score-instrument id="P2-I1">				<instrument-name>Instr 23</instrument-name>			</score-instrument>			<midi-instrument id="P2-I1">				<midi-channel>0</midi-channel>				<midi-bank>1</midi-bank>				<midi-program>1</midi-program>				<?Myriad				<midi-volume>127</midi-volume>				?>				<?Myriad				<midi-panning>0</midi-panning>				?>			</midi-instrument>		</score-part>		<score-part id="P3">			<part-name font-family="Arial" font-size="10" font-weight="normal" font-style="normal">tenor</part-name>			<part-abbreviation font-family="Arial" font-size="10" font-weight="normal" font-style="normal"></part-abbreviation>			<score-instrument id="P3-I1">				<instrument-name>Instr 22</instrument-name>			</score-instrument>			<midi-instrument id="P3-I1">				<midi-channel>0</midi-channel>				<midi-bank>1</midi-bank>				<midi-program>1</midi-program>				<?Myriad				<midi-volume>127</midi-volume>				?>				<?Myriad				<midi-panning>0</midi-panning>				?>			</midi-instrument>		</score-part>		<score-part id="P4">			<part-name font-family="Arial" font-size="10" font-weight="normal" font-style="normal">bass</part-name>			<part-abbreviation font-family="Arial" font-size="10" font-weight="normal" font-style="normal"></part-abbreviation>			<score-instrument id="P4-I1">				<instrument-name>Instr 21</instrument-name>			</score-instrument>			<midi-instrument id="P4-I1">				<midi-channel>15</midi-channel>				<midi-bank>1</midi-bank>				<midi-program>1</midi-program>				<?Myriad				<midi-volume>127</midi-volume>				?>				<?Myriad				<midi-panning>0</midi-panning>				?>			</midi-instrument>		</score-part>	</part-list>	<part id="P1">		<!--==========================[1,1]=============================-->		<measure number="1" width="198">			<print>				<system-layout>					<system-margins>						<left-margin>93.333</left-margin>						<right-margin>46.667</right-margin>					</system-margins>					<top-system-distance>337.167</top-system-distance>				</system-layout>			</print>			<attributes>				<divisions>6720</divisions>				<key>					<cancel>-6</cancel>					<fifths>-1</fifths>					<mode>major</mode>				</key>				<time>					<beats>6</beats>					<beat-type>4</beat-type>				</time>				<clef number="1">					<sign>G</sign>					<line>2</line>				</clef>				<staff-details number="1" print-object="yes">					<staff-lines>5</staff-lines>					<staff-size>70.00</staff-size>				</staff-details>			</attributes>			<note>				<pitch>					<step>A</step>					<octave>4</octave>				</pitch>				<duration>13440</duration>				<voice>1</voice>				<type>half</type>				<stem default-y="10.00">up</stem>			</note>			<note>				<pitch>					<step>D</step>					<octave>5</octave>				</pitch>				<duration>6720</duration>				<voice>1</voice>				<type>quarter</type>				<stem default-y="-45.00">down</stem>			</note>			<note>				<pitch>					<step>C</step>					<octave>5</octave>				</pitch>				<duration>13440</duration>				<voice>1</voice>				<type>half</type>				<stem default-y="-50.00">down</stem>			</note>			<note>				<pitch>					<step>B</step>					<alter>-1</alter>					<octave>4</octave>				</pitch>				<duration>6720</duration>				<voice>1</voice>				<type>quarter</type>				<stem default-y="-55.00">down</stem>			</note>		</measure>		<!--==========================[1,2]=============================-->		<measure number="2" width="148">			<note>				<pitch>					<step>A</step>					<octave>4</octave>				</pitch>				<duration>13440</duration>				<voice>1</voice>				<type>half</type>				<stem default-y="10.00">up</stem>			</note>			<note>				<pitch>					<step>F</step>					<octave>4</octave>				</pitch>				<duration>6720</duration>				<voice>1</voice>				<type>quarter</type>				<stem default-y="0.00">up</stem>			</note>			<note>				<pitch>					<step>G</step>					<octave>4</octave>				</pitch>				<duration>6720</duration>				<voice>1</voice>				<type>quarter</type>				<stem default-y="5.00">up</stem>			</note>			<note>				<pitch>					<step>A</step>					<octave>4</octave>				</pitch>				<duration>13440</duration>				<voice>1</voice>				<type>half</type>				<stem default-y="10.00">up</stem>			</note>		</measure>		<!--==========================[1,3]=============================-->		<measure number="3" width="148">			<note>				<pitch>					<step>C</step>					<octave>5</octave>				</pitch>				<duration>13440</duration>				<voice>1</voice>				<type>half</type>				<stem default-y="-50.00">down</stem>			</note>			<note>				<pitch>					<step>A</step>					<octave>4</octave>				</pitch>				<duration>6720</duration>				<voice>1</voice>				<type>quarter</type>				<stem default-y="10.00">up</stem>			</note>			<note>				<pitch>					<step>D</step>					<octave>5</octave>				</pitch>				<duration>13440</duration>				<voice>1</voice>				<type>half</type>				<stem default-y="-45.00">down</stem>			</note>			<note>				<pitch>					<step>G</step>					<octave>4</octave>				</pitch>				<duration>6720</duration>				<voice>1</voice>				<type>quarter</type>				<stem default-y="5.00">up</stem>			</note>		</measure>		<!--==========================[1,4]=============================-->		<measure number="4" width="140">			<note>				<pitch>					<step>A</step>					<octave>4</octave>				</pitch>				<duration>13440</duration>				<voice>1</voice>				<type>half</type>				<stem default-y="10.00">up</stem>			</note>			<note>				<pitch>					<step>D</step>					<octave>5</octave>				</pitch>				<duration>6720</duration>				<voice>1</voice>				<type>quarter</type>				<stem default-y="-45.00">down</stem>			</note>			<note>				<pitch>					<step>C</step>					<octave>5</octave>				</pitch>				<duration>20160</duration>				<voice>1</voice>				<type>half</type>				<dot/>				<stem default-y="-50.00">down</stem>			</note>		</measure>		<!--==========================[1,5]=============================-->		<measure number="5" width="148">			<barline location="left">				<repeat direction="forward"/>			</barline>			<note>				<pitch>					<step>A</step>					<octave>4</octave>				</pitch>				<duration>13440</duration>				<voice>1</voice>				<type>half</type>				<stem default-y="10.00">up</stem>			</note>			<note>				<pitch>					<step>G</step>					<octave>4</octave>				</pitch>				<duration>6720</duration>				<voice>1</voice>				<type>quarter</type>				<stem default-y="5.00">up</stem>			</note>			<note>				<pitch>					<step>C</step>					<octave>5</octave>				</pitch>				<duration>13440</duration>				<voice>1</voice>				<type>half</type>				<stem default-y="-50.00">down</stem>			</note>			<note>				<pitch>					<step>D</step>					<octave>5</octave>				</pitch>				<duration>6720</duration>				<voice>1</voice>				<type>quarter</type>				<stem default-y="-45.00">down</stem>			</note>		</measure>		<!--==========================[1,6]=============================-->		<measure number="6" width="140">			<note>				<pitch>					<step>A</step>					<octave>4</octave>				</pitch>				<duration>13440</duration>				<voice>1</voice>				<type>half</type>				<stem default-y="10.00">up</stem>			</note>			<note>				<pitch>					<step>F</step>					<octave>4</octave>				</pitch>				<duration>6720</duration>				<voice>1</voice>				<type>quarter</type>				<stem default-y="0.00">up</stem>			</note>			<note>				<pitch>					<step>G</step>					<octave>4</octave>				</pitch>				<duration>6720</duration>				<voice>1</voice>				<type>quarter</type>				<stem default-y="5.00">up</stem>			</note>			<note>				<pitch>					<step>A</step>					<octave>4</octave>				</pitch>				<duration>13440</duration>				<voice>1</voice>				<type>half</type>				<stem default-y="10.00">up</stem>			</note>		</measure>		<!--==========================[1,7]=============================-->		<measure number="7" width="138">			<note>				<pitch>					<step>C</step>					<octave>5</octave>				</pitch>				<duration>13440</duration>				<voice>1</voice>				<type>half</type>				<stem default-y="-50.00">down</stem>			</note>			<note>				<pitch>					<step>C</step>					<octave>5</octave>				</pitch>				<duration>6720</duration>				<voice>1</voice>				<type>quarter</type>				<stem default-y="-50.00">down</stem>			</note>			<note>				<pitch>					<step>A</step>					<octave>4</octave>				</pitch>				<duration>13440</duration>				<voice>1</voice>				<type>half</type>				<stem default-y="10.00">up</stem>			</note>			<note>				<pitch>					<step>D</step>					<octave>5</octave>				</pitch>				<duration>6720</duration>				<voice>1</voice>				<type>quarter</type>				<stem default-y="-45.00">down</stem>			</note>		</measure>		<!--==========================[1,8]=============================-->		<measure number="8" width="136">			<print new-system="yes">				<system-layout>					<system-margins>						<left-margin>46.667</left-margin>						<right-margin>46.667</right-margin>					</system-margins>					<system-distance>183.167</system-distance>				</system-layout>			</print>			<note>				<pitch>					<step>C</step>					<octave>5</octave>				</pitch>				<duration>13440</duration>				<voice>1</voice>				<type>half</type>				<stem default-y="-50.00">down</stem>			</note>			<note>				<pitch>					<step>C</step>					<octave>5</octave>				</pitch>				<duration>6720</duration>				<voice>1</voice>				<type>quarter</type>				<stem default-y="-50.00">down</stem>			</note>			<note>				<pitch>					<step>A</step>					<octave>4</octave>				</pitch>				<duration>20160</duration>				<voice>1</voice>				<type>half</type>				<dot/>				<stem default-y="10.00">up</stem>			</note>			<barline location="right">				<repeat direction="backward" times="1"/>			</barline>		</measure>	</part>	<part id="P2">		<!--==========================[2,1]=============================-->		<measure number="1" width="198">			<print>				<staff-layout number="1">					<staff-distance>56.000</staff-distance>				</staff-layout>			</print>			<attributes>				<divisions>6720</divisions>				<key>					<cancel>-6</cancel>					<fifths>-1</fifths>					<mode>major</mode>				</key>				<time>					<beats>6</beats>					<beat-type>4</beat-type>				</time>				<clef number="1">					<sign>G</sign>					<line>2</line>				</clef>				<staff-details number="1" print-object="yes">					<staff-lines>5</staff-lines>					<staff-size>70.00</staff-size>				</staff-details>			</attributes>			<note>				<pitch>					<step>C</step>					<octave>4</octave>				</pitch>				<duration>13440</duration>				<voice>1</voice>				<type>half</type>				<stem default-y="-15.00">up</stem>			</note>			<note>				<pitch>					<step>D</step>					<octave>4</octave>				</pitch>				<duration>6720</duration>				<voice>1</voice>				<type>quarter</type>				<stem default-y="-10.00">up</stem>			</note>			<note>				<pitch>					<step>F</step>					<octave>4</octave>				</pitch>				<duration>13440</duration>				<voice>1</voice>				<type>half</type>				<stem default-y="0.00">up</stem>			</note>			<note>				<pitch>					<step>G</step>					<octave>4</octave>				</pitch>				<duration>6720</duration>				<voice>1</voice>				<type>quarter</type>				<stem default-y="5.00">up</stem>			</note>		</measure>		<!--==========================[2,2]=============================-->		<measure number="2" width="148">			<note>				<pitch>					<step>F</step>					<octave>4</octave>				</pitch>				<duration>13440</duration>				<voice>1</voice>				<type>half</type>				<stem default-y="0.00">up</stem>			</note>			<note>				<pitch>					<step>F</step>					<octave>4</octave>				</pitch>				<duration>6720</duration>				<voice>1</voice>				<type>quarter</type>				<stem default-y="0.00">up</stem>			</note>			<note>				<pitch>					<step>E</step>					<octave>4</octave>				</pitch>				<duration>6720</duration>				<voice>1</voice>				<type>quarter</type>				<stem default-y="-5.00">up</stem>			</note>			<note>				<pitch>					<step>F</step>					<octave>4</octave>				</pitch>				<duration>13440</duration>				<voice>1</voice>				<type>half</type>				<stem default-y="0.00">up</stem>			</note>		</measure>		<!--==========================[2,3]=============================-->		<measure number="3" width="148">			<note>				<pitch>					<step>F</step>					<octave>4</octave>				</pitch>				<duration>13440</duration>				<voice>1</voice>				<type>half</type>				<stem default-y="0.00">up</stem>			</note>			<note>				<pitch>					<step>F</step>					<octave>4</octave>				</pitch>				<duration>3360</duration>				<voice>1</voice>				<type>eighth</type>				<stem default-y="0.00">up</stem>				<beam number="1">begin</beam>			</note>			<note>				<pitch>					<step>E</step>					<octave>4</octave>				</pitch>				<duration>3360</duration>				<voice>1</voice>				<type>eighth</type>				<stem default-y="-5.00">up</stem>				<beam number="1">end</beam>			</note>			<note>				<pitch>					<step>D</step>					<octave>4</octave>				</pitch>				<duration>13440</duration>				<voice>1</voice>				<type>half</type>				<stem default-y="-10.00">up</stem>			</note>			<note>				<pitch>					<step>G</step>					<octave>4</octave>				</pitch>				<duration>6720</duration>				<voice>1</voice>				<type>quarter</type>				<stem default-y="5.00">up</stem>			</note>		</measure>		<!--==========================[2,4]=============================-->		<measure number="4" width="140">			<note>				<pitch>					<step>F</step>					<octave>4</octave>				</pitch>				<duration>13440</duration>				<voice>1</voice>				<type>half</type>				<stem default-y="0.00">up</stem>			</note>			<note>				<pitch>					<step>F</step>					<octave>4</octave>				</pitch>				<duration>6720</duration>				<voice>1</voice>				<type>quarter</type>				<stem default-y="0.00">up</stem>			</note>			<note>				<pitch>					<step>E</step>					<octave>4</octave>				</pitch>				<duration>20160</duration>				<voice>1</voice>				<type>half</type>				<dot/>				<stem default-y="-5.00">up</stem>			</note>		</measure>		<!--==========================[2,5]=============================-->		<measure number="5" width="148">			<barline location="left">				<repeat direction="forward"/>			</barline>			<note>				<pitch>					<step>F</step>					<octave>4</octave>				</pitch>				<duration>13440</duration>				<voice>1</voice>				<type>half</type>				<stem default-y="0.00">up</stem>			</note>			<note>				<pitch>					<step>G</step>					<octave>4</octave>				</pitch>				<duration>6720</duration>				<voice>1</voice>				<type>quarter</type>				<stem default-y="5.00">up</stem>			</note>			<note>				<pitch>					<step>A</step>					<octave>4</octave>				</pitch>				<duration>13440</duration>				<voice>1</voice>				<type>half</type>				<stem default-y="10.00">up</stem>			</note>			<note>				<pitch>					<step>G</step>					<octave>4</octave>				</pitch>				<duration>6720</duration>				<voice>1</voice>				<type>quarter</type>				<stem default-y="5.00">up</stem>			</note>		</measure>		<!--==========================[2,6]=============================-->		<measure number="6" width="140">			<note>				<pitch>					<step>F</step>					<octave>4</octave>				</pitch>				<duration>13440</duration>				<voice>1</voice>				<type>half</type>				<stem default-y="0.00">up</stem>			</note>			<note>				<pitch>					<step>F</step>					<octave>4</octave>				</pitch>				<duration>6720</duration>				<voice>1</voice>				<type>quarter</type>				<stem default-y="0.00">up</stem>			</note>			<note>				<pitch>					<step>E</step>					<octave>4</octave>				</pitch>				<duration>6720</duration>				<voice>1</voice>				<type>quarter</type>				<stem default-y="-5.00">up</stem>			</note>			<note>				<pitch>					<step>F</step>					<octave>4</octave>				</pitch>				<duration>13440</duration>				<voice>1</voice>				<type>half</type>				<stem default-y="0.00">up</stem>			</note>		</measure>		<!--==========================[2,7]=============================-->		<measure number="7" width="138">			<note>				<pitch>					<step>A</step>					<octave>4</octave>				</pitch>				<duration>13440</duration>				<voice>1</voice>				<type>half</type>				<stem default-y="10.00">up</stem>			</note>			<note>				<pitch>					<step>F</step>					<octave>4</octave>				</pitch>				<duration>6720</duration>				<voice>1</voice>				<type>quarter</type>				<stem default-y="0.00">up</stem>			</note>			<note>				<pitch>					<step>A</step>					<octave>4</octave>				</pitch>				<duration>13440</duration>				<voice>1</voice>				<type>half</type>				<stem default-y="10.00">up</stem>			</note>			<note>				<pitch>					<step>A</step>					<octave>4</octave>				</pitch>				<duration>3360</duration>				<voice>1</voice>				<type>eighth</type>				<stem default-y="10.00">up</stem>				<beam number="1">begin</beam>			</note>			<note>				<pitch>					<step>G</step>					<octave>4</octave>				</pitch>				<duration>3360</duration>				<voice>1</voice>				<type>eighth</type>				<stem default-y="5.00">up</stem>				<beam number="1">end</beam>			</note>		</measure>		<!--==========================[2,8]=============================-->		<measure number="8" width="136">			<print new-system="yes">				<staff-layout number="1">					<staff-distance>56.000</staff-distance>				</staff-layout>			</print>			<note>				<pitch>					<step>F</step>					<octave>4</octave>				</pitch>				<duration>13440</duration>				<voice>1</voice>				<type>half</type>				<stem default-y="0.00">up</stem>			</note>			<note>				<pitch>					<step>G</step>					<octave>4</octave>				</pitch>				<duration>6720</duration>				<voice>1</voice>				<type>quarter</type>				<stem default-y="5.00">up</stem>			</note>			<note>				<pitch>					<step>A</step>					<octave>4</octave>				</pitch>				<duration>20160</duration>				<voice>1</voice>				<type>half</type>				<dot/>				<stem default-y="10.00">up</stem>			</note>			<note>				<chord/>				<pitch>					<step>C</step>					<octave>4</octave>				</pitch>				<duration>20160</duration>				<voice>1</voice>				<type>half</type>				<dot/>				<stem default-y="-15.00">up</stem>			</note>			<barline location="right">				<repeat direction="backward" times="1"/>			</barline>		</measure>	</part>	<part id="P3">		<!--==========================[3,1]=============================-->		<measure number="1" width="198">			<print>				<staff-layout number="1">					<staff-distance>56.000</staff-distance>				</staff-layout>			</print>			<attributes>				<divisions>6720</divisions>				<key>					<cancel>-6</cancel>					<fifths>-1</fifths>					<mode>major</mode>				</key>				<time>					<beats>6</beats>					<beat-type>4</beat-type>				</time>				<clef number="1">					<sign>G</sign>					<line>2</line>				</clef>				<staff-details number="1" print-object="yes">					<staff-lines>5</staff-lines>					<staff-size>70.00</staff-size>				</staff-details>			</attributes>			<note>				<pitch>					<step>F</step>					<octave>4</octave>				</pitch>				<duration>13440</duration>				<voice>1</voice>				<type>half</type>				<stem default-y="0.00">up</stem>			</note>			<note>				<pitch>					<step>G</step>					<octave>4</octave>				</pitch>				<duration>6720</duration>				<voice>1</voice>				<type>quarter</type>				<stem default-y="5.00">up</stem>			</note>			<note>				<pitch>					<step>A</step>					<octave>4</octave>				</pitch>				<duration>13440</duration>				<voice>1</voice>				<type>half</type>				<stem default-y="10.00">up</stem>			</note>			<note>				<pitch>					<step>G</step>					<octave>4</octave>				</pitch>				<duration>6720</duration>				<voice>1</voice>				<type>quarter</type>				<stem default-y="5.00">up</stem>			</note>		</measure>		<!--==========================[3,2]=============================-->		<measure number="2" width="148">			<note>				<pitch>					<step>C</step>					<octave>5</octave>				</pitch>				<duration>13440</duration>				<voice>1</voice>				<type>half</type>				<stem default-y="-50.00">down</stem>			</note>			<note>				<pitch>					<step>A</step>					<octave>4</octave>				</pitch>				<duration>6720</duration>				<voice>1</voice>				<type>quarter</type>				<stem default-y="10.00">up</stem>			</note>			<note>				<pitch>					<step>G</step>					<octave>4</octave>				</pitch>				<duration>6720</duration>				<voice>1</voice>				<type>quarter</type>				<stem default-y="5.00">up</stem>			</note>			<note>				<pitch>					<step>F</step>					<octave>4</octave>				</pitch>				<duration>13440</duration>				<voice>1</voice>				<type>half</type>				<stem default-y="0.00">up</stem>			</note>		</measure>		<!--==========================[3,3]=============================-->		<measure number="3" width="148">			<note>				<pitch>					<step>C</step>					<octave>5</octave>				</pitch>				<duration>13440</duration>				<voice>1</voice>				<type>half</type>				<stem default-y="-50.00">down</stem>			</note>			<note>				<pitch>					<step>D</step>					<octave>5</octave>				</pitch>				<duration>3360</duration>				<voice>1</voice>				<type>eighth</type>				<stem default-y="-45.00">down</stem>				<beam number="1">begin</beam>			</note>			<note>				<pitch>					<step>E</step>					<octave>5</octave>				</pitch>				<duration>3360</duration>				<voice>1</voice>				<type>eighth</type>				<stem default-y="-40.00">down</stem>				<beam number="1">end</beam>			</note>			<note>				<pitch>					<step>F</step>					<octave>5</octave>				</pitch>				<duration>13440</duration>				<voice>1</voice>				<type>half</type>				<stem default-y="-35.00">down</stem>			</note>			<note>				<pitch>					<step>D</step>					<octave>5</octave>				</pitch>				<duration>6720</duration>				<voice>1</voice>				<type>quarter</type>				<stem default-y="-45.00">down</stem>			</note>		</measure>		<!--==========================[3,4]=============================-->		<measure number="4" width="140">			<note>				<pitch>					<step>C</step>					<octave>5</octave>				</pitch>				<duration>13440</duration>				<voice>1</voice>				<type>half</type>				<stem default-y="-50.00">down</stem>			</note>			<note>				<pitch>					<step>A</step>					<octave>4</octave>				</pitch>				<duration>6720</duration>				<voice>1</voice>				<type>quarter</type>				<stem default-y="10.00">up</stem>			</note>			<note>				<pitch>					<step>G</step>					<octave>4</octave>				</pitch>				<duration>20160</duration>				<voice>1</voice>				<type>half</type>				<dot/>				<stem default-y="5.00">up</stem>			</note>		</measure>		<!--==========================[3,5]=============================-->		<measure number="5" width="148">			<barline location="left">				<repeat direction="forward"/>			</barline>			<note>				<pitch>					<step>C</step>					<octave>5</octave>				</pitch>				<duration>13440</duration>				<voice>1</voice>				<type>half</type>				<stem default-y="-50.00">down</stem>			</note>			<note>				<pitch>					<step>D</step>					<octave>5</octave>				</pitch>				<duration>3360</duration>				<voice>1</voice>				<type>eighth</type>				<stem default-y="-45.00">down</stem>				<beam number="1">begin</beam>			</note>			<note>				<pitch>					<step>E</step>					<octave>5</octave>				</pitch>				<duration>3360</duration>				<voice>1</voice>				<type>eighth</type>				<stem default-y="-40.00">down</stem>				<beam number="1">end</beam>			</note>			<note>				<pitch>					<step>F</step>					<octave>5</octave>				</pitch>				<duration>13440</duration>				<voice>1</voice>				<type>half</type>				<stem default-y="-35.00">down</stem>			</note>			<note>				<pitch>					<step>D</step>					<octave>5</octave>				</pitch>				<duration>6720</duration>				<voice>1</voice>				<type>quarter</type>				<stem default-y="-45.00">down</stem>			</note>		</measure>		<!--==========================[3,6]=============================-->		<measure number="6" width="140">			<note>				<pitch>					<step>C</step>					<octave>5</octave>				</pitch>				<duration>13440</duration>				<voice>1</voice>				<type>half</type>				<stem default-y="-50.00">down</stem>			</note>			<note>				<pitch>					<step>A</step>					<octave>4</octave>				</pitch>				<duration>6720</duration>				<voice>1</voice>				<type>quarter</type>				<stem default-y="10.00">up</stem>			</note>			<note>				<pitch>					<step>G</step>					<octave>4</octave>				</pitch>				<duration>6720</duration>				<voice>1</voice>				<type>quarter</type>				<stem default-y="5.00">up</stem>			</note>			<note>				<pitch>					<step>F</step>					<octave>4</octave>				</pitch>				<duration>13440</duration>				<voice>1</voice>				<type>half</type>				<stem default-y="0.00">up</stem>			</note>		</measure>		<!--==========================[3,7]=============================-->		<measure number="7" width="138">			<note>				<pitch>					<step>F</step>					<octave>4</octave>				</pitch>				<duration>13440</duration>				<voice>1</voice>				<type>half</type>				<stem default-y="0.00">up</stem>			</note>			<note>				<pitch>					<step>A</step>					<octave>4</octave>				</pitch>				<duration>6720</duration>				<voice>1</voice>				<type>quarter</type>				<stem default-y="10.00">up</stem>			</note>			<note>				<pitch>					<step>C</step>					<octave>5</octave>				</pitch>				<duration>13440</duration>				<voice>1</voice>				<type>half</type>				<stem default-y="-50.00">down</stem>			</note>			<note>				<pitch>					<step>D</step>					<octave>5</octave>				</pitch>				<duration>3360</duration>				<voice>1</voice>				<type>eighth</type>				<stem default-y="-45.00">down</stem>				<beam number="1">begin</beam>			</note>			<note>				<pitch>					<step>B</step>					<alter>-1</alter>					<octave>4</octave>				</pitch>				<duration>3360</duration>				<voice>1</voice>				<type>eighth</type>				<stem default-y="-55.00">down</stem>				<beam number="1">end</beam>			</note>		</measure>		<!--==========================[3,8]=============================-->		<measure number="8" width="136">			<print new-system="yes">				<staff-layout number="1">					<staff-distance>56.000</staff-distance>				</staff-layout>			</print>			<note>				<pitch>					<step>A</step>					<octave>4</octave>				</pitch>				<duration>13440</duration>				<voice>1</voice>				<type>half</type>				<stem default-y="10.00">up</stem>			</note>			<note>				<pitch>					<step>G</step>					<octave>4</octave>				</pitch>				<duration>6720</duration>				<voice>1</voice>				<type>quarter</type>				<stem default-y="5.00">up</stem>			</note>			<note>				<pitch>					<step>F</step>					<octave>4</octave>				</pitch>				<duration>20160</duration>				<voice>1</voice>				<type>half</type>				<dot/>				<stem default-y="0.00">up</stem>			</note>			<barline location="right">				<repeat direction="backward" times="1"/>			</barline>		</measure>	</part>	<part id="P4">		<!--==========================[4,1]=============================-->		<measure number="1" width="198">			<print>				<staff-layout number="1">					<staff-distance>56.000</staff-distance>				</staff-layout>			</print>			<attributes>				<divisions>6720</divisions>				<key>					<cancel>-6</cancel>					<fifths>-1</fifths>					<mode>major</mode>				</key>				<time>					<beats>6</beats>					<beat-type>4</beat-type>				</time>				<clef number="1">					<sign>F</sign>					<line>4</line>				</clef>				<staff-details number="1" print-object="yes">					<staff-lines>5</staff-lines>					<staff-size>70.00</staff-size>				</staff-details>			</attributes>			<note>				<pitch>					<step>F</step>					<octave>3</octave>				</pitch>				<duration>13440</duration>				<voice>1</voice>				<type>half</type>				<stem default-y="-45.00">down</stem>			</note>			<note>				<pitch>					<step>G</step>					<octave>3</octave>				</pitch>				<duration>6720</duration>				<voice>1</voice>				<type>quarter</type>				<stem default-y="-40.00">down</stem>			</note>			<note>				<pitch>					<step>F</step>					<octave>3</octave>				</pitch>				<duration>13440</duration>				<voice>1</voice>				<type>half</type>				<stem default-y="-45.00">down</stem>			</note>			<note>				<pitch>					<step>D</step>					<octave>3</octave>				</pitch>				<duration>6720</duration>				<voice>1</voice>				<type>quarter</type>				<stem default-y="-55.00">down</stem>			</note>		</measure>		<!--==========================[4,2]=============================-->		<measure number="2" width="148">			<note>				<pitch>					<step>C</step>					<octave>3</octave>				</pitch>				<duration>13440</duration>				<voice>1</voice>				<type>half</type>				<stem default-y="10.00">up</stem>			</note>			<note>				<pitch>					<step>C</step>					<octave>3</octave>				</pitch>				<duration>6720</duration>				<voice>1</voice>				<type>quarter</type>				<stem default-y="10.00">up</stem>			</note>			<note>				<pitch>					<step>D</step>					<octave>3</octave>				</pitch>				<duration>6720</duration>				<voice>1</voice>				<type>quarter</type>				<stem default-y="-55.00">down</stem>			</note>			<note>				<pitch>					<step>F</step>					<octave>3</octave>				</pitch>				<duration>13440</duration>				<voice>1</voice>				<type>half</type>				<stem default-y="-45.00">down</stem>			</note>		</measure>		<!--==========================[4,3]=============================-->		<measure number="3" width="148">			<note>				<pitch>					<step>A</step>					<octave>3</octave>				</pitch>				<duration>13440</duration>				<voice>1</voice>				<type>half</type>				<stem default-y="-35.00">down</stem>			</note>			<note>				<pitch>					<step>F</step>					<octave>3</octave>				</pitch>				<duration>6720</duration>				<voice>1</voice>				<type>quarter</type>				<stem default-y="-45.00">down</stem>			</note>			<note>				<pitch>					<step>B</step>					<alter>-1</alter>					<octave>3</octave>				</pitch>				<duration>13440</duration>				<voice>1</voice>				<type>half</type>				<stem default-y="-30.00">down</stem>			</note>			<note>				<pitch>					<step>A</step>					<octave>3</octave>				</pitch>				<duration>3360</duration>				<voice>1</voice>				<type>eighth</type>				<stem default-y="-35.00">down</stem>				<beam number="1">begin</beam>			</note>			<note>				<pitch>					<step>G</step>					<octave>3</octave>				</pitch>				<duration>3360</duration>				<voice>1</voice>				<type>eighth</type>				<stem default-y="-40.00">down</stem>				<beam number="1">end</beam>			</note>		</measure>		<!--==========================[4,4]=============================-->		<measure number="4" width="140">			<note>				<pitch>					<step>F</step>					<octave>3</octave>				</pitch>				<duration>13440</duration>				<voice>1</voice>				<type>half</type>				<stem default-y="-45.00">down</stem>			</note>			<note>				<pitch>					<step>F</step>					<octave>3</octave>				</pitch>				<duration>6720</duration>				<voice>1</voice>				<type>quarter</type>				<stem default-y="-45.00">down</stem>			</note>			<note>				<pitch>					<step>C</step>					<octave>3</octave>				</pitch>				<duration>20160</duration>				<voice>1</voice>				<type>half</type>				<dot/>				<stem default-y="10.00">up</stem>			</note>		</measure>		<!--==========================[4,5]=============================-->		<measure number="5" width="148">			<barline location="left">				<repeat direction="forward"/>			</barline>			<note>				<pitch>					<step>A</step>					<octave>3</octave>				</pitch>				<duration>13440</duration>				<voice>1</voice>				<type>half</type>				<stem default-y="-35.00">down</stem>			</note>			<note>				<pitch>					<step>B</step>					<alter>-1</alter>					<octave>3</octave>				</pitch>				<duration>6720</duration>				<voice>1</voice>				<type>quarter</type>				<stem default-y="-30.00">down</stem>			</note>			<note>				<pitch>					<step>A</step>					<octave>3</octave>				</pitch>				<duration>13440</duration>				<voice>1</voice>				<type>half</type>				<stem default-y="-35.00">down</stem>			</note>			<note>				<pitch>					<step>G</step>					<octave>3</octave>				</pitch>				<duration>6720</duration>				<voice>1</voice>				<type>quarter</type>				<stem default-y="-40.00">down</stem>			</note>		</measure>		<!--==========================[4,6]=============================-->		<measure number="6" width="140">			<note>				<pitch>					<step>F</step>					<octave>3</octave>				</pitch>				<duration>13440</duration>				<voice>1</voice>				<type>half</type>				<stem default-y="-45.00">down</stem>			</note>			<note>				<pitch>					<step>C</step>					<octave>3</octave>				</pitch>				<duration>6720</duration>				<voice>1</voice>				<type>quarter</type>				<stem default-y="10.00">up</stem>			</note>			<note>				<pitch>					<step>D</step>					<octave>3</octave>				</pitch>				<duration>6720</duration>				<voice>1</voice>				<type>quarter</type>				<stem default-y="-55.00">down</stem>			</note>			<note>				<pitch>					<step>F</step>					<octave>3</octave>				</pitch>				<duration>13440</duration>				<voice>1</voice>				<type>half</type>				<stem default-y="-45.00">down</stem>			</note>		</measure>		<!--==========================[4,7]=============================-->		<measure number="7" width="138">			<note>				<pitch>					<step>F</step>					<octave>3</octave>				</pitch>				<duration>13440</duration>				<voice>1</voice>				<type>half</type>				<stem default-y="-45.00">down</stem>			</note>			<note>				<pitch>					<step>B</step>					<alter>-1</alter>					<octave>2</octave>				</pitch>				<duration>6720</duration>				<voice>1</voice>				<type>quarter</type>				<stem default-y="5.00">up</stem>			</note>			<note>				<pitch>					<step>C</step>					<octave>3</octave>				</pitch>				<duration>13440</duration>				<voice>1</voice>				<type>half</type>				<stem default-y="10.00">up</stem>			</note>			<note>				<pitch>					<step>D</step>					<octave>3</octave>				</pitch>				<duration>6720</duration>				<voice>1</voice>				<type>quarter</type>				<stem default-y="-55.00">down</stem>			</note>		</measure>		<!--==========================[4,8]=============================-->		<measure number="8" width="136">			<print new-system="yes">				<staff-layout number="1">					<staff-distance>56.000</staff-distance>				</staff-layout>			</print>			<note>				<pitch>					<step>C</step>					<octave>3</octave>				</pitch>				<duration>13440</duration>				<voice>1</voice>				<type>half</type>				<stem default-y="10.00">up</stem>			</note>			<note>				<pitch>					<step>C</step>					<octave>3</octave>				</pitch>				<duration>6720</duration>				<voice>1</voice>				<type>quarter</type>				<stem default-y="10.00">up</stem>			</note>			<note>				<pitch>					<step>F</step>					<octave>3</octave>				</pitch>				<duration>20160</duration>				<voice>1</voice>				<type>half</type>				<dot/>				<stem default-y="-45.00">down</stem>			</note>			<barline location="right">				<repeat direction="backward" times="1"/>			</barline>		</measure>	</part></score-partwise>