<?xml version="1.0" encoding="UTF-8" standalone="no"?><!DOCTYPE score-partwise PUBLIC "-//Recordare//DTD MusicXML 1.1 Partwise//EN" "http://www.musicxml.org/dtds/partwise.dtd"><score-partwise>	<work>		<work-title>MY HOME, 560</work-title>	</work>	<identification>		<creator type="composer">H. R. Avery, 1959            </creator>		<creator type="poet">Remarks</creator>		<encoding>			<software>Harmony Assistant v9.6.2m (c) Myriad - http://www.myriad-online.com</software>			<?PDFtoMusic Document type 0000- 58482395?>		</encoding>	</identification>	<defaults>		<scaling>			<millimeters>8.466666</millimeters>			<tenths>40</tenths>		</scaling>		<page-layout>			<page-height>1403.333</page-height>			<page-width>991.667</page-width>			<page-margins type="both">				<left-margin>30.000</left-margin>				<right-margin>30.000</right-margin>				<top-margin>30.000</top-margin>				 <bottom-margin>68.333</bottom-margin>			</page-margins>		</page-layout>	</defaults>	<credit>		<credit-words  default-x="432.500" default-y="1332.500" justify="left" valign="top" font-family="Times New Roman" font-size="11" font-weight="bold" font-style="normal">MY HOME, 560</credit-words>	</credit>	<credit>		<credit-words  default-x="748.667" default-y="1285.833" justify="left" valign="top" font-family="Times New Roman" font-size="10" font-weight="bold" font-style="normal">H. R. Avery, 1959            </credit-words>	</credit>	<credit>		<credit-words  default-x="76.667" default-y="1285.833" justify="left" valign="top" font-family="Arial" font-size="8" font-weight="normal" font-style="normal">Remarks</credit-words>	</credit>	<part-list>		<part-group type="start" number="1">			<group-name font-family="Times" font-size="12" font-weight="normal" font-style="normal"></group-name>			<group-abbreviation font-family="Times" font-size="12" font-weight="normal" font-style="normal"></group-abbreviation>			<group-symbol default-x="-2.33">bracket</group-symbol>			<group-barline>no</group-barline>		</part-group>		<score-part id="P1">			<part-name font-family="Arial" font-size="10" font-weight="normal" font-style="normal">Treble</part-name>			<part-abbreviation font-family="Arial" font-size="10" font-weight="normal" font-style="normal"></part-abbreviation>			<score-instrument id="P1-I1">				<instrument-name>Alto</instrument-name>			</score-instrument>			<midi-instrument id="P1-I1">				<midi-channel>0</midi-channel>				<midi-bank>1</midi-bank>				<midi-program>1</midi-program>				<?Myriad				<midi-volume>64</midi-volume>				?>				<?Myriad				<midi-panning>0</midi-panning>				?>			</midi-instrument>		</score-part>		<score-part id="P2">			<part-name font-family="Arial" font-size="10" font-weight="normal" font-style="normal">Alto</part-name>			<part-abbreviation font-family="Arial" font-size="10" font-weight="normal" font-style="normal"></part-abbreviation>			<score-instrument id="P2-I1">				<instrument-name>Alto 2</instrument-name>			</score-instrument>			<midi-instrument id="P2-I1">				<midi-channel>2</midi-channel>				<midi-bank>1</midi-bank>				<midi-program>1</midi-program>				<?Myriad				<midi-volume>127</midi-volume>				?>				<?Myriad				<midi-panning>0</midi-panning>				?>			</midi-instrument>		</score-part>		<score-part id="P3">			<part-name font-family="Arial" font-size="10" font-weight="normal" font-style="normal">Tenor</part-name>			<part-abbreviation font-family="Arial" font-size="10" font-weight="normal" font-style="normal"></part-abbreviation>			<score-instrument id="P3-I1">				<instrument-name>Bass 1</instrument-name>			</score-instrument>			<midi-instrument id="P3-I1">				<midi-channel>3</midi-channel>				<midi-bank>1</midi-bank>				<midi-program>1</midi-program>				<?Myriad				<midi-volume>127</midi-volume>				?>				<?Myriad				<midi-panning>0</midi-panning>				?>			</midi-instrument>		</score-part>		<score-part id="P4">			<part-name font-family="Arial" font-size="10" font-weight="normal" font-style="normal">Bass</part-name>			<part-abbreviation font-family="Arial" font-size="10" font-weight="normal" font-style="normal"></part-abbreviation>			<score-instrument id="P4-I1">				<instrument-name>Bass</instrument-name>			</score-instrument>			<midi-instrument id="P4-I1">				<midi-channel>1</midi-channel>				<midi-bank>1</midi-bank>				<midi-program>1</midi-program>				<?Myriad				<midi-volume>120</midi-volume>				?>				<?Myriad				<midi-panning>1</midi-panning>				?>			</midi-instrument>		</score-part>		<part-group type="stop" number="1"/>	</part-list>	<part id="P1">		<!--==========================[1,1]=============================-->		<measure number="1" width="211">			<print>				<system-layout>					<system-margins>						<left-margin>70.000</left-margin>						<right-margin>46.667</right-margin>					</system-margins>					<top-system-distance>261.333</top-system-distance>				</system-layout>			</print>			<attributes>				<divisions>6720</divisions>				<key>					<cancel>-6</cancel>					<fifths>-1</fifths>					<mode>major</mode>				</key>				<time>					<beats>4</beats>					<beat-type>4</beat-type>				</time>				<clef number="1">					<sign>G</sign>					<line>2</line>				</clef>				<staff-details number="1" print-object="yes">					<staff-lines>5</staff-lines>					<staff-size>70.00</staff-size>				</staff-details>			</attributes>			<note>				<rest>				</rest>				<duration>13440</duration>				<voice>1</voice>				<type>half</type>			</note>			<note>				<pitch>					<step>A</step>					<octave>4</octave>				</pitch>				<duration>10080</duration>				<voice>1</voice>				<type>quarter</type>				<dot/>				<stem default-y="10.00">up</stem>			</note>			<note>				<pitch>					<step>B</step>					<alter>-1</alter>					<octave>4</octave>				</pitch>				<duration>3360</duration>				<voice>1</voice>				<type>eighth</type>				<stem default-y="15.00">up</stem>			</note>		</measure>		<!--==========================[1,2]=============================-->		<measure number="2" width="186">			<note>				<pitch>					<step>C</step>					<octave>5</octave>				</pitch>				<duration>6720</duration>				<voice>1</voice>				<type>quarter</type>				<stem default-y="-50.00">down</stem>			</note>			<note>				<pitch>					<step>C</step>					<octave>5</octave>				</pitch>				<duration>3360</duration>				<voice>1</voice>				<type>eighth</type>				<stem default-y="-50.00">down</stem>				<beam number="1">begin</beam>			</note>			<note>				<pitch>					<step>D</step>					<octave>5</octave>				</pitch>				<duration>3360</duration>				<voice>1</voice>				<type>eighth</type>				<stem default-y="-45.00">down</stem>				<beam number="1">end</beam>			</note>			<note>				<pitch>					<step>F</step>					<octave>5</octave>				</pitch>				<duration>6720</duration>				<voice>1</voice>				<type>quarter</type>				<stem default-y="-35.00">down</stem>			</note>			<note>				<pitch>					<step>C</step>					<octave>5</octave>				</pitch>				<duration>6720</duration>				<voice>1</voice>				<type>quarter</type>				<stem default-y="-50.00">down</stem>			</note>		</measure>		<!--==========================[1,3]=============================-->		<measure number="3" width="138">			<note>				<pitch>					<step>C</step>					<octave>5</octave>				</pitch>				<duration>20160</duration>				<voice>1</voice>				<type>half</type>				<dot/>				<stem default-y="-50.00">down</stem>			</note>			<note>				<pitch>					<step>C</step>					<octave>5</octave>				</pitch>				<duration>3360</duration>				<voice>1</voice>				<type>eighth</type>				<stem default-y="-50.00">down</stem>			</note>			<note>				<pitch>					<step>B</step>					<alter>-1</alter>					<octave>4</octave>				</pitch>				<duration>3360</duration>				<voice>1</voice>				<type>eighth</type>				<stem default-y="15.00">up</stem>			</note>		</measure>		<!--==========================[1,4]=============================-->		<measure number="4" width="186">			<note>				<pitch>					<step>A</step>					<octave>4</octave>				</pitch>				<duration>6720</duration>				<voice>1</voice>				<type>quarter</type>				<stem default-y="10.00">up</stem>			</note>			<note>				<pitch>					<step>A</step>					<octave>4</octave>				</pitch>				<duration>3360</duration>				<voice>1</voice>				<type>eighth</type>				<stem default-y="10.00">up</stem>				<beam number="1">begin</beam>			</note>			<note>				<pitch>					<step>B</step>					<alter>-1</alter>					<octave>4</octave>				</pitch>				<duration>3360</duration>				<voice>1</voice>				<type>eighth</type>				<stem default-y="15.00">up</stem>				<beam number="1">end</beam>			</note>			<note>				<pitch>					<step>C</step>					<octave>5</octave>				</pitch>				<duration>6720</duration>				<voice>1</voice>				<type>quarter</type>				<stem default-y="-50.00">down</stem>			</note>			<note>				<pitch>					<step>C</step>					<octave>5</octave>				</pitch>				<duration>6720</duration>				<voice>1</voice>				<type>quarter</type>				<stem default-y="-50.00">down</stem>			</note>		</measure>		<!--==========================[1,5]=============================-->		<measure number="5" width="115">			<note>				<pitch>					<step>F</step>					<octave>5</octave>				</pitch>				<duration>20160</duration>				<voice>1</voice>				<type>half</type>				<dot/>				<stem default-y="-35.00">down</stem>			</note>			<note>				<pitch>					<step>F</step>					<octave>5</octave>				</pitch>				<duration>6720</duration>				<voice>1</voice>				<type>quarter</type>				<stem default-y="-35.00">down</stem>			</note>		</measure>		<!--==========================[1,6]=============================-->		<measure number="6" width="186">			<note>				<pitch>					<step>C</step>					<octave>5</octave>				</pitch>				<duration>6720</duration>				<voice>1</voice>				<type>quarter</type>				<stem default-y="-50.00">down</stem>			</note>			<note>				<pitch>					<step>C</step>					<octave>5</octave>				</pitch>				<duration>3360</duration>				<voice>1</voice>				<type>eighth</type>				<stem default-y="-50.00">down</stem>				<beam number="1">begin</beam>			</note>			<note>				<pitch>					<step>B</step>					<alter>-1</alter>					<octave>4</octave>				</pitch>				<duration>3360</duration>				<voice>1</voice>				<type>eighth</type>				<stem default-y="-55.00">down</stem>				<beam number="1">end</beam>			</note>			<note>				<pitch>					<step>A</step>					<octave>4</octave>				</pitch>				<duration>6720</duration>				<voice>1</voice>				<type>quarter</type>				<stem default-y="10.00">up</stem>			</note>			<note>				<pitch>					<step>C</step>					<octave>5</octave>				</pitch>				<duration>6720</duration>				<voice>1</voice>				<type>quarter</type>				<stem default-y="-50.00">down</stem>			</note>		</measure>		<!--==========================[1,7]=============================-->		<measure number="7" width="186">			<print new-system="yes">				<system-layout>					<system-margins>						<left-margin>46.667</left-margin>						<right-margin>46.667</right-margin>					</system-margins>					<system-distance>200.667</system-distance>				</system-layout>			</print>			<note>				<pitch>					<step>F</step>					<octave>5</octave>				</pitch>				<duration>3360</duration>				<voice>1</voice>				<type>eighth</type>				<stem default-y="-35.00">down</stem>				<beam number="1">begin</beam>			</note>			<note>				<pitch>					<step>E</step>					<octave>5</octave>				</pitch>				<duration>3360</duration>				<voice>1</voice>				<type>eighth</type>				<stem default-y="-40.00">down</stem>				<beam number="1">end</beam>			</note>			<note>				<pitch>					<step>F</step>					<octave>5</octave>				</pitch>				<duration>3360</duration>				<voice>1</voice>				<type>eighth</type>				<stem default-y="-35.00">down</stem>				<beam number="1">begin</beam>			</note>			<note>				<pitch>					<step>D</step>					<octave>5</octave>				</pitch>				<duration>3360</duration>				<voice>1</voice>				<type>eighth</type>				<stem default-y="-45.00">down</stem>				<beam number="1">end</beam>			</note>			<note>				<pitch>					<step>C</step>					<octave>5</octave>				</pitch>				<duration>6720</duration>				<voice>1</voice>				<type>quarter</type>				<stem default-y="-50.00">down</stem>			</note>			<note>				<pitch>					<step>A</step>					<octave>4</octave>				</pitch>				<duration>3360</duration>				<voice>1</voice>				<type>eighth</type>				<stem default-y="10.00">up</stem>				<beam number="1">begin</beam>			</note>			<note>				<pitch>					<step>B</step>					<alter>-1</alter>					<octave>4</octave>				</pitch>				<duration>3360</duration>				<voice>1</voice>				<type>eighth</type>				<stem default-y="15.00">up</stem>				<beam number="1">end</beam>			</note>		</measure>		<!--==========================[1,8]=============================-->		<measure number="8" width="186">			<note>				<pitch>					<step>C</step>					<octave>5</octave>				</pitch>				<duration>6720</duration>				<voice>1</voice>				<type>quarter</type>				<stem default-y="-50.00">down</stem>			</note>			<note>				<pitch>					<step>C</step>					<octave>5</octave>				</pitch>				<duration>6720</duration>				<voice>1</voice>				<type>quarter</type>				<stem default-y="-50.00">down</stem>			</note>			<note>				<pitch>					<step>A</step>					<octave>4</octave>				</pitch>				<duration>6720</duration>				<voice>1</voice>				<type>quarter</type>				<stem default-y="10.00">up</stem>			</note>			<note>				<pitch>					<step>C</step>					<octave>5</octave>				</pitch>				<duration>6720</duration>				<voice>1</voice>				<type>quarter</type>				<stem default-y="-50.00">down</stem>			</note>		</measure>		<!--==========================[1,9]=============================-->		<measure number="9" width="118">			<note>				<pitch>					<step>C</step>					<octave>5</octave>				</pitch>				<duration>20160</duration>				<voice>1</voice>				<type>half</type>				<dot/>				<stem default-y="-50.00">down</stem>			</note>			<note>				<pitch>					<step>C</step>					<octave>5</octave>				</pitch>				<duration>6720</duration>				<voice>1</voice>				<type>quarter</type>				<stem default-y="-50.00">down</stem>			</note>		</measure>		<!--==========================[1,10]=============================-->		<measure number="10" width="88">			<note>				<pitch>					<step>D</step>					<octave>5</octave>				</pitch>				<duration>20160</duration>				<voice>1</voice>				<type>half</type>				<dot/>				<stem default-y="-45.00">down</stem>			</note>			<note>				<pitch>					<step>F</step>					<octave>5</octave>				</pitch>				<duration>6720</duration>				<voice>1</voice>				<type>quarter</type>				<stem default-y="-35.00">down</stem>			</note>		</measure>		<!--==========================[1,11]=============================-->		<measure number="11" width="106">			<note>				<pitch>					<step>F</step>					<octave>5</octave>				</pitch>				<duration>20160</duration>				<voice>1</voice>				<type>half</type>				<dot/>				<stem default-y="-35.00">down</stem>			</note>			<note>				<pitch>					<step>F</step>					<octave>5</octave>				</pitch>				<duration>6720</duration>				<voice>1</voice>				<type>quarter</type>				<stem default-y="-35.00">down</stem>			</note>		</measure>		<!--==========================[1,12]=============================-->		<measure number="12" width="186">			<note>				<pitch>					<step>C</step>					<octave>5</octave>				</pitch>				<duration>6720</duration>				<voice>1</voice>				<type>quarter</type>				<stem default-y="-50.00">down</stem>			</note>			<note>				<pitch>					<step>C</step>					<octave>5</octave>				</pitch>				<duration>6720</duration>				<voice>1</voice>				<type>quarter</type>				<stem default-y="-50.00">down</stem>			</note>			<note>				<pitch>					<step>D</step>					<octave>5</octave>				</pitch>				<duration>6720</duration>				<voice>1</voice>				<type>quarter</type>				<stem default-y="-45.00">down</stem>			</note>			<note>				<pitch>					<step>C</step>					<octave>5</octave>				</pitch>				<duration>6720</duration>				<voice>1</voice>				<type>quarter</type>				<stem default-y="-50.00">down</stem>			</note>		</measure>		<!--==========================[1,13]=============================-->		<measure number="13" width="80">			<note>				<pitch>					<step>C</step>					<octave>5</octave>				</pitch>				<duration>20160</duration>				<voice>1</voice>				<type>half</type>				<dot/>				<stem default-y="-50.00">down</stem>			</note>		</measure>		<!--==========================[1,14]=============================-->		<measure number="14" width="66">			<barline location="left">				<repeat direction="forward"/>			</barline>			<note>				<rest>					<display-step>F</display-step>					<display-octave>4</display-octave>				</rest>				<duration>6720</duration>				<voice>1</voice>				<type>quarter</type>			</note>		</measure>		<!--==========================[1,15]=============================-->		<measure number="15" width="186">			<print new-page="yes">				<system-layout>					<system-margins>						<left-margin>46.667</left-margin>						<right-margin>46.667</right-margin>					</system-margins>					<top-system-distance>218.167</top-system-distance>				</system-layout>			</print>			<note>				<rest>				</rest>				<duration>20160</duration>				<voice>1</voice>				<type>half</type>				<dot/>			</note>			<note>				<pitch>					<step>C</step>					<octave>5</octave>				</pitch>				<duration>6720</duration>				<voice>1</voice>				<type>quarter</type>				<stem default-y="-50.00">down</stem>			</note>		</measure>		<!--==========================[1,16]=============================-->		<measure number="16" width="186">			<note>				<pitch>					<step>A</step>					<octave>4</octave>				</pitch>				<duration>6720</duration>				<voice>1</voice>				<type>quarter</type>				<stem default-y="10.00">up</stem>			</note>			<note>				<pitch>					<step>A</step>					<octave>4</octave>				</pitch>				<duration>3360</duration>				<voice>1</voice>				<type>eighth</type>				<stem default-y="10.00">up</stem>				<beam number="1">begin</beam>			</note>			<note>				<pitch>					<step>B</step>					<alter>-1</alter>					<octave>4</octave>				</pitch>				<duration>3360</duration>				<voice>1</voice>				<type>eighth</type>				<stem default-y="15.00">up</stem>				<beam number="1">end</beam>			</note>			<note>				<pitch>					<step>C</step>					<octave>5</octave>				</pitch>				<duration>6720</duration>				<voice>1</voice>				<type>quarter</type>				<stem default-y="-50.00">down</stem>			</note>			<note>				<pitch>					<step>C</step>					<octave>5</octave>				</pitch>				<duration>6720</duration>				<voice>1</voice>				<type>quarter</type>				<stem default-y="-50.00">down</stem>			</note>		</measure>		<!--==========================[1,17]=============================-->		<measure number="17" width="186">			<note>				<pitch>					<step>F</step>					<octave>5</octave>				</pitch>				<duration>6720</duration>				<voice>1</voice>				<type>quarter</type>				<stem default-y="-35.00">down</stem>			</note>			<note>				<pitch>					<step>C</step>					<octave>5</octave>				</pitch>				<duration>6720</duration>				<voice>1</voice>				<type>quarter</type>				<stem default-y="-50.00">down</stem>			</note>			<note>				<pitch>					<step>A</step>					<octave>4</octave>				</pitch>				<duration>6720</duration>				<voice>1</voice>				<type>quarter</type>				<stem default-y="10.00">up</stem>			</note>			<note>				<pitch>					<step>A</step>					<octave>4</octave>				</pitch>				<duration>3360</duration>				<voice>1</voice>				<type>eighth</type>				<stem default-y="10.00">up</stem>				<beam number="1">begin</beam>			</note>			<note>				<pitch>					<step>B</step>					<alter>-1</alter>					<octave>4</octave>				</pitch>				<duration>3360</duration>				<voice>1</voice>				<type>eighth</type>				<stem default-y="15.00">up</stem>				<beam number="1">end</beam>			</note>		</measure>		<!--==========================[1,18]=============================-->		<measure number="18" width="103">			<note>				<pitch>					<step>C</step>					<octave>5</octave>				</pitch>				<duration>20160</duration>				<voice>1</voice>				<type>half</type>				<dot/>				<stem default-y="-50.00">down</stem>			</note>			<note>				<pitch>					<step>A</step>					<octave>4</octave>				</pitch>				<duration>6720</duration>				<voice>1</voice>				<type>quarter</type>				<stem default-y="10.00">up</stem>			</note>		</measure>		<!--==========================[1,19]=============================-->		<measure number="19" width="186">			<note>				<pitch>					<step>C</step>					<octave>5</octave>				</pitch>				<duration>6720</duration>				<voice>1</voice>				<type>quarter</type>				<stem default-y="-50.00">down</stem>			</note>			<note>				<pitch>					<step>C</step>					<octave>5</octave>				</pitch>				<duration>6720</duration>				<voice>1</voice>				<type>quarter</type>				<stem default-y="-50.00">down</stem>			</note>			<note>				<pitch>					<step>A</step>					<octave>4</octave>				</pitch>				<duration>6720</duration>				<voice>1</voice>				<type>quarter</type>				<stem default-y="10.00">up</stem>			</note>			<note>				<pitch>					<step>F</step>					<octave>5</octave>				</pitch>				<duration>6720</duration>				<voice>1</voice>				<type>quarter</type>				<stem default-y="-35.00">down</stem>			</note>		</measure>		<!--==========================[1,20]=============================-->		<measure number="20" width="100">			<note>				<pitch>					<step>F</step>					<octave>5</octave>				</pitch>				<duration>20160</duration>				<voice>1</voice>				<type>half</type>				<dot/>				<stem default-y="-35.00">down</stem>			</note>			<note>				<pitch>					<step>F</step>					<octave>5</octave>				</pitch>				<duration>6720</duration>				<voice>1</voice>				<type>quarter</type>				<stem default-y="-35.00">down</stem>			</note>		</measure>		<!--==========================[1,21]=============================-->		<measure number="21" width="186">			<note>				<pitch>					<step>C</step>					<octave>5</octave>				</pitch>				<duration>6720</duration>				<voice>1</voice>				<type>quarter</type>				<stem default-y="-50.00">down</stem>			</note>			<note>				<pitch>					<step>C</step>					<octave>5</octave>				</pitch>				<duration>6720</duration>				<voice>1</voice>				<type>quarter</type>				<stem default-y="-50.00">down</stem>			</note>			<note>				<pitch>					<step>F</step>					<octave>5</octave>				</pitch>				<duration>6720</duration>				<voice>1</voice>				<type>quarter</type>				<stem default-y="-35.00">down</stem>			</note>			<note>				<pitch>					<step>F</step>					<octave>5</octave>				</pitch>				<duration>6720</duration>				<voice>1</voice>				<type>quarter</type>				<stem default-y="-35.00">down</stem>			</note>		</measure>		<!--==========================[1,22]=============================-->		<measure number="22" width="186">			<print new-system="yes">				<system-layout>					<system-margins>						<left-margin>46.667</left-margin>						<right-margin>46.667</right-margin>					</system-margins>					<system-distance>221.667</system-distance>				</system-layout>			</print>			<note>				<pitch>					<step>C</step>					<octave>5</octave>				</pitch>				<duration>6720</duration>				<voice>1</voice>				<type>quarter</type>				<stem default-y="-50.00">down</stem>			</note>			<note>				<pitch>					<step>C</step>					<octave>5</octave>				</pitch>				<duration>6720</duration>				<voice>1</voice>				<type>quarter</type>				<stem default-y="-50.00">down</stem>			</note>			<note>				<pitch>					<step>D</step>					<octave>5</octave>				</pitch>				<duration>6720</duration>				<voice>1</voice>				<type>quarter</type>				<stem default-y="-45.00">down</stem>			</note>			<note>				<pitch>					<step>F</step>					<octave>5</octave>				</pitch>				<duration>3360</duration>				<voice>1</voice>				<type>eighth</type>				<stem default-y="-35.00">down</stem>				<beam number="1">begin</beam>			</note>			<note>				<pitch>					<step>D</step>					<octave>5</octave>				</pitch>				<duration>3360</duration>				<voice>1</voice>				<type>eighth</type>				<stem default-y="-45.00">down</stem>				<beam number="1">end</beam>			</note>		</measure>		<!--==========================[1,23]=============================-->		<measure number="23" width="186">			<note>				<pitch>					<step>F</step>					<octave>5</octave>				</pitch>				<duration>6720</duration>				<voice>1</voice>				<type>quarter</type>				<stem default-y="-35.00">down</stem>			</note>			<note>				<pitch>					<step>C</step>					<octave>5</octave>				</pitch>				<duration>6720</duration>				<voice>1</voice>				<type>quarter</type>				<stem default-y="-50.00">down</stem>			</note>			<note>				<pitch>					<step>D</step>					<octave>5</octave>				</pitch>				<duration>6720</duration>				<voice>1</voice>				<type>quarter</type>				<stem default-y="-45.00">down</stem>			</note>			<note>				<pitch>					<step>C</step>					<octave>5</octave>				</pitch>				<duration>6720</duration>				<voice>1</voice>				<type>quarter</type>				<stem default-y="-50.00">down</stem>			</note>		</measure>		<!--==========================[1,24]=============================-->		<measure number="24" width="80">			<barline location="left">				<ending type="start" number="1"/>			</barline>			<note>				<pitch>					<step>C</step>					<octave>5</octave>				</pitch>				<duration>20160</duration>				<voice>1</voice>				<type>half</type>				<dot/>				<stem default-y="-50.00">down</stem>			</note>			<barline location="right">				<ending type="discontinue" number="1"/>				<repeat direction="backward" times="0"/>			</barline>		</measure>		<!--==========================[1,25]=============================-->		<measure number="25" width="80">			<barline location="left">				<ending type="start" number="2"/>			</barline>			<note>				<pitch>					<step>C</step>					<octave>5</octave>				</pitch>				<duration>26880</duration>				<voice>1</voice>				<type>whole</type>				<stem>none</stem>			</note>			<barline location="right">				<bar-style>light-heavy</bar-style>				<ending type="discontinue" number="2"/>			</barline>		</measure>	</part>	<part id="P2">		<!--==========================[2,1]=============================-->		<measure number="1" width="211">			<print>				<staff-layout number="1">					<staff-distance>67.667</staff-distance>				</staff-layout>			</print>			<attributes>				<divisions>6720</divisions>				<key>					<cancel>-6</cancel>					<fifths>-1</fifths>					<mode>major</mode>				</key>				<time>					<beats>4</beats>					<beat-type>4</beat-type>				</time>				<clef number="1">					<sign>G</sign>					<line>2</line>				</clef>				<staff-details number="1" print-object="yes">					<staff-lines>5</staff-lines>					<staff-size>70.00</staff-size>				</staff-details>			</attributes>			<note>				<rest>				</rest>				<duration>13440</duration>				<voice>1</voice>				<type>half</type>			</note>			<note>				<pitch>					<step>F</step>					<octave>4</octave>				</pitch>				<duration>10080</duration>				<voice>1</voice>				<type>quarter</type>				<dot/>				<stem default-y="0.00">up</stem>			</note>			<note>				<pitch>					<step>G</step>					<octave>4</octave>				</pitch>				<duration>3360</duration>				<voice>1</voice>				<type>eighth</type>				<stem default-y="5.00">up</stem>			</note>		</measure>		<!--==========================[2,2]=============================-->		<measure number="2" width="186">			<note>				<pitch>					<step>A</step>					<octave>4</octave>				</pitch>				<duration>6720</duration>				<voice>1</voice>				<type>quarter</type>				<stem default-y="10.00">up</stem>			</note>			<note>				<pitch>					<step>A</step>					<octave>4</octave>				</pitch>				<duration>6720</duration>				<voice>1</voice>				<type>quarter</type>				<stem default-y="10.00">up</stem>			</note>			<note>				<pitch>					<step>F</step>					<octave>4</octave>				</pitch>				<duration>6720</duration>				<voice>1</voice>				<type>quarter</type>				<stem default-y="0.00">up</stem>			</note>			<note>				<pitch>					<step>G</step>					<octave>4</octave>				</pitch>				<duration>6720</duration>				<voice>1</voice>				<type>quarter</type>				<stem default-y="5.00">up</stem>			</note>		</measure>		<!--==========================[2,3]=============================-->		<measure number="3" width="138">			<note>				<pitch>					<step>A</step>					<octave>4</octave>				</pitch>				<duration>20160</duration>				<voice>1</voice>				<type>half</type>				<dot/>				<stem default-y="10.00">up</stem>			</note>			<note>				<pitch>					<step>F</step>					<octave>4</octave>				</pitch>				<duration>3360</duration>				<voice>1</voice>				<type>eighth</type>				<stem default-y="0.00">up</stem>			</note>			<note>				<pitch>					<step>G</step>					<octave>4</octave>				</pitch>				<duration>3360</duration>				<voice>1</voice>				<type>eighth</type>				<stem default-y="5.00">up</stem>			</note>		</measure>		<!--==========================[2,4]=============================-->		<measure number="4" width="186">			<note>				<pitch>					<step>A</step>					<octave>4</octave>				</pitch>				<duration>6720</duration>				<voice>1</voice>				<type>quarter</type>				<stem default-y="10.00">up</stem>			</note>			<note>				<pitch>					<step>A</step>					<octave>4</octave>				</pitch>				<duration>3360</duration>				<voice>1</voice>				<type>eighth</type>				<stem default-y="10.00">up</stem>				<beam number="1">begin</beam>			</note>			<note>				<pitch>					<step>G</step>					<octave>4</octave>				</pitch>				<duration>3360</duration>				<voice>1</voice>				<type>eighth</type>				<stem default-y="5.00">up</stem>				<beam number="1">end</beam>			</note>			<note>				<pitch>					<step>F</step>					<octave>4</octave>				</pitch>				<duration>6720</duration>				<voice>1</voice>				<type>quarter</type>				<stem default-y="0.00">up</stem>			</note>			<note>				<pitch>					<step>F</step>					<octave>4</octave>				</pitch>				<duration>6720</duration>				<voice>1</voice>				<type>quarter</type>				<stem default-y="0.00">up</stem>			</note>		</measure>		<!--==========================[2,5]=============================-->		<measure number="5" width="115">			<note>				<pitch>					<step>A</step>					<octave>4</octave>				</pitch>				<duration>20160</duration>				<voice>1</voice>				<type>half</type>				<dot/>				<stem default-y="10.00">up</stem>			</note>			<note>				<pitch>					<step>F</step>					<octave>4</octave>				</pitch>				<duration>6720</duration>				<voice>1</voice>				<type>quarter</type>				<stem default-y="0.00">up</stem>			</note>		</measure>		<!--==========================[2,6]=============================-->		<measure number="6" width="186">			<note>				<pitch>					<step>A</step>					<octave>4</octave>				</pitch>				<duration>6720</duration>				<voice>1</voice>				<type>quarter</type>				<stem default-y="10.00">up</stem>			</note>			<note>				<pitch>					<step>A</step>					<octave>4</octave>				</pitch>				<duration>6720</duration>				<voice>1</voice>				<type>quarter</type>				<stem default-y="10.00">up</stem>			</note>			<note>				<pitch>					<step>F</step>					<octave>4</octave>				</pitch>				<duration>6720</duration>				<voice>1</voice>				<type>quarter</type>				<stem default-y="0.00">up</stem>			</note>			<note>				<pitch>					<step>A</step>					<octave>4</octave>				</pitch>				<duration>6720</duration>				<voice>1</voice>				<type>quarter</type>				<stem default-y="10.00">up</stem>			</note>		</measure>		<!--==========================[2,7]=============================-->		<measure number="7" width="186">			<print new-system="yes">				<staff-layout number="1">					<staff-distance>67.667</staff-distance>				</staff-layout>			</print>			<note>				<pitch>					<step>A</step>					<octave>4</octave>				</pitch>				<duration>3360</duration>				<voice>1</voice>				<type>eighth</type>				<stem default-y="10.00">up</stem>				<beam number="1">begin</beam>			</note>			<note>				<pitch>					<step>G</step>					<octave>4</octave>				</pitch>				<duration>3360</duration>				<voice>1</voice>				<type>eighth</type>				<stem default-y="5.00">up</stem>				<beam number="1">end</beam>			</note>			<note>				<pitch>					<step>F</step>					<octave>4</octave>				</pitch>				<duration>3360</duration>				<voice>1</voice>				<type>eighth</type>				<stem default-y="0.00">up</stem>				<beam number="1">begin</beam>			</note>			<note>				<pitch>					<step>G</step>					<octave>4</octave>				</pitch>				<duration>3360</duration>				<voice>1</voice>				<type>eighth</type>				<stem default-y="5.00">up</stem>				<beam number="1">end</beam>			</note>			<note>				<pitch>					<step>A</step>					<octave>4</octave>				</pitch>				<duration>6720</duration>				<voice>1</voice>				<type>quarter</type>				<stem default-y="10.00">up</stem>			</note>			<note>				<pitch>					<step>A</step>					<octave>4</octave>				</pitch>				<duration>3360</duration>				<voice>1</voice>				<type>eighth</type>				<stem default-y="10.00">up</stem>				<beam number="1">begin</beam>			</note>			<note>				<pitch>					<step>G</step>					<octave>4</octave>				</pitch>				<duration>3360</duration>				<voice>1</voice>				<type>eighth</type>				<stem default-y="5.00">up</stem>				<beam number="1">end</beam>			</note>		</measure>		<!--==========================[2,8]=============================-->		<measure number="8" width="186">			<note>				<pitch>					<step>F</step>					<octave>4</octave>				</pitch>				<duration>6720</duration>				<voice>1</voice>				<type>quarter</type>				<stem default-y="0.00">up</stem>			</note>			<note>				<pitch>					<step>F</step>					<octave>4</octave>				</pitch>				<duration>6720</duration>				<voice>1</voice>				<type>quarter</type>				<stem default-y="0.00">up</stem>			</note>			<note>				<pitch>					<step>F</step>					<octave>4</octave>				</pitch>				<duration>6720</duration>				<voice>1</voice>				<type>quarter</type>				<stem default-y="0.00">up</stem>			</note>			<note>				<pitch>					<step>G</step>					<octave>4</octave>				</pitch>				<duration>6720</duration>				<voice>1</voice>				<type>quarter</type>				<stem default-y="5.00">up</stem>			</note>		</measure>		<!--==========================[2,9]=============================-->		<measure number="9" width="118">			<note>				<pitch>					<step>A</step>					<octave>4</octave>				</pitch>				<duration>20160</duration>				<voice>1</voice>				<type>half</type>				<dot/>				<stem default-y="10.00">up</stem>			</note>			<note>				<pitch>					<step>A</step>					<octave>4</octave>				</pitch>				<duration>6720</duration>				<voice>1</voice>				<type>quarter</type>				<stem default-y="10.00">up</stem>			</note>		</measure>		<!--==========================[2,10]=============================-->		<measure number="10" width="88">			<note>				<pitch>					<step>F</step>					<octave>4</octave>				</pitch>				<duration>20160</duration>				<voice>1</voice>				<type>half</type>				<dot/>				<stem default-y="0.00">up</stem>			</note>			<note>				<pitch>					<step>A</step>					<octave>4</octave>				</pitch>				<duration>6720</duration>				<voice>1</voice>				<type>quarter</type>				<stem default-y="10.00">up</stem>			</note>		</measure>		<!--==========================[2,11]=============================-->		<measure number="11" width="106">			<note>				<pitch>					<step>A</step>					<octave>4</octave>				</pitch>				<duration>20160</duration>				<voice>1</voice>				<type>half</type>				<dot/>				<stem default-y="10.00">up</stem>			</note>			<note>				<pitch>					<step>A</step>					<octave>4</octave>				</pitch>				<duration>6720</duration>				<voice>1</voice>				<type>quarter</type>				<stem default-y="10.00">up</stem>			</note>		</measure>		<!--==========================[2,12]=============================-->		<measure number="12" width="186">			<note>				<pitch>					<step>F</step>					<octave>4</octave>				</pitch>				<duration>6720</duration>				<voice>1</voice>				<type>quarter</type>				<stem default-y="0.00">up</stem>			</note>			<note>				<pitch>					<step>F</step>					<octave>4</octave>				</pitch>				<duration>3360</duration>				<voice>1</voice>				<type>eighth</type>				<stem default-y="0.00">up</stem>				<beam number="1">begin</beam>			</note>			<note>				<pitch>					<step>G</step>					<octave>4</octave>				</pitch>				<duration>3360</duration>				<voice>1</voice>				<type>eighth</type>				<stem default-y="5.00">up</stem>				<beam number="1">end</beam>			</note>			<note>				<pitch>					<step>A</step>					<octave>4</octave>				</pitch>				<duration>6720</duration>				<voice>1</voice>				<type>quarter</type>				<stem default-y="10.00">up</stem>			</note>			<note>				<pitch>					<step>G</step>					<octave>4</octave>				</pitch>				<duration>6720</duration>				<voice>1</voice>				<type>quarter</type>				<stem default-y="5.00">up</stem>			</note>		</measure>		<!--==========================[2,13]=============================-->		<measure number="13" width="80">			<note>				<pitch>					<step>A</step>					<octave>4</octave>				</pitch>				<duration>20160</duration>				<voice>1</voice>				<type>half</type>				<dot/>				<stem default-y="10.00">up</stem>			</note>		</measure>		<!--==========================[2,14]=============================-->		<measure number="14" width="66">			<barline location="left">				<repeat direction="forward"/>			</barline>			<note>				<pitch>					<step>F</step>					<octave>4</octave>				</pitch>				<duration>6720</duration>				<voice>1</voice>				<type>quarter</type>				<stem default-y="0.00">up</stem>			</note>		</measure>		<!--==========================[2,15]=============================-->		<measure number="15" width="186">			<print new-page="yes">				<staff-layout number="1">					<staff-distance>67.667</staff-distance>				</staff-layout>			</print>			<note>				<pitch>					<step>A</step>					<octave>4</octave>				</pitch>				<duration>6720</duration>				<voice>1</voice>				<type>quarter</type>				<stem default-y="10.00">up</stem>			</note>			<note>				<pitch>					<step>A</step>					<octave>4</octave>				</pitch>				<duration>6720</duration>				<voice>1</voice>				<type>quarter</type>				<stem default-y="10.00">up</stem>			</note>			<note>				<pitch>					<step>A</step>					<octave>4</octave>				</pitch>				<duration>3360</duration>				<voice>1</voice>				<type>eighth</type>				<stem default-y="10.00">up</stem>				<beam number="1">begin</beam>			</note>			<note>				<pitch>					<step>G</step>					<octave>4</octave>				</pitch>				<duration>3360</duration>				<voice>1</voice>				<type>eighth</type>				<stem default-y="5.00">up</stem>				<beam number="1">end</beam>			</note>			<note>				<pitch>					<step>F</step>					<octave>4</octave>				</pitch>				<duration>3360</duration>				<voice>1</voice>				<type>eighth</type>				<stem default-y="0.00">up</stem>				<beam number="1">begin</beam>			</note>			<note>				<pitch>					<step>G</step>					<octave>4</octave>				</pitch>				<duration>3360</duration>				<voice>1</voice>				<type>eighth</type>				<stem default-y="5.00">up</stem>				<beam number="1">end</beam>			</note>		</measure>		<!--==========================[2,16]=============================-->		<measure number="16" width="186">			<note>				<pitch>					<step>A</step>					<octave>4</octave>				</pitch>				<duration>6720</duration>				<voice>1</voice>				<type>quarter</type>				<stem default-y="10.00">up</stem>			</note>			<note>				<pitch>					<step>A</step>					<octave>4</octave>				</pitch>				<duration>6720</duration>				<voice>1</voice>				<type>quarter</type>				<stem default-y="10.00">up</stem>			</note>			<note>				<pitch>					<step>F</step>					<octave>4</octave>				</pitch>				<duration>6720</duration>				<voice>1</voice>				<type>quarter</type>				<stem default-y="0.00">up</stem>			</note>			<note>				<pitch>					<step>A</step>					<octave>4</octave>				</pitch>				<duration>6720</duration>				<voice>1</voice>				<type>quarter</type>				<stem default-y="10.00">up</stem>			</note>		</measure>		<!--==========================[2,17]=============================-->		<measure number="17" width="186">			<note>				<pitch>					<step>C</step>					<octave>5</octave>				</pitch>				<duration>6720</duration>				<voice>1</voice>				<type>quarter</type>				<stem default-y="-50.00">down</stem>			</note>			<note>				<pitch>					<step>A</step>					<octave>4</octave>				</pitch>				<duration>6720</duration>				<voice>1</voice>				<type>quarter</type>				<stem default-y="10.00">up</stem>			</note>			<note>				<pitch>					<step>F</step>					<octave>4</octave>				</pitch>				<duration>6720</duration>				<voice>1</voice>				<type>quarter</type>				<stem default-y="0.00">up</stem>			</note>			<note>				<pitch>					<step>A</step>					<octave>4</octave>				</pitch>				<duration>6720</duration>				<voice>1</voice>				<type>quarter</type>				<stem default-y="10.00">up</stem>			</note>		</measure>		<!--==========================[2,18]=============================-->		<measure number="18" width="103">			<note>				<pitch>					<step>G</step>					<octave>4</octave>				</pitch>				<duration>20160</duration>				<voice>1</voice>				<type>half</type>				<dot/>				<stem default-y="5.00">up</stem>			</note>			<note>				<pitch>					<step>F</step>					<octave>4</octave>				</pitch>				<duration>6720</duration>				<voice>1</voice>				<type>quarter</type>				<stem default-y="0.00">up</stem>			</note>		</measure>		<!--==========================[2,19]=============================-->		<measure number="19" width="186">			<note>				<pitch>					<step>A</step>					<octave>4</octave>				</pitch>				<duration>6720</duration>				<voice>1</voice>				<type>quarter</type>				<stem default-y="10.00">up</stem>			</note>			<note>				<pitch>					<step>A</step>					<octave>4</octave>				</pitch>				<duration>6720</duration>				<voice>1</voice>				<type>quarter</type>				<stem default-y="10.00">up</stem>			</note>			<note>				<pitch>					<step>F</step>					<octave>4</octave>				</pitch>				<duration>6720</duration>				<voice>1</voice>				<type>quarter</type>				<stem default-y="0.00">up</stem>			</note>			<note>				<pitch>					<step>A</step>					<octave>4</octave>				</pitch>				<duration>6720</duration>				<voice>1</voice>				<type>quarter</type>				<stem default-y="10.00">up</stem>			</note>		</measure>		<!--==========================[2,20]=============================-->		<measure number="20" width="100">			<note>				<pitch>					<step>A</step>					<octave>4</octave>				</pitch>				<duration>20160</duration>				<voice>1</voice>				<type>half</type>				<dot/>				<stem default-y="10.00">up</stem>			</note>			<note>				<pitch>					<step>A</step>					<octave>4</octave>				</pitch>				<duration>6720</duration>				<voice>1</voice>				<type>quarter</type>				<stem default-y="10.00">up</stem>			</note>		</measure>		<!--==========================[2,21]=============================-->		<measure number="21" width="186">			<note>				<pitch>					<step>F</step>					<octave>4</octave>				</pitch>				<duration>6720</duration>				<voice>1</voice>				<type>quarter</type>				<stem default-y="0.00">up</stem>			</note>			<note>				<pitch>					<step>F</step>					<octave>4</octave>				</pitch>				<duration>6720</duration>				<voice>1</voice>				<type>quarter</type>				<stem default-y="0.00">up</stem>			</note>			<note>				<pitch>					<step>A</step>					<octave>4</octave>				</pitch>				<duration>6720</duration>				<voice>1</voice>				<type>quarter</type>				<stem default-y="10.00">up</stem>			</note>			<note>				<pitch>					<step>C</step>					<octave>5</octave>				</pitch>				<duration>6720</duration>				<voice>1</voice>				<type>quarter</type>				<stem default-y="-50.00">down</stem>			</note>		</measure>		<!--==========================[2,22]=============================-->		<measure number="22" width="186">			<print new-system="yes">				<staff-layout number="1">					<staff-distance>67.667</staff-distance>				</staff-layout>			</print>			<note>				<pitch>					<step>A</step>					<octave>4</octave>				</pitch>				<duration>6720</duration>				<voice>1</voice>				<type>quarter</type>				<stem default-y="10.00">up</stem>			</note>			<note>				<pitch>					<step>A</step>					<octave>4</octave>				</pitch>				<duration>3360</duration>				<voice>1</voice>				<type>eighth</type>				<stem default-y="8.33">up</stem>				<beam number="1">begin</beam>			</note>			<note>				<pitch>					<step>G</step>					<octave>4</octave>				</pitch>				<duration>3360</duration>				<voice>1</voice>				<type>eighth</type>				<stem default-y="-3.33">up</stem>				<beam number="1">end</beam>			</note>			<note>				<pitch>					<step>F</step>					<octave>4</octave>				</pitch>				<duration>6720</duration>				<voice>1</voice>				<type>quarter</type>				<stem default-y="-8.33">up</stem>			</note>			<note>				<pitch>					<step>F</step>					<octave>4</octave>				</pitch>				<duration>6720</duration>				<voice>1</voice>				<type>quarter</type>				<stem default-y="0.00">up</stem>			</note>		</measure>		<!--==========================[2,23]=============================-->		<measure number="23" width="186">			<note>				<pitch>					<step>A</step>					<octave>4</octave>				</pitch>				<duration>6720</duration>				<voice>1</voice>				<type>quarter</type>				<stem default-y="10.00">up</stem>			</note>			<note>				<pitch>					<step>A</step>					<octave>4</octave>				</pitch>				<duration>6720</duration>				<voice>1</voice>				<type>quarter</type>				<stem default-y="10.00">up</stem>			</note>			<note>				<pitch>					<step>F</step>					<octave>4</octave>				</pitch>				<duration>6720</duration>				<voice>1</voice>				<type>quarter</type>				<stem default-y="0.00">up</stem>			</note>			<note>				<pitch>					<step>G</step>					<octave>4</octave>				</pitch>				<duration>6720</duration>				<voice>1</voice>				<type>quarter</type>				<stem default-y="5.00">up</stem>			</note>		</measure>		<!--==========================[2,24]=============================-->		<measure number="24" width="80">			<barline location="left">				<ending type="start" number="1"/>			</barline>			<note>				<pitch>					<step>A</step>					<octave>4</octave>				</pitch>				<duration>20160</duration>				<voice>1</voice>				<type>half</type>				<dot/>				<stem default-y="10.00">up</stem>			</note>			<barline location="right">				<ending type="discontinue" number="1"/>				<repeat direction="backward" times="0"/>			</barline>		</measure>		<!--==========================[2,25]=============================-->		<measure number="25" width="80">			<barline location="left">				<ending type="start" number="2"/>			</barline>			<note>				<pitch>					<step>A</step>					<octave>4</octave>				</pitch>				<duration>26880</duration>				<voice>1</voice>				<type>whole</type>				<stem>none</stem>			</note>			<barline location="right">				<bar-style>light-heavy</bar-style>				<ending type="discontinue" number="2"/>			</barline>		</measure>	</part>	<part id="P3">		<!--==========================[3,1]=============================-->		<measure number="1" width="211">			<print>				<staff-layout number="1">					<staff-distance>70.000</staff-distance>				</staff-layout>			</print>			<attributes>				<divisions>6720</divisions>				<key>					<cancel>-6</cancel>					<fifths>-1</fifths>					<mode>major</mode>				</key>				<time>					<beats>4</beats>					<beat-type>4</beat-type>				</time>				<clef number="1">					<sign>G</sign>					<line>2</line>				</clef>				<staff-details number="1" print-object="yes">					<staff-lines>5</staff-lines>					<staff-size>70.00</staff-size>				</staff-details>			</attributes>			<note>				<rest>				</rest>				<duration>13440</duration>				<voice>1</voice>				<type>half</type>			</note>			<note>				<pitch>					<step>C</step>					<octave>4</octave>				</pitch>				<duration>10080</duration>				<voice>1</voice>				<type>quarter</type>				<dot/>				<stem default-y="-15.00">up</stem>			</note>			<note>				<pitch>					<step>D</step>					<octave>4</octave>				</pitch>				<duration>3360</duration>				<voice>1</voice>				<type>eighth</type>				<stem default-y="-10.00">up</stem>			</note>		</measure>		<!--==========================[3,2]=============================-->		<measure number="2" width="186">			<note>				<pitch>					<step>F</step>					<octave>4</octave>				</pitch>				<duration>6720</duration>				<voice>1</voice>				<type>quarter</type>				<stem default-y="0.00">up</stem>			</note>			<note>				<pitch>					<step>F</step>					<octave>4</octave>				</pitch>				<duration>3360</duration>				<voice>1</voice>				<type>eighth</type>				<stem default-y="0.00">up</stem>				<beam number="1">begin</beam>			</note>			<note>				<pitch>					<step>G</step>					<octave>4</octave>				</pitch>				<duration>3360</duration>				<voice>1</voice>				<type>eighth</type>				<stem default-y="5.00">up</stem>				<beam number="1">end</beam>			</note>			<note>				<pitch>					<step>A</step>					<octave>4</octave>				</pitch>				<duration>6720</duration>				<voice>1</voice>				<type>quarter</type>				<stem default-y="10.00">up</stem>			</note>			<note>				<pitch>					<step>G</step>					<octave>4</octave>				</pitch>				<duration>6720</duration>				<voice>1</voice>				<type>quarter</type>				<stem default-y="5.00">up</stem>			</note>		</measure>		<!--==========================[3,3]=============================-->		<measure number="3" width="138">			<note>				<pitch>					<step>F</step>					<octave>4</octave>				</pitch>				<duration>20160</duration>				<voice>1</voice>				<type>half</type>				<dot/>				<stem default-y="0.00">up</stem>			</note>			<note>				<pitch>					<step>A</step>					<octave>4</octave>				</pitch>				<duration>3360</duration>				<voice>1</voice>				<type>eighth</type>				<stem default-y="10.00">up</stem>			</note>			<note>				<pitch>					<step>B</step>					<alter>-1</alter>					<octave>4</octave>				</pitch>				<duration>3360</duration>				<voice>1</voice>				<type>eighth</type>				<stem default-y="15.00">up</stem>			</note>		</measure>		<!--==========================[3,4]=============================-->		<measure number="4" width="186">			<note>				<pitch>					<step>C</step>					<octave>5</octave>				</pitch>				<duration>6720</duration>				<voice>1</voice>				<type>quarter</type>				<stem default-y="-50.00">down</stem>			</note>			<note>				<pitch>					<step>C</step>					<octave>5</octave>				</pitch>				<duration>3360</duration>				<voice>1</voice>				<type>eighth</type>				<stem default-y="-50.00">down</stem>				<beam number="1">begin</beam>			</note>			<note>				<pitch>					<step>D</step>					<octave>5</octave>				</pitch>				<duration>3360</duration>				<voice>1</voice>				<type>eighth</type>				<stem default-y="-45.00">down</stem>				<beam number="1">end</beam>			</note>			<note>				<pitch>					<step>F</step>					<octave>5</octave>				</pitch>				<duration>6720</duration>				<voice>1</voice>				<type>quarter</type>				<stem default-y="-35.00">down</stem>			</note>			<note>				<pitch>					<step>C</step>					<octave>5</octave>				</pitch>				<duration>6720</duration>				<voice>1</voice>				<type>quarter</type>				<stem default-y="-50.00">down</stem>			</note>		</measure>		<!--==========================[3,5]=============================-->		<measure number="5" width="115">			<note>				<pitch>					<step>C</step>					<octave>5</octave>				</pitch>				<duration>20160</duration>				<voice>1</voice>				<type>half</type>				<dot/>				<stem default-y="-50.00">down</stem>			</note>			<note>				<pitch>					<step>C</step>					<octave>5</octave>				</pitch>				<duration>6720</duration>				<voice>1</voice>				<type>quarter</type>				<stem default-y="-50.00">down</stem>			</note>		</measure>		<!--==========================[3,6]=============================-->		<measure number="6" width="186">			<note>				<pitch>					<step>F</step>					<octave>5</octave>				</pitch>				<duration>6720</duration>				<voice>1</voice>				<type>quarter</type>				<stem default-y="-35.00">down</stem>			</note>			<note>				<pitch>					<step>F</step>					<octave>5</octave>				</pitch>				<duration>6720</duration>				<voice>1</voice>				<type>quarter</type>				<stem default-y="-35.00">down</stem>			</note>			<note>				<pitch>					<step>C</step>					<octave>5</octave>				</pitch>				<duration>6720</duration>				<voice>1</voice>				<type>quarter</type>				<stem default-y="-50.00">down</stem>			</note>			<note>				<pitch>					<step>A</step>					<octave>4</octave>				</pitch>				<duration>6720</duration>				<voice>1</voice>				<type>quarter</type>				<stem default-y="10.00">up</stem>			</note>		</measure>		<!--==========================[3,7]=============================-->		<measure number="7" width="186">			<print new-system="yes">				<staff-layout number="1">					<staff-distance>70.000</staff-distance>				</staff-layout>			</print>			<note>				<pitch>					<step>C</step>					<octave>5</octave>				</pitch>				<duration>3360</duration>				<voice>1</voice>				<type>eighth</type>				<stem default-y="-50.00">down</stem>				<beam number="1">begin</beam>			</note>			<note>				<pitch>					<step>D</step>					<octave>5</octave>				</pitch>				<duration>3360</duration>				<voice>1</voice>				<type>eighth</type>				<stem default-y="-45.00">down</stem>				<beam number="1">end</beam>			</note>			<note>				<pitch>					<step>C</step>					<octave>5</octave>				</pitch>				<duration>3360</duration>				<voice>1</voice>				<type>eighth</type>				<stem default-y="-50.00">down</stem>				<beam number="1">begin</beam>			</note>			<note>				<pitch>					<step>B</step>					<alter>-1</alter>					<octave>4</octave>				</pitch>				<duration>3360</duration>				<voice>1</voice>				<type>eighth</type>				<stem default-y="-55.00">down</stem>				<beam number="1">continue</beam>			</note>			<note>				<pitch>					<step>A</step>					<octave>4</octave>				</pitch>				<duration>6720</duration>				<voice>1</voice>				<type>quarter</type>				<stem default-y="10.00">up</stem>			</note>			<note>				<pitch>					<step>F</step>					<octave>4</octave>				</pitch>				<duration>3360</duration>				<voice>1</voice>				<type>eighth</type>				<stem default-y="0.00">up</stem>				<beam number="2">begin</beam>			</note>			<note>				<pitch>					<step>G</step>					<octave>4</octave>				</pitch>				<duration>3360</duration>				<voice>1</voice>				<type>eighth</type>				<stem default-y="5.00">up</stem>				<beam number="2">end</beam>			</note>		</measure>		<!--==========================[3,8]=============================-->		<measure number="8" width="186">			<note>				<pitch>					<step>A</step>					<octave>4</octave>				</pitch>				<duration>6720</duration>				<voice>1</voice>				<type>quarter</type>				<stem default-y="10.00">up</stem>			</note>			<note>				<pitch>					<step>C</step>					<octave>5</octave>				</pitch>				<duration>6720</duration>				<voice>1</voice>				<type>quarter</type>				<stem default-y="-50.00">down</stem>				<beam number="1">begin</beam>			</note>			<note>				<pitch>					<step>A</step>					<octave>4</octave>				</pitch>				<duration>6720</duration>				<voice>1</voice>				<type>quarter</type>				<stem default-y="10.00">up</stem>			</note>			<note>				<pitch>					<step>G</step>					<octave>4</octave>				</pitch>				<duration>6720</duration>				<voice>1</voice>				<type>quarter</type>				<stem default-y="5.00">up</stem>			</note>		</measure>		<!--==========================[3,9]=============================-->		<measure number="9" width="118">			<note>				<pitch>					<step>F</step>					<octave>4</octave>				</pitch>				<duration>20160</duration>				<voice>1</voice>				<type>half</type>				<dot/>				<stem default-y="0.00">up</stem>			</note>			<note>				<pitch>					<step>A</step>					<octave>4</octave>				</pitch>				<duration>6720</duration>				<voice>1</voice>				<type>quarter</type>				<stem default-y="10.00">up</stem>			</note>		</measure>		<!--==========================[3,10]=============================-->		<measure number="10" width="88">			<note>				<pitch>					<step>A</step>					<octave>4</octave>				</pitch>				<duration>20160</duration>				<voice>1</voice>				<type>half</type>				<dot/>				<stem default-y="10.00">up</stem>			</note>			<note>				<pitch>					<step>F</step>					<octave>4</octave>				</pitch>				<duration>6720</duration>				<voice>1</voice>				<type>quarter</type>				<stem default-y="0.00">up</stem>			</note>		</measure>		<!--==========================[3,11]=============================-->		<measure number="11" width="106">			<note>				<pitch>					<step>C</step>					<octave>5</octave>				</pitch>				<duration>20160</duration>				<voice>1</voice>				<type>half</type>				<dot/>				<stem default-y="-50.00">down</stem>			</note>			<note>				<pitch>					<step>A</step>					<octave>4</octave>				</pitch>				<duration>6720</duration>				<voice>1</voice>				<type>quarter</type>				<stem default-y="10.00">up</stem>			</note>		</measure>		<!--==========================[3,12]=============================-->		<measure number="12" width="186">			<note>				<pitch>					<step>C</step>					<octave>5</octave>				</pitch>				<duration>6720</duration>				<voice>1</voice>				<type>quarter</type>				<stem default-y="-50.00">down</stem>			</note>			<note>				<pitch>					<step>C</step>					<octave>5</octave>				</pitch>				<duration>3360</duration>				<voice>1</voice>				<type>eighth</type>				<stem default-y="-50.00">down</stem>				<beam number="1">begin</beam>			</note>			<note>				<pitch>					<step>B</step>					<alter>-1</alter>					<octave>4</octave>				</pitch>				<duration>3360</duration>				<voice>1</voice>				<type>eighth</type>				<stem default-y="-55.00">down</stem>				<beam number="1">end</beam>			</note>			<note>				<pitch>					<step>A</step>					<octave>4</octave>				</pitch>				<duration>6720</duration>				<voice>1</voice>				<type>quarter</type>				<stem default-y="10.00">up</stem>			</note>			<note>				<pitch>					<step>G</step>					<octave>4</octave>				</pitch>				<duration>6720</duration>				<voice>1</voice>				<type>quarter</type>				<stem default-y="5.00">up</stem>			</note>		</measure>		<!--==========================[3,13]=============================-->		<measure number="13" width="80">			<note>				<pitch>					<step>F</step>					<octave>4</octave>				</pitch>				<duration>20160</duration>				<voice>1</voice>				<type>half</type>				<dot/>				<stem default-y="0.00">up</stem>			</note>		</measure>		<!--==========================[3,14]=============================-->		<measure number="14" width="66">			<barline location="left">				<repeat direction="forward"/>			</barline>			<note>				<rest>					<display-step>F</display-step>					<display-octave>4</display-octave>				</rest>				<duration>6720</duration>				<voice>1</voice>				<type>quarter</type>			</note>		</measure>		<!--==========================[3,15]=============================-->		<measure number="15" width="186">			<print new-page="yes">				<staff-layout number="1">					<staff-distance>70.000</staff-distance>				</staff-layout>			</print>			<note>				<rest>				</rest>				<duration>26880</duration>				<voice>1</voice>				<type>whole</type>			</note>		</measure>		<!--==========================[3,16]=============================-->		<measure number="16" width="186">			<note>				<rest>				</rest>				<duration>20160</duration>				<voice>1</voice>				<type>half</type>				<dot/>			</note>			<note>				<pitch>					<step>F</step>					<octave>4</octave>				</pitch>				<duration>6720</duration>				<voice>1</voice>				<type>quarter</type>				<stem default-y="0.00">up</stem>			</note>		</measure>		<!--==========================[3,17]=============================-->		<measure number="17" width="186">			<note>				<pitch>					<step>A</step>					<octave>4</octave>				</pitch>				<duration>6720</duration>				<voice>1</voice>				<type>quarter</type>				<stem default-y="10.00">up</stem>			</note>			<note>				<pitch>					<step>A</step>					<octave>4</octave>				</pitch>				<duration>6720</duration>				<voice>1</voice>				<type>quarter</type>				<stem default-y="10.00">up</stem>			</note>			<note>				<pitch>					<step>A</step>					<octave>4</octave>				</pitch>				<duration>3360</duration>				<voice>1</voice>				<type>eighth</type>				<stem default-y="10.00">up</stem>				<beam number="1">begin</beam>			</note>			<note>				<pitch>					<step>G</step>					<octave>4</octave>				</pitch>				<duration>3360</duration>				<voice>1</voice>				<type>eighth</type>				<stem default-y="5.00">up</stem>				<beam number="1">end</beam>			</note>			<note>				<pitch>					<step>F</step>					<octave>4</octave>				</pitch>				<duration>6720</duration>				<voice>1</voice>				<type>quarter</type>				<stem default-y="0.00">up</stem>			</note>		</measure>		<!--==========================[3,18]=============================-->		<measure number="18" width="103">			<note>				<pitch>					<step>C</step>					<octave>5</octave>				</pitch>				<duration>20160</duration>				<voice>1</voice>				<type>half</type>				<dot/>				<stem default-y="-50.00">down</stem>			</note>			<note>				<pitch>					<step>C</step>					<octave>5</octave>				</pitch>				<duration>6720</duration>				<voice>1</voice>				<type>quarter</type>				<stem default-y="-50.00">down</stem>			</note>		</measure>		<!--==========================[3,19]=============================-->		<measure number="19" width="186">			<note>				<pitch>					<step>F</step>					<octave>5</octave>				</pitch>				<duration>6720</duration>				<voice>1</voice>				<type>quarter</type>				<stem default-y="-35.00">down</stem>			</note>			<note>				<pitch>					<step>F</step>					<octave>5</octave>				</pitch>				<duration>6720</duration>				<voice>1</voice>				<type>quarter</type>				<stem default-y="-35.00">down</stem>			</note>			<note>				<pitch>					<step>C</step>					<octave>5</octave>				</pitch>				<duration>6720</duration>				<voice>1</voice>				<type>quarter</type>				<stem default-y="-50.00">down</stem>			</note>			<note>				<pitch>					<step>D</step>					<octave>5</octave>				</pitch>				<duration>6720</duration>				<voice>1</voice>				<type>quarter</type>				<stem default-y="-45.00">down</stem>			</note>		</measure>		<!--==========================[3,20]=============================-->		<measure number="20" width="100">			<note>				<pitch>					<step>C</step>					<octave>5</octave>				</pitch>				<duration>20160</duration>				<voice>1</voice>				<type>half</type>				<dot/>				<stem default-y="-50.00">down</stem>			</note>			<note>				<pitch>					<step>C</step>					<octave>5</octave>				</pitch>				<duration>6720</duration>				<voice>1</voice>				<type>quarter</type>				<stem default-y="-50.00">down</stem>			</note>		</measure>		<!--==========================[3,21]=============================-->		<measure number="21" width="186">			<note>				<pitch>					<step>A</step>					<octave>4</octave>				</pitch>				<duration>6720</duration>				<voice>1</voice>				<type>quarter</type>				<stem default-y="10.00">up</stem>			</note>			<note>				<pitch>					<step>A</step>					<octave>4</octave>				</pitch>				<duration>6720</duration>				<voice>1</voice>				<type>quarter</type>				<stem default-y="10.00">up</stem>			</note>			<note>				<pitch>					<step>C</step>					<octave>5</octave>				</pitch>				<duration>6720</duration>				<voice>1</voice>				<type>quarter</type>				<stem default-y="-50.00">down</stem>			</note>			<note>				<pitch>					<step>D</step>					<octave>5</octave>				</pitch>				<duration>6720</duration>				<voice>1</voice>				<type>quarter</type>				<stem default-y="-45.00">down</stem>			</note>		</measure>		<!--==========================[3,22]=============================-->		<measure number="22" width="186">			<print new-system="yes">				<staff-layout number="1">					<staff-distance>70.000</staff-distance>				</staff-layout>			</print>			<note>				<pitch>					<step>F</step>					<octave>5</octave>				</pitch>				<duration>6720</duration>				<voice>1</voice>				<type>quarter</type>				<stem default-y="-35.00">down</stem>			</note>			<note>				<pitch>					<step>C</step>					<octave>5</octave>				</pitch>				<duration>6720</duration>				<voice>1</voice>				<type>quarter</type>				<stem default-y="-50.00">down</stem>			</note>			<note>				<pitch>					<step>A</step>					<octave>4</octave>				</pitch>				<duration>6720</duration>				<voice>1</voice>				<type>quarter</type>				<stem default-y="10.00">up</stem>			</note>			<note>				<pitch>					<step>F</step>					<octave>4</octave>				</pitch>				<duration>6720</duration>				<voice>1</voice>				<type>quarter</type>				<stem default-y="0.00">up</stem>			</note>		</measure>		<!--==========================[3,23]=============================-->		<measure number="23" width="186">			<note>				<pitch>					<step>C</step>					<octave>5</octave>				</pitch>				<duration>6720</duration>				<voice>1</voice>				<type>quarter</type>				<stem default-y="-50.00">down</stem>			</note>			<note>				<pitch>					<step>C</step>					<octave>5</octave>				</pitch>				<duration>6720</duration>				<voice>1</voice>				<type>quarter</type>				<stem default-y="-50.00">down</stem>			</note>			<note>				<pitch>					<step>A</step>					<octave>4</octave>				</pitch>				<duration>6720</duration>				<voice>1</voice>				<type>quarter</type>				<stem default-y="10.00">up</stem>			</note>			<note>				<pitch>					<step>G</step>					<octave>4</octave>				</pitch>				<duration>6720</duration>				<voice>1</voice>				<type>quarter</type>				<stem default-y="5.00">up</stem>			</note>		</measure>		<!--==========================[3,24]=============================-->		<measure number="24" width="80">			<barline location="left">				<ending type="start" number="1"/>			</barline>			<note>				<pitch>					<step>F</step>					<octave>4</octave>				</pitch>				<duration>20160</duration>				<voice>1</voice>				<type>half</type>				<dot/>				<stem default-y="0.00">up</stem>			</note>			<barline location="right">				<ending type="discontinue" number="1"/>				<repeat direction="backward" times="0"/>			</barline>		</measure>		<!--==========================[3,25]=============================-->		<measure number="25" width="80">			<barline location="left">				<ending type="start" number="2"/>			</barline>			<note>				<pitch>					<step>F</step>					<octave>4</octave>				</pitch>				<duration>26880</duration>				<voice>1</voice>				<type>whole</type>				<stem>none</stem>			</note>			<barline location="right">				<bar-style>light-heavy</bar-style>				<ending type="discontinue" number="2"/>			</barline>		</measure>	</part>	<part id="P4">		<!--==========================[4,1]=============================-->		<measure number="1" width="211">			<print>				<staff-layout number="1">					<staff-distance>70.000</staff-distance>				</staff-layout>			</print>			<attributes>				<divisions>6720</divisions>				<key>					<cancel>-6</cancel>					<fifths>-1</fifths>					<mode>major</mode>				</key>				<time>					<beats>4</beats>					<beat-type>4</beat-type>				</time>				<clef number="1">					<sign>F</sign>					<line>4</line>				</clef>				<staff-details number="1" print-object="yes">					<staff-lines>5</staff-lines>					<staff-size>70.00</staff-size>				</staff-details>			</attributes>			<note>				<rest>				</rest>				<duration>13440</duration>				<voice>1</voice>				<type>half</type>			</note>			<note>				<pitch>					<step>F</step>					<octave>3</octave>				</pitch>				<duration>10080</duration>				<voice>1</voice>				<type>quarter</type>				<dot/>				<stem default-y="-45.00">down</stem>			</note>			<note>				<pitch>					<step>D</step>					<octave>3</octave>				</pitch>				<duration>3360</duration>				<voice>1</voice>				<type>eighth</type>				<stem default-y="-55.00">down</stem>			</note>		</measure>		<!--==========================[4,2]=============================-->		<measure number="2" width="186">			<note>				<pitch>					<step>C</step>					<octave>3</octave>				</pitch>				<duration>6720</duration>				<voice>1</voice>				<type>quarter</type>				<stem default-y="10.00">up</stem>			</note>			<note>				<pitch>					<step>C</step>					<octave>3</octave>				</pitch>				<duration>6720</duration>				<voice>1</voice>				<type>quarter</type>				<stem default-y="10.00">up</stem>			</note>			<note>				<pitch>					<step>D</step>					<octave>3</octave>				</pitch>				<duration>6720</duration>				<voice>1</voice>				<type>quarter</type>				<stem default-y="-55.00">down</stem>			</note>			<note>				<pitch>					<step>C</step>					<octave>3</octave>				</pitch>				<duration>6720</duration>				<voice>1</voice>				<type>quarter</type>				<stem default-y="10.00">up</stem>			</note>		</measure>		<!--==========================[4,3]=============================-->		<measure number="3" width="138">			<note>				<pitch>					<step>F</step>					<octave>3</octave>				</pitch>				<duration>20160</duration>				<voice>1</voice>				<type>half</type>				<dot/>				<stem default-y="-45.00">down</stem>			</note>			<note>				<pitch>					<step>C</step>					<octave>3</octave>				</pitch>				<duration>3360</duration>				<voice>1</voice>				<type>eighth</type>				<stem default-y="10.00">up</stem>			</note>			<note>				<pitch>					<step>C</step>					<octave>3</octave>				</pitch>				<duration>3360</duration>				<voice>1</voice>				<type>eighth</type>				<stem default-y="10.00">up</stem>			</note>		</measure>		<!--==========================[4,4]=============================-->		<measure number="4" width="186">			<note>				<pitch>					<step>F</step>					<octave>3</octave>				</pitch>				<duration>6720</duration>				<voice>1</voice>				<type>quarter</type>				<stem default-y="-45.00">down</stem>			</note>			<note>				<pitch>					<step>F</step>					<octave>3</octave>				</pitch>				<duration>3360</duration>				<voice>1</voice>				<type>eighth</type>				<stem default-y="-45.00">down</stem>				<beam number="1">begin</beam>			</note>			<note>				<pitch>					<step>G</step>					<octave>3</octave>				</pitch>				<duration>3360</duration>				<voice>1</voice>				<type>eighth</type>				<stem default-y="-40.00">down</stem>				<beam number="1">end</beam>			</note>			<note>				<pitch>					<step>A</step>					<octave>3</octave>				</pitch>				<duration>6720</duration>				<voice>1</voice>				<type>quarter</type>				<stem default-y="-35.00">down</stem>			</note>			<note>				<pitch>					<step>F</step>					<octave>3</octave>				</pitch>				<duration>6720</duration>				<voice>1</voice>				<type>quarter</type>				<stem default-y="-45.00">down</stem>			</note>		</measure>		<!--==========================[4,5]=============================-->		<measure number="5" width="115">			<note>				<pitch>					<step>C</step>					<octave>3</octave>				</pitch>				<duration>20160</duration>				<voice>1</voice>				<type>half</type>				<dot/>				<stem default-y="10.00">up</stem>			</note>			<note>				<pitch>					<step>C</step>					<octave>3</octave>				</pitch>				<duration>6720</duration>				<voice>1</voice>				<type>quarter</type>				<stem default-y="10.00">up</stem>			</note>		</measure>		<!--==========================[4,6]=============================-->		<measure number="6" width="186">			<note>				<pitch>					<step>F</step>					<octave>3</octave>				</pitch>				<duration>6720</duration>				<voice>1</voice>				<type>quarter</type>				<stem default-y="-45.00">down</stem>			</note>			<note>				<pitch>					<step>F</step>					<octave>3</octave>				</pitch>				<duration>6720</duration>				<voice>1</voice>				<type>quarter</type>				<stem default-y="-45.00">down</stem>			</note>			<note>				<pitch>					<step>C</step>					<octave>3</octave>				</pitch>				<duration>6720</duration>				<voice>1</voice>				<type>quarter</type>				<stem default-y="10.00">up</stem>			</note>			<note>				<pitch>					<step>C</step>					<octave>3</octave>				</pitch>				<duration>6720</duration>				<voice>1</voice>				<type>quarter</type>				<stem default-y="10.00">up</stem>			</note>		</measure>		<!--==========================[4,7]=============================-->		<measure number="7" width="186">			<print new-system="yes">				<staff-layout number="1">					<staff-distance>70.000</staff-distance>				</staff-layout>			</print>			<note>				<pitch>					<step>D</step>					<octave>3</octave>				</pitch>				<duration>6720</duration>				<voice>1</voice>				<type>quarter</type>				<stem default-y="-55.00">down</stem>			</note>			<note>				<pitch>					<step>C</step>					<octave>3</octave>				</pitch>				<duration>6720</duration>				<voice>1</voice>				<type>quarter</type>				<stem default-y="10.00">up</stem>			</note>			<note>				<pitch>					<step>F</step>					<octave>3</octave>				</pitch>				<duration>6720</duration>				<voice>1</voice>				<type>quarter</type>				<stem default-y="-45.00">down</stem>			</note>			<note>				<pitch>					<step>C</step>					<octave>3</octave>				</pitch>				<duration>6720</duration>				<voice>1</voice>				<type>quarter</type>				<stem default-y="10.00">up</stem>			</note>		</measure>		<!--==========================[4,8]=============================-->		<measure number="8" width="186">			<note>				<pitch>					<step>F</step>					<octave>3</octave>				</pitch>				<duration>6720</duration>				<voice>1</voice>				<type>quarter</type>				<stem default-y="-45.00">down</stem>			</note>			<note>				<pitch>					<step>F</step>					<octave>3</octave>				</pitch>				<duration>6720</duration>				<voice>1</voice>				<type>quarter</type>				<stem default-y="-45.00">down</stem>			</note>			<note>				<pitch>					<step>D</step>					<octave>3</octave>				</pitch>				<duration>6720</duration>				<voice>1</voice>				<type>quarter</type>				<stem default-y="-55.00">down</stem>			</note>			<note>				<pitch>					<step>C</step>					<octave>3</octave>				</pitch>				<duration>6720</duration>				<voice>1</voice>				<type>quarter</type>				<stem default-y="10.00">up</stem>			</note>		</measure>		<!--==========================[4,9]=============================-->		<measure number="9" width="118">			<note>				<pitch>					<step>F</step>					<octave>3</octave>				</pitch>				<duration>20160</duration>				<voice>1</voice>				<type>half</type>				<dot/>				<stem default-y="-45.00">down</stem>			</note>			<note>				<pitch>					<step>F</step>					<octave>3</octave>				</pitch>				<duration>6720</duration>				<voice>1</voice>				<type>quarter</type>				<stem default-y="-45.00">down</stem>			</note>		</measure>		<!--==========================[4,10]=============================-->		<measure number="10" width="88">			<note>				<pitch>					<step>D</step>					<octave>3</octave>				</pitch>				<duration>20160</duration>				<voice>1</voice>				<type>half</type>				<dot/>				<stem default-y="-55.00">down</stem>			</note>			<note>				<pitch>					<step>C</step>					<octave>3</octave>				</pitch>				<duration>6720</duration>				<voice>1</voice>				<type>quarter</type>				<stem default-y="10.00">up</stem>			</note>		</measure>		<!--==========================[4,11]=============================-->		<measure number="11" width="106">			<note>				<pitch>					<step>F</step>					<octave>3</octave>				</pitch>				<duration>20160</duration>				<voice>1</voice>				<type>half</type>				<dot/>				<stem default-y="-45.00">down</stem>			</note>			<note>				<pitch>					<step>F</step>					<octave>3</octave>				</pitch>				<duration>6720</duration>				<voice>1</voice>				<type>quarter</type>				<stem default-y="-45.00">down</stem>			</note>		</measure>		<!--==========================[4,12]=============================-->		<measure number="12" width="186">			<note>				<pitch>					<step>C</step>					<octave>3</octave>				</pitch>				<duration>6720</duration>				<voice>1</voice>				<type>quarter</type>				<stem default-y="10.00">up</stem>			</note>			<note>				<pitch>					<step>C</step>					<octave>3</octave>				</pitch>				<duration>6720</duration>				<voice>1</voice>				<type>quarter</type>				<stem default-y="10.00">up</stem>			</note>			<note>				<pitch>					<step>D</step>					<octave>3</octave>				</pitch>				<duration>6720</duration>				<voice>1</voice>				<type>quarter</type>				<stem default-y="-55.00">down</stem>			</note>			<note>				<pitch>					<step>C</step>					<octave>3</octave>				</pitch>				<duration>6720</duration>				<voice>1</voice>				<type>quarter</type>				<stem default-y="10.00">up</stem>			</note>		</measure>		<!--==========================[4,13]=============================-->		<measure number="13" width="80">			<note>				<pitch>					<step>F</step>					<octave>3</octave>				</pitch>				<duration>20160</duration>				<voice>1</voice>				<type>half</type>				<dot/>				<stem default-y="-45.00">down</stem>			</note>		</measure>		<!--==========================[4,14]=============================-->		<measure number="14" width="66">			<barline location="left">				<repeat direction="forward"/>			</barline>			<note>				<pitch>					<step>C</step>					<octave>3</octave>				</pitch>				<duration>6720</duration>				<voice>1</voice>				<type>quarter</type>				<stem default-y="10.00">up</stem>			</note>		</measure>		<!--==========================[4,15]=============================-->		<measure number="15" width="186">			<print new-page="yes">				<staff-layout number="1">					<staff-distance>70.000</staff-distance>				</staff-layout>			</print>			<note>				<pitch>					<step>F</step>					<octave>3</octave>				</pitch>				<duration>6720</duration>				<voice>1</voice>				<type>quarter</type>				<stem default-y="-45.00">down</stem>			</note>			<note>				<pitch>					<step>F</step>					<octave>3</octave>				</pitch>				<duration>6720</duration>				<voice>1</voice>				<type>quarter</type>				<stem default-y="-45.00">down</stem>			</note>			<note>				<pitch>					<step>C</step>					<octave>3</octave>				</pitch>				<duration>3360</duration>				<voice>1</voice>				<type>eighth</type>				<stem default-y="10.00">up</stem>				<beam number="1">begin</beam>			</note>			<note>				<pitch>					<step>D</step>					<octave>3</octave>				</pitch>				<duration>3360</duration>				<voice>1</voice>				<type>eighth</type>				<stem default-y="15.00">up</stem>				<beam number="1">end</beam>			</note>			<note>				<pitch>					<step>F</step>					<octave>3</octave>				</pitch>				<duration>3360</duration>				<voice>1</voice>				<type>eighth</type>				<stem default-y="-45.00">down</stem>				<beam number="1">begin</beam>			</note>			<note>				<pitch>					<step>E</step>					<octave>3</octave>				</pitch>				<duration>3360</duration>				<voice>1</voice>				<type>eighth</type>				<stem default-y="-50.00">down</stem>				<beam number="1">end</beam>			</note>		</measure>		<!--==========================[4,16]=============================-->		<measure number="16" width="186">			<note>				<pitch>					<step>D</step>					<octave>3</octave>				</pitch>				<duration>6720</duration>				<voice>1</voice>				<type>quarter</type>				<stem default-y="-55.00">down</stem>			</note>			<note>				<pitch>					<step>C</step>					<octave>3</octave>				</pitch>				<duration>3360</duration>				<voice>1</voice>				<type>eighth</type>				<stem default-y="10.00">up</stem>				<beam number="1">begin</beam>			</note>			<note>				<pitch>					<step>D</step>					<octave>3</octave>				</pitch>				<duration>3360</duration>				<voice>1</voice>				<type>eighth</type>				<stem default-y="15.00">up</stem>				<beam number="1">end</beam>			</note>			<note>				<pitch>					<step>F</step>					<octave>3</octave>				</pitch>				<duration>6720</duration>				<voice>1</voice>				<type>quarter</type>				<stem default-y="-45.00">down</stem>			</note>			<note>				<pitch>					<step>C</step>					<octave>3</octave>				</pitch>				<duration>6720</duration>				<voice>1</voice>				<type>quarter</type>				<stem default-y="10.00">up</stem>			</note>		</measure>		<!--==========================[4,17]=============================-->		<measure number="17" width="186">			<note>				<pitch>					<step>F</step>					<octave>3</octave>				</pitch>				<duration>6720</duration>				<voice>1</voice>				<type>quarter</type>				<stem default-y="-45.00">down</stem>			</note>			<note>				<pitch>					<step>F</step>					<octave>3</octave>				</pitch>				<duration>6720</duration>				<voice>1</voice>				<type>quarter</type>				<stem default-y="-45.00">down</stem>			</note>			<note>				<pitch>					<step>D</step>					<octave>3</octave>				</pitch>				<duration>6720</duration>				<voice>1</voice>				<type>quarter</type>				<stem default-y="-55.00">down</stem>			</note>			<note>				<pitch>					<step>F</step>					<octave>3</octave>				</pitch>				<duration>6720</duration>				<voice>1</voice>				<type>quarter</type>				<stem default-y="-45.00">down</stem>			</note>		</measure>		<!--==========================[4,18]=============================-->		<measure number="18" width="103">			<note>				<pitch>					<step>C</step>					<octave>3</octave>				</pitch>				<duration>20160</duration>				<voice>1</voice>				<type>half</type>				<dot/>				<stem default-y="10.00">up</stem>			</note>			<note>				<pitch>					<step>C</step>					<octave>3</octave>				</pitch>				<duration>6720</duration>				<voice>1</voice>				<type>quarter</type>				<stem default-y="10.00">up</stem>			</note>		</measure>		<!--==========================[4,19]=============================-->		<measure number="19" width="186">			<note>				<pitch>					<step>F</step>					<octave>3</octave>				</pitch>				<duration>6720</duration>				<voice>1</voice>				<type>quarter</type>				<stem default-y="-45.00">down</stem>			</note>			<note>				<pitch>					<step>F</step>					<octave>3</octave>				</pitch>				<duration>6720</duration>				<voice>1</voice>				<type>quarter</type>				<stem default-y="-45.00">down</stem>			</note>			<note>				<pitch>					<step>C</step>					<octave>3</octave>				</pitch>				<duration>6720</duration>				<voice>1</voice>				<type>quarter</type>				<stem default-y="10.00">up</stem>			</note>			<note>				<pitch>					<step>D</step>					<octave>3</octave>				</pitch>				<duration>6720</duration>				<voice>1</voice>				<type>quarter</type>				<stem default-y="-55.00">down</stem>			</note>		</measure>		<!--==========================[4,20]=============================-->		<measure number="20" width="100">			<note>				<pitch>					<step>F</step>					<octave>3</octave>				</pitch>				<duration>20160</duration>				<voice>1</voice>				<type>half</type>				<dot/>				<stem default-y="-45.00">down</stem>			</note>			<note>				<pitch>					<step>F</step>					<octave>3</octave>				</pitch>				<duration>6720</duration>				<voice>1</voice>				<type>quarter</type>				<stem default-y="-45.00">down</stem>			</note>		</measure>		<!--==========================[4,21]=============================-->		<measure number="21" width="186">			<note>				<pitch>					<step>C</step>					<octave>3</octave>				</pitch>				<duration>6720</duration>				<voice>1</voice>				<type>quarter</type>				<stem default-y="10.00">up</stem>			</note>			<note>				<pitch>					<step>C</step>					<octave>3</octave>				</pitch>				<duration>6720</duration>				<voice>1</voice>				<type>quarter</type>				<stem default-y="10.00">up</stem>			</note>			<note>				<pitch>					<step>F</step>					<octave>3</octave>				</pitch>				<duration>6720</duration>				<voice>1</voice>				<type>quarter</type>				<stem default-y="-45.00">down</stem>			</note>			<note>				<pitch>					<step>F</step>					<octave>3</octave>				</pitch>				<duration>6720</duration>				<voice>1</voice>				<type>quarter</type>				<stem default-y="-45.00">down</stem>			</note>		</measure>		<!--==========================[4,22]=============================-->		<measure number="22" width="186">			<print new-system="yes">				<staff-layout number="1">					<staff-distance>70.000</staff-distance>				</staff-layout>			</print>			<note>				<pitch>					<step>A</step>					<octave>3</octave>				</pitch>				<duration>6720</duration>				<voice>1</voice>				<type>quarter</type>				<stem default-y="-35.00">down</stem>			</note>			<note>				<pitch>					<step>G</step>					<octave>3</octave>				</pitch>				<duration>6720</duration>				<voice>1</voice>				<type>quarter</type>				<stem default-y="-40.00">down</stem>			</note>			<note>				<pitch>					<step>F</step>					<octave>3</octave>				</pitch>				<duration>6720</duration>				<voice>1</voice>				<type>quarter</type>				<stem default-y="-45.00">down</stem>			</note>			<note>				<pitch>					<step>C</step>					<octave>3</octave>				</pitch>				<duration>6720</duration>				<voice>1</voice>				<type>quarter</type>				<stem default-y="10.00">up</stem>			</note>		</measure>		<!--==========================[4,23]=============================-->		<measure number="23" width="186">			<note>				<pitch>					<step>F</step>					<octave>3</octave>				</pitch>				<duration>6720</duration>				<voice>1</voice>				<type>quarter</type>				<stem default-y="-45.00">down</stem>			</note>			<note>				<pitch>					<step>F</step>					<octave>3</octave>				</pitch>				<duration>6720</duration>				<voice>1</voice>				<type>quarter</type>				<stem default-y="-45.00">down</stem>			</note>			<note>				<pitch>					<step>D</step>					<octave>3</octave>				</pitch>				<duration>6720</duration>				<voice>1</voice>				<type>quarter</type>				<stem default-y="-55.00">down</stem>			</note>			<note>				<pitch>					<step>C</step>					<octave>3</octave>				</pitch>				<duration>6720</duration>				<voice>1</voice>				<type>quarter</type>				<stem default-y="10.00">up</stem>			</note>		</measure>		<!--==========================[4,24]=============================-->		<measure number="24" width="80">			<barline location="left">				<ending type="start" number="1"/>			</barline>			<note>				<pitch>					<step>F</step>					<octave>3</octave>				</pitch>				<duration>20160</duration>				<voice>1</voice>				<type>half</type>				<dot/>				<stem default-y="-45.00">down</stem>			</note>			<barline location="right">				<ending type="discontinue" number="1"/>				<repeat direction="backward" times="0"/>			</barline>		</measure>		<!--==========================[4,25]=============================-->		<measure number="25" width="80">			<barline location="left">				<ending type="start" number="2"/>			</barline>			<note>				<pitch>					<step>F</step>					<octave>3</octave>				</pitch>				<duration>26880</duration>				<voice>1</voice>				<type>whole</type>				<stem>none</stem>			</note>			<barline location="right">				<bar-style>light-heavy</bar-style>				<ending type="discontinue" number="2"/>			</barline>		</measure>	</part></score-partwise>